<?xml version="1.0" encoding="UTF-8"?>
<svg width="1200mm" height="1200mm" version="1.1" viewBox="0 0 1200 1200" xmlns="http://www.w3.org/2000/svg" xmlns:xlink="http://www.w3.org/1999/xlink">
 <defs>
  <linearGradient id="linearGradient19129">
   <stop stop-color="#fff" stop-opacity=".72874" offset="0"/>
   <stop stop-color="#fff" stop-opacity="0" offset="1"/>
  </linearGradient>
  <filter id="filter5543-6" x="-.0052051" y="-.0015182" width="1.0065" height="1.0051" color-interpolation-filters="sRGB">
   <feGaussianBlur stdDeviation="0.0045646585"/>
  </filter>
  <filter id="filter6257-4" x="-.018017" y="-.0019974" width="1.0398" height="1.0062" color-interpolation-filters="sRGB">
   <feGaussianBlur stdDeviation="0.020753834"/>
  </filter>
  <filter id="filter6257-8-7" x="-.03649" y="-.0052644" width="1.0778" height="1.0146" color-interpolation-filters="sRGB">
   <feGaussianBlur stdDeviation="0.087166883"/>
  </filter>
  <filter id="filter6257-8-1-6" x="-.00993" y="-.0026757" width="1.0199" height="1.0054" color-interpolation-filters="sRGB">
   <feGaussianBlur stdDeviation="0.0042469749"/>
  </filter>
  <filter id="filter83355-5" x="-.017303" y="-.053342" width="1.0346" height="1.1067" color-interpolation-filters="sRGB">
   <feGaussianBlur stdDeviation="0.23823084"/>
  </filter>
  <linearGradient id="linearGradient7079-5" x1="82.564" x2="134.09" y1="170.04" y2="170.04" gradientUnits="userSpaceOnUse">
   <stop offset="0"/>
   <stop stop-opacity="0" offset=".53219"/>
   <stop stop-opacity=".40486" offset="1"/>
  </linearGradient>
  <linearGradient id="linearGradient36522" x1="85.011" x2="132.3" y1="230.01" y2="230.38" gradientTransform="matrix(4.1461 0 0 4.1461 114.5 46.976)" gradientUnits="userSpaceOnUse">
   <stop offset="0"/>
   <stop stop-opacity="0" offset=".53219"/>
   <stop stop-opacity=".40486" offset="1"/>
  </linearGradient>
  <filter id="filter25136-6-1" x="-.054088" y="-.0090716" width="1.112" height="1.0179" color-interpolation-filters="sRGB">
   <feGaussianBlur stdDeviation="0.21409857"/>
  </filter>
  <filter id="filter25144-8-1" x="-.099593" y="-.13247" width="1.1992" height="1.2649" color-interpolation-filters="sRGB">
   <feGaussianBlur stdDeviation="0.21409857"/>
  </filter>
  <filter id="filter25140-0-6" x="-.099877" y="-.11177" width="1.1998" height="1.2235" color-interpolation-filters="sRGB">
   <feGaussianBlur stdDeviation="0.21409857"/>
  </filter>
  <filter id="filter48371-1-1-7" x="-.079874" y="-.050254" width="1.1597" height="1.1005" color-interpolation-filters="sRGB">
   <feGaussianBlur stdDeviation="0.21409857"/>
  </filter>
  <filter id="filter25156-4-8" x="-.14662" y="-.0083283" width="1.2972" height="1.0165" color-interpolation-filters="sRGB">
   <feGaussianBlur stdDeviation="0.80919145"/>
  </filter>
  <filter id="filter25168-9-0" x="-.13236" y="-.20728" width="1.2647" height="1.4146" color-interpolation-filters="sRGB">
   <feGaussianBlur stdDeviation="0.21409857"/>
  </filter>
  <filter id="filter25164-6-4" x="-.10666" y="-.32312" width="1.2133" height="1.6462" color-interpolation-filters="sRGB">
   <feGaussianBlur stdDeviation="0.21409857"/>
  </filter>
  <filter id="filter1317-9" x="-.021629" y="-.045057" width="1.0389" height="1.0924" color-interpolation-filters="sRGB">
   <feGaussianBlur stdDeviation="0.26460735"/>
  </filter>
  <filter id="filter7744-7-0-1" x="-.060217" y="-.019512" width="1.1204" height="1.039" color-interpolation-filters="sRGB">
   <feGaussianBlur stdDeviation="0.069753575"/>
  </filter>
  <filter id="filter7744-7-4-9-3" x="-.032088" y="-.005886" width="1.0642" height="1.0118" color-interpolation-filters="sRGB">
   <feGaussianBlur stdDeviation="0.032631763"/>
  </filter>
  <filter id="filter7744-7-4-2" x="-.033985" y="-.0085466" width="1.068" height="1.0171" color-interpolation-filters="sRGB">
   <feGaussianBlur stdDeviation="0.032631763"/>
  </filter>
  <filter id="filter5367-5" x="-.0094804" y="-.017249" width="1.019" height="1.0345" color-interpolation-filters="sRGB">
   <feGaussianBlur stdDeviation="0.083717166"/>
  </filter>
  <filter id="filter5344-4" x="-.013328" y="-.0071202" width="1.0267" height="1.0142" color-interpolation-filters="sRGB">
   <feGaussianBlur stdDeviation="0.055828515"/>
  </filter>
  <linearGradient id="linearGradient852" x1="63.085" x2="119.21" y1="108.41" y2="108.41" gradientTransform="matrix(4.143 .16093 -.16093 4.143 114.51 46.945)" gradientUnits="userSpaceOnUse">
   <stop stop-color="#dfebeb" offset="0"/>
   <stop stop-color="#dfebeb" stop-opacity=".39836" offset="1"/>
  </linearGradient>
  <linearGradient id="linearGradient854" x1="117.17" x2="153.86" y1="108.47" y2="108.47" gradientTransform="matrix(4.143 .16093 -.16093 4.143 114.51 46.945)" gradientUnits="userSpaceOnUse">
   <stop stop-color="#dfebeb" offset="0"/>
   <stop stop-color="#dfebeb" stop-opacity=".40246" offset="1"/>
  </linearGradient>
  <filter id="filter12880" x="-.073865" y="-.19957" width="1.1477" height="1.3991" color-interpolation-filters="sRGB">
   <feGaussianBlur stdDeviation="1.0652808"/>
  </filter>
  <filter id="filter12872" x="-.52518" y="-.37316" width="2.0363" height="1.7291" color-interpolation-filters="sRGB">
   <feGaussianBlur stdDeviation="1.0652808"/>
  </filter>
  <filter id="filter12876" x="-.10857" y="-.21457" width="1.2171" height="1.4291" color-interpolation-filters="sRGB">
   <feGaussianBlur stdDeviation="1.0652808"/>
  </filter>
  <filter id="filter4971-6" x="-.40363" y="-.42182" width="1.8073" height="1.8436" color-interpolation-filters="sRGB">
   <feGaussianBlur stdDeviation="1.8249526"/>
  </filter>
  <filter id="filter4971-8-0" x="-.40363" y="-.42182" width="1.8073" height="1.8436" color-interpolation-filters="sRGB">
   <feGaussianBlur stdDeviation="1.8249526"/>
  </filter>
  <filter id="filter4971-0-6" x="-.40363" y="-.42182" width="1.8073" height="1.8436" color-interpolation-filters="sRGB">
   <feGaussianBlur stdDeviation="1.8249526"/>
  </filter>
  <filter id="filter4971" x="-.40363" y="-.42182" width="1.8073" height="1.8436" color-interpolation-filters="sRGB">
   <feGaussianBlur stdDeviation="1.8249526"/>
  </filter>
  <filter id="filter4971-8" x="-.40363" y="-.42182" width="1.8073" height="1.8436" color-interpolation-filters="sRGB">
   <feGaussianBlur stdDeviation="1.8249526"/>
  </filter>
  <filter id="filter4971-0" x="-.40363" y="-.42182" width="1.8073" height="1.8436" color-interpolation-filters="sRGB">
   <feGaussianBlur stdDeviation="1.8249526"/>
  </filter>
  <filter id="filter22322-10" x="-.015979" y="-.033658" width="1.0287" height="1.0605" color-interpolation-filters="sRGB">
   <feGaussianBlur stdDeviation="0.23358464"/>
  </filter>
  <linearGradient id="linearGradient25785" x1="123.66" x2="114.77" y1="91.869" y2="114.29" gradientTransform="matrix(4.1461 0 0 4.1461 114.51 46.948)" gradientUnits="userSpaceOnUse">
   <stop offset="0"/>
   <stop stop-opacity="0" offset="1"/>
  </linearGradient>
  <linearGradient id="linearGradient25787" x1="-9.5396" x2="4.5847" y1="-122.65" y2="-137.45" gradientUnits="userSpaceOnUse" xlink:href="#linearGradient19129"/>
  <linearGradient id="linearGradient25789" x1="-8.2966" x2="2.9334" y1="-123.86" y2="-135.57" gradientUnits="userSpaceOnUse">
   <stop stop-color="#fff" stop-opacity=".72874" offset="0"/>
   <stop stop-color="#fff" stop-opacity="0" offset="1"/>
  </linearGradient>
  <linearGradient id="linearGradient25791" x1="-51.461" x2="-44.815" y1="-156.35" y2="-165.9" gradientUnits="userSpaceOnUse" xlink:href="#linearGradient19129"/>
  <linearGradient id="linearGradient25793" x1="-37.451" x2="-29.989" y1="-160.29" y2="-169.21" gradientUnits="userSpaceOnUse" xlink:href="#linearGradient19129"/>
 </defs>
 <g transform="matrix(4.1461 0 0 4.1461 133.91 58.186)" fill="#e7bc91" style="mix-blend-mode:normal">
  <path transform="scale(.26458)" d="m396.2 193.95c-8.6417 0-17.283 0.31408-22.133 0.94141-22.011 2.8471-40.957 8.5314-60.318 18.096-21.237 10.491-39.465 24.596-54.678 42.309-20.543 23.919-33.031 51.961-37.584 84.393-1.0111 7.204-0.85442 31.258 0.25196 38.672l0.87109 5.8379-1.043 0.72851c-4.8569 3.4008-6.548 6.3027-6.2305 10.691 0.42059 5.815 4.5315 9.8832 10.742 10.631 1.7919 0.21574 3.3654 0.50009 3.4961 0.63086 0.1307 0.13066 0.56997 2.6073 0.97657 5.5039 2.3414 16.68 8.1134 29.342 19.68 43.17 17.489 20.908 47.675 38.337 82.732 47.771 17.727 4.7705 43.515 7.706 59.36 7.7098 3.9137 9.5e-4 7.0805-0.21 7.2918 0.34056 11.565-0.14831 12.448-1.0714 20.947-1.2509 0-0.69407 3.1512 0.0555 11.581-1.0861 34.744-4.7049 64.698-16.67 89.112-33.767 6.4548-4.5204 9.4537-6.8588 15.438-12.627 10.384-10.008 16.851-19.209 21.61-30.757l2.6275-4.8838 3.1814-0.68466c5.6539-1.2168 7.5878-2.7903 8.5254-7.7158 0.79718-4.1878-1.4637-9.4919-5.773-10.783-1.0988-0.3292-2.068-0.32037-2.3118-0.61442-0.27659-0.33324 0.567-3.5211 1.4537-6.6796 1.8201-6.4833 3.561-14.765 4.6602-22.166 1.1022-7.4209 1.2567-31.486 0.24805-38.672-4.5527-32.432-17.041-60.473-37.584-84.393-4.9084-5.715-14.73-15.473-19.865-19.738-26.69-22.165-59.051-35.999-95.131-40.666-4.8497-0.62733-13.493-0.94141-22.135-0.94141zm-73.223 576.28c0.27209 1.0693-5e-3 1.519-1.8887 3.0625-2.6426 2.1654-2.6075 4.4541-2.2515 8.9394 0.28876 3.6355 0.27059 4.3299 3.2551 6.2226 2.9846 1.8928 4.6699 0.71567 7.2247-0.26005 5.2796-2.0163 6.3979-3.1289 5.2363-8.3196-0.30844-1.3784-0.47845-2.1861-0.90588-2.7964-1.3098-1.87-3.68-4.7034-5.7428-4.7034-2.6921-0.0802-3.1249 0.12911-4.9273-2.1452zm169.89-1.3078c-2.0628 0-4.1227 1.2616-5.4325 3.1316-0.42743 0.61024-1.3044 2.3285-1.6128 3.7069-1.1616 5.1907 0.75349 7.9769 6.033 9.9932 2.5548 0.97568 3.4268 0.51673 6.4115-1.3761 2.9845-1.8928 3.248-1.9755 3.5368-5.611 0.35622-4.4852 0.12016-5.4625-2.5224-7.6279-2.7989-1.214-4.2088-0.81674-6.4136-2.2166z" fill="#e7bc91"/>
 </g>
 <g transform="matrix(4.1461 0 0 4.1461 133.91 58.187)">
  <path d="m104.32 135.44c-2.7616 0-7.6008-0.50136-11.336-1.1745-13.605-2.4516-24.641-8.9681-29.528-17.437-1.329-2.3028-2.0879-4.5222-2.5248-7.3836-0.14563-0.95359-0.33435-1.778-0.41938-1.8321-0.085-0.0541-0.36452-0.0992-0.62107-0.10025-1.1305-5e-3 -2.239-0.69567-2.7449-1.7109-0.75445-1.514-0.20525-3.0303 1.4381-3.9705 0.60604-0.34674 0.86326-0.41745 1.5093-0.4149 0.85858 3e-3 1.9454 0.39621 2.3462 0.84804 0.23 0.25926 0.22836 0.26292-0.0873 0.19439-0.17697-0.0384-0.66927-0.19776-1.094-0.3541-1.7337-0.6382-3.5822 0.18601-3.9961 1.7818-0.48396 1.8657 1.0858 3.4576 3.2883 3.3347l0.57917-0.0323 0.0843 1.3594c0.49494 7.9809 6.8355 15.61 17.162 20.649 5.6601 2.7623 12.37 4.6166 19.563 5.4066 2.5766 0.28299 8.9404 0.39558 11.656 0.20623 13.264-0.92475 24.949-5.4822 32.324-12.607 2.7776-2.6835 4.5416-5.2986 5.7737-8.5594l0.43011-1.1383 0.48888 0.0782c0.70274 0.11238 1.5531-0.143 2.1352-0.64121 0.64962-0.55605 0.844-1.0383 0.77141-1.9137-0.14185-1.7104-1.9766-2.6074-3.835-1.8749-0.78576 0.30971-0.99259 0.32987-0.78207 0.0762 0.20975-0.25274 1.011-0.61853 1.5885-0.72513 0.35335-0.0652 0.69716-0.0125 1.2692 0.19462 1.4365 0.52013 2.043 1.2638 2.043 2.505 0 0.85527-0.23263 1.3916-0.83171 1.9176-0.57778 0.5073-0.92986 0.65303-1.8605 0.77006l-0.7004 0.0881-0.48383 1.1941c-0.61838 1.5261-1.818 3.6345-2.9089 5.1125-1.218 1.6503-4.1659 4.5424-6.1064 5.9908-6.7488 5.0376-15.421 8.2896-25.502 9.5631-0.76502 0.0966-1.4082 0.2164-2.092 0.31549" fill-opacity=".99763"/>
 </g>
 <ellipse transform="translate(19.4 11.241)" cx="485.87" cy="443.88" rx="108.22" ry="108.92" fill="#fff" stroke-width="4.1283"/>
 <g stroke-width="4.1461">
  <ellipse transform="translate(19.4 11.241)" cx="653.33" cy="489.79" rx="62.37" ry="62.685" fill="#fff"/>
  <path transform="translate(19.4 11.241)" d="m649.56 536.14c-0.73373-0.13018-2.7748-0.49218-4.5358-0.80413-4.1714-0.73904-11.364-3.7855-15.789-6.6868-4.5259-2.9681-10.949-9.7018-13.733-14.397-15.623-26.349-1.7877-59.936 27.92-67.776 5.1345-1.3554 17.234-1.388 22.081-0.0597 10.443 2.8628 18.419 8.0306 24.893 16.128 11.639 14.559 12.994 34.973 3.4194 51.519-2.5395 4.389-8.1653 10.504-12.529 13.618-4.2137 3.0068-11.165 6.2494-15.877 7.4066-3.5659 0.87545-13.232 1.5172-15.85 1.0524zm-170.76-14.119c-9.7209-1.1919-17.352-3.3406-25.434-7.1615-20.589-9.7338-36.248-28.367-41.992-49.969-2.1-7.8991-2.6885-12.444-2.6885-20.76 0-4.2555 0.30474-9.5385 0.67727-11.74 4.4243-26.145 19.601-46.743 43.235-58.671 4.9546-2.501 15.021-5.7228 21.133-6.7639 7.0102-1.194 19.084-1.2039 26.007-0.0207 29.998 5.1242 54.811 27.532 62.498 56.436 2.1 7.8991 2.6885 12.444 2.6885 20.76 0 21.41-7.7001 40.011-22.878 55.263-11.767 11.826-26.124 19.242-42.406 21.906-6.0433 0.98885-15.87 1.3275-20.839 0.71823z" fill="#502d16"/>
  <path transform="translate(19.4 11.241)" d="m648.23 529.22c-2.0545-0.4535-5.7763-1.8034-8.271-2.9997-6.3924-3.0654-12.772-9.4361-15.926-15.904-3.2381-6.64-3.9894-10.212-3.7012-17.596 0.38807-9.9411 3.3667-16.802 10.306-23.742 6.943-6.943 13.8-9.9182 23.754-10.307 7.2386-0.28277 12.107 0.78369 18.36 4.0208 5.7531 2.9786 12.321 9.7545 15.127 15.607 9.5053 19.821 0.0477 42.655-20.617 49.778-5.7042 1.9661-13.251 2.4194-19.033 1.1431zm-172.36-18.428c-19.662-2.8333-37.466-15.853-46.154-33.751-8.5509-17.615-8.5509-36.433 0-54.048 18.611-38.338 70.546-46.063 99.713-14.83 23.14 24.778 21.843 63.501-2.9005 86.608-13.562 12.665-32.463 18.643-50.657 16.021z" fill-opacity=".99763" opacity=".59939"/>
  <path transform="translate(19.4 11.241)" d="m649.39 535.85c-0.73374-0.13019-2.7748-0.49218-4.5358-0.80413-4.1714-0.73904-11.364-3.7855-15.789-6.6868-4.5259-2.9681-10.949-9.7018-13.733-14.397-15.623-26.349-1.7877-59.936 27.92-67.776 5.1345-1.3554 17.234-1.388 22.081-0.0597 10.443 2.8628 18.419 8.0306 24.893 16.128 11.639 14.559 12.994 34.973 3.4194 51.519-2.5395 4.389-8.1653 10.504-12.529 13.618-4.2137 3.0068-11.165 6.2494-15.877 7.4066-3.5659 0.87545-13.232 1.5172-15.85 1.0524zm-170.76-14.119c-9.7209-1.1919-17.352-3.3406-25.434-7.1615-20.589-9.7338-36.248-28.367-41.992-49.969-2.1-7.8991-2.6885-12.444-2.6885-20.76 0-4.2555 0.30474-9.5385 0.67727-11.74 4.4243-26.145 19.601-46.743 43.235-58.671 4.9546-2.501 15.021-5.7228 21.133-6.7639 7.0102-1.194 19.084-1.2039 26.007-0.0207 29.998 5.1241 54.811 27.532 62.498 56.436 2.1 7.8991 2.6885 12.444 2.6885 20.76 0 21.41-7.7001 40.011-22.878 55.263-11.767 11.826-26.124 19.242-42.406 21.906-6.0433 0.98885-15.87 1.3275-20.839 0.71823z" fill="url(#linearGradient25785)"/>
 </g>
 <g transform="matrix(4.1461 0 0 4.1461 133.91 58.189)" fill="none" filter="url(#filter22322-10)" stroke-linecap="round" stroke-linejoin="round" stroke-opacity=".82341" style="mix-blend-mode:normal">
  <path transform="rotate(137.23)" d="m13.375-131.98a13.19 13.003 0 0 1-8.1489 12.016 13.19 13.003 0 0 1-14.378-2.8314 13.19 13.003 0 0 1-2.8407-14.18 13.19 13.003 0 0 1 12.206-8.007" opacity=".47557" stroke="url(#linearGradient25787)" stroke-width=".865"/>
  <path transform="rotate(137.23)" d="m11.721-131.96a11.693 11.527 0 0 1-7.2303 10.654 11.693 11.527 0 0 1-12.749-2.5217 11.693 11.527 0 0 1-2.5014-12.579 11.693 11.527 0 0 1 10.84-7.0799" opacity=".41368" stroke="url(#linearGradient25789)" stroke-width=".165"/>
  <path transform="rotate(145.57)" d="m-39.721-162.73a7.0148 6.9114 0 0 1-6.3018 6.8756 7.0148 6.9114 0 0 1-7.5829-5.4779 7.0148 6.9114 0 0 1 4.7603-7.9892" opacity=".47883" stroke="url(#linearGradient25791)" stroke-width=".165"/>
  <path transform="rotate(140.51)" d="m-24.344-166.26a7.9229 7.8065 0 0 1-7.7289 7.8042 7.9229 7.8065 0 0 1-8.1074-7.422 7.9229 7.8065 0 0 1 7.3318-8.1677" opacity=".468" stroke="url(#linearGradient25793)" stroke-width=".465"/>
 </g>
 <g transform="matrix(4.1461 0 0 4.1461 133.91 58.189)" fill-opacity=".30364" fill-rule="evenodd">
  <ellipse cx="86.996" cy="89.101" rx="5.4256" ry="5.1917" fill="#5b00ff" filter="url(#filter4971)" style="mix-blend-mode:normal"/>
  <ellipse transform="matrix(.5496 0 0 .54054 40.509 45.555)" cx="98.689" cy="99.251" rx="5.4256" ry="5.1917" fill="#b054f3" filter="url(#filter4971-8)" style="mix-blend-mode:normal"/>
  <ellipse transform="matrix(1.7931,0,0,1.8919,-69.145,-71.588)" cx="84.471" cy="90.177" rx="5.4256" ry="5.1917" fill="#f100ff" filter="url(#filter4971-0)" style="mix-blend-mode:normal"/>
 </g>
 <g transform="matrix(4.1461 0 0 4.1461 133.91 58.189)" fill="#fff" fill-opacity=".99763">
  <path d="m80.013 117.62c2.8293-5.1249 18.614-22.027 12.79-14.535l-8.4956 10.929z"/>
  <path d="m83.016 118.68c3.1961-5.8245 21.027-25.033 14.448-16.52l-9.5971 12.421z"/>
  <ellipse cx="100.42" cy="98.081" rx=".79513" ry=".70158" fill-rule="evenodd"/>
  <path transform="matrix(.26458 0 0 .26458 1.7198 -.66146)" d="m326.68 360.62-20.163-13.466-10.449 21.88-2.0434-24.16-23.621 5.4722 17.615-16.661-19.006-15.056 24.009 3.384-0.0788-24.247 12.324 20.881 18.908-15.179-8.6418 22.654 23.656 5.3185-23.1 7.3684z" fill-rule="evenodd"/>
 </g>
 <g transform="matrix(4.1461 0 0 4.1461 133.91 58.189)" fill-opacity=".30364" fill-rule="evenodd">
  <ellipse transform="matrix(.58947 0 0 .58947 50.294 41.013)" cx="132.74" cy="105.1" rx="5.4256" ry="5.1917" fill="#5b00ff" filter="url(#filter4971-6)" style="mix-blend-mode:normal"/>
  <ellipse transform="matrix(.32398 0 0 .31863 101.14 77.299)" cx="98.689" cy="99.251" rx="5.4256" ry="5.1917" fill="#b054f3" filter="url(#filter4971-8-0)" style="mix-blend-mode:normal"/>
  <ellipse transform="matrix(1.057,0,0,1.1152,36.498,8.2463)" cx="84.471" cy="90.177" rx="5.4256" ry="5.1917" fill="#f100ff" filter="url(#filter4971-0-6)" style="mix-blend-mode:normal"/>
 </g>
 <g transform="matrix(4.1461 0 0 4.1461 133.91 58.189)" fill="#fff" fill-opacity=".99763">
  <path d="m124.42 119.78c1.6678-3.021 10.972-12.984 7.5394-8.5681l-5.008 6.4422z"/>
  <path d="m126.19 120.41c1.884-3.4334 12.395-14.757 8.5169-9.7378l-5.6572 7.3216z"/>
  <ellipse cx="136.45" cy="108.26" rx=".46871" ry=".41356" fill-rule="evenodd"/>
  <path transform="matrix(.15596 0 0 .15596 78.271 50.056)" d="m326.68 360.62-20.163-13.466-10.449 21.88-2.0434-24.16-23.621 5.4722 17.615-16.661-19.006-15.056 24.009 3.384-0.0788-24.247 12.324 20.881 18.908-15.179-8.6418 22.654 23.656 5.3185-23.1 7.3684z" fill-rule="evenodd"/>
 </g>
 <path transform="translate(19.4 11.241)" d="m646.78 554.34c-0.44023-0.10656-2.6014-0.4853-4.8024-0.84157-9.2056-1.4899-19.15-5.8485-27.255-11.946-16.244-12.22-25.574-30.99-25.574-51.449 0-3.8712-0.18782-5.9845-0.50346-5.6664-0.27696 0.27903-2.0916 3.7288-4.0327 7.6665-5.9612 12.093-14.114 23.201-23.332 31.789-42.912 39.978-108.4 39.978-151.31 0-9.4319-8.7872-17.592-19.994-23.595-32.406-4.3472-8.9887-6.9679-16.622-8.7922-25.61-4.8016-23.656-1.8853-47.983 8.2955-69.194 6.1034-12.715 12.245-21.446 21.82-31.022 43.177-43.177 112.67-43.177 155.85 0 9.5758 9.5758 15.717 18.307 21.82 31.022 8.0969 16.868 11.75 36.373 10.259 54.774-0.35076 4.3289-0.78008 8.4112-0.95401 9.0716-0.62515 2.3735 0.85886 1.1485 2.9535-2.438 3.2246-5.5213 6.455-9.5712 11.489-14.404 12.114-11.629 27.342-17.71 44.355-17.71 35.614 0 64.289 28.765 64.277 64.472-0.0124 25.954-15.748 49.276-40.046 59.347-7.1176 2.9499-13.754 4.2912-22.386 4.5246-4.2555 0.11485-8.0977 0.1219-8.538 0.0166zm21.988-5.251c9.9145-2.6206 18.804-7.6437 26.353-14.891 12.812-12.3 18.895-26.438 18.895-43.915 0-11.037-1.7875-18.506-6.7109-28.038-8.5082-16.473-23.902-28.025-42.302-31.746-6.2419-1.2621-20.97-0.85161-26.78 0.74637-21.643 5.9521-37.877 22.239-43.87 44.015-1.0659 3.8716-1.1952 5.5562-1.1741 15.29 0.0207 10.354 0.10199 11.196 1.482 15.742 1.6688 5.496 5.2912 13.335 8.213 17.773 2.8598 4.3443 11.333 12.926 15.808 16.01 7.0454 4.8559 14.483 8.0774 22.497 9.7445 7.2241 1.5028 20.47 1.1524 27.591-0.72983zm-171.52 0.66255c19.74-2.1455 39.855-10.574 55.607-23.301 4.7236-3.8161 13.694-12.964 17.152-17.492 4.4732-5.8568 8.4568-12.409 11.906-19.583 7.6943-16.005 10.925-31.654 10.272-49.761-0.83067-23.056-8.5011-43.832-23.058-62.461-3.7663-4.819-13.323-14.278-18.14-17.954-32.572-24.861-75.819-29.346-111.87-11.604-11.239 5.5313-18.757 10.837-27.872 19.668-19.975 19.355-31.195 44.57-32.196 72.349-0.65243 18.108 2.5782 33.758 10.272 49.761 5.5201 11.483 10.918 19.239 19.703 28.314 8.9784 9.274 17.71 15.693 29.193 21.461 10.375 5.2112 23.915 9.3067 34.858 10.543 6.0918 0.68829 18.106 0.71748 24.168 0.0589z" stroke-width="4.1461"/>
 <g transform="matrix(4.1461 0 0 4.1461 133.06 57.802)" stroke="#000" stroke-width=".565">
  <g fill="#e5ccd2">
   <path d="m106.55 47.333v0s-1.7234 4.1219-1.7183 6.2979c8e-3 3.3913 2.7244 9.8025 2.7244 9.8025 12.25 37.115 36.754 19.203 41.804 44.119 1.4693 0.51044 2.4036 1.2018 2.2797 2.7708-0.12388 1.569-1.2056 2.3623-3.2232 2.6548-2.6707 7.2329-8.4052 11.577-13.227 14.881 11.217-2.9955 23.769-14.716 23.431-32.477s-6.7037-28.232-17.198-36.777c-19.648-15.998-50.234-14.548-70.005-0.44731-11.652 8.3102-19.125 21.091-18.461 38.765 0.66398 17.674 6.1638 24.533 18.483 28.357-8.5328-5.844-10.751-14.635-10.304-18.093-1.5096 0.69274-4.0482-0.53218-4.2482-2.4119 0.02262-3.3689 3.2257-3.8847 5.8208-2.249-3.3256-10.939-1.6753-37.731 38.563-37.505 4.0241 0.02268 6.2839-1.5875 6.2839-1.5875" stroke-linecap="round" stroke-linejoin="round" style="mix-blend-mode:normal"/>
   <path d="m106.55 47.333s-12.981 4.4874-17.568 0.83639c-3.7111-2.954-4.6443-9.7582-2.5285-14.003 1.088-2.1828 4.1452-3.7983 6.5321-3.2967 6.9585 1.4623 13.564 16.464 13.564 16.464z"/>
   <path d="m91.406 37.852c-2.1473-3.1953-3.6975-7.9344-1.9777-11.379 1.4079-2.8197 5.2875-4.6587 8.419-4.303 6.0694 0.68927 12.542 5.8627 14.032 11.787 1.1709 4.6551-5.332 13.377-5.332 13.377s-11.819-4.5392-15.141-9.4817z"/>
   <path d="m93.442 24.265c1.6888-4.1982 8.49-4.0518 13.012-3.8721 4.409 0.17524 9.6579 1.273 12.348 4.7708 2.6198 3.4065 3.197 8.9105 1.4032 12.816-2.3033 5.0143-13.657 9.3544-13.657 9.3544s-16.406-14.864-13.105-23.069z"/>
   <path d="m106.55 47.333s2.3518-16.228 8.7693-18.818c3.2306-1.3035 7.4192 1.1701 9.7524 3.757 2.3152 2.567 4.479 7.0378 2.7128 10.009-3.7175 6.2543-21.235 5.0514-21.235 5.0514z"/>
   <path d="m106.55 47.333s4.8559-7.2293 8.7032-8.5406c3.9607-1.3499 9.7261-1.6738 12.464 1.4902 1.7234 1.9913 1.7244 6.0978-0.19762 7.898-5.1058 4.7823-20.97-0.84767-20.97-0.84767z"/>
  </g>
  <g fill="none">
   <path d="m107.55 63.434s-0.81422 13.946 10.845 20.996c2.6816 1.6214 6.4216 4.8965 6.8542 6.981" stroke-linecap="round"/>
   <path d="m61.134 107.19c-0.55186 16.553 7.9446 25.82-1.0583 30.692-1.7227 0.93222-4.7377-1.1055-5.0271-3.0427-0.33225-2.2238 1.6493-5.5081 4.4979-5.0271 5.9521 1.0051 10.481 6.5515 6.4823 11.774-4.249 5.5497-4.7865 4.3357-6.35 9.2604-0.86435 2.7226 1.4552 10.054 1.4552 10.054"/>
   <path d="m148.41 112.98c-4.8737 17.489-8.9123 25.668 0 30.692 1.7064 0.96177 4.7376-1.1055 5.0271-3.0427 0.33226-2.2238-1.6493-5.5081-4.4979-5.0271-5.9521 1.0051-10.481 6.5515-6.4823 11.774 4.249 5.5497 4.7865 4.3357 6.35 9.2604 0.86435 2.7226-1.4552 10.054-1.4552 10.054"/>
  </g>
 </g>
 <g transform="matrix(4.1461 0 0 4.1461 133.06 57.802)">
  <path d="m106.55 47.333s-12.981 4.4874-17.568 0.83639c-3.7111-2.954-4.6443-9.7582-2.5285-14.003 0.20524 4.4673 5.3659 4.4869 7.5537 6.2888 5.556 4.685 12.542 6.8785 12.542 6.8785z" opacity=".16"/>
  <path d="m91.406 37.852c-2.1473-3.1953-3.6975-7.9344-1.9777-11.379-1.176 5.0164 4.1346 8.9231 9.1464 12.102 3.5941 4.3351 7.9726 8.7592 7.9726 8.7592s-11.819-4.5392-15.141-9.4817z" opacity=".16"/>
  <path d="m93.442 24.265c1.6888-4.1982 8.49-4.0518 13.012-3.8721-7.4783 5.5703-4.6707 6.5917-2.5569 8.7942 2.6152 2.7249 5.9471 5.9836 5.9471 5.9836-0.93873 2.3714-3.2961 12.163-3.2961 12.163s-16.406-14.864-13.105-23.069z" opacity=".16"/>
 </g>
 <path transform="matrix(4.1461 0 0 4.1461 133.91 58.187)" d="m106.35 47.24s2.3518-16.228 8.7693-18.818c2.3693 1.095-1.8319 7.3356 1.2834 9.8799-6.4585 1.9132-10.053 8.9375-10.053 8.9375z" filter="url(#filter5344-4)" opacity=".143"/>
 <path transform="matrix(4.1461 0 0 4.1461 133.91 58.187)" d="m106.35 47.24s4.8559-7.2293 8.7032-8.5406c3.9607-1.3499-1.3382 1.6181 1.3996 4.7821 1.7234 1.9913 12.789 2.8059 10.867 4.6061-5.1058 4.7823-20.97-0.84767-20.97-0.84767z" filter="url(#filter5367-5)" opacity=".143"/>
 <g transform="matrix(4.1461 0 0 4.1461 133.06 57.802)" fill="none">
  <path d="m107.55 63.434s-0.81422 13.946 10.845 20.996c2.6816 1.6214 6.4216 4.8965 6.8542 6.981" stroke-linecap="round"/>
  <path d="m61.134 107.19c-0.55186 16.553 7.9446 25.82-1.0583 30.692-1.7227 0.93222-4.7377-1.1055-5.0271-3.0427-0.33225-2.2238 1.6493-5.5081 4.4979-5.0271 5.9521 1.0051 10.481 6.5515 6.4823 11.774-4.249 5.5497-4.7865 4.3357-6.35 9.2604-0.86435 2.7226 1.4552 10.054 1.4552 10.054"/>
  <path d="m148.41 112.98c-4.8737 17.489-8.9123 25.668 0 30.692 1.7064 0.96177 4.7376-1.1055 5.0271-3.0427 0.33226-2.2238-1.6493-5.5081-4.4979-5.0271-5.9521 1.0051-10.481 6.5515-6.4823 11.774 4.249 5.5497 4.7865 4.3357 6.35 9.2604 0.86435 2.7226-1.4552 10.054-1.4552 10.054"/>
 </g>
 <path transform="matrix(-49.828 0 0 22.684 7806.2 -3424.3)" d="m141.57 173.16c-0.50056-6.6003 1.1084-7.9791 2.0777-9.1634-0.83796 0.47718-3.006 2.6972-2.0777 9.1634z" color="#000000" filter="url(#filter7744-7-4-2)" opacity=".143" style="-inkscape-stroke:none;mix-blend-mode:normal"/>
 <path transform="matrix(49.828 0 0 22.684 -6667.8 -3425.9)" d="m140.92 170.18c-0.29963 4.4424 0.80619 5.7762 1.5071 6.2879-0.84315-1.8253-0.86959-1.7095-1.018-3.2382-0.19136-0.29763-0.30015-0.61997-0.0659-1.0858-0.10314-4.1883 0.9495-7.2452 1.9671-8.9815-1.1616 0.98894-2.207 2.9358-2.3904 7.0176z" color="#000000" filter="url(#filter7744-7-4-9-3)" opacity=".143" style="-inkscape-stroke:none;mix-blend-mode:normal"/>
 <path transform="matrix(27.741 0 0 -8.917 -3296.8 1897.5)" d="m141.01 173.21c0.55069-2.8958 0.64244-2.796 1.0897-3.8329 0.50774-1.1773 1.4497-2.3497 1.6904-4.747-0.72214 3.5085-2.6454 4.0825-2.7801 8.5799z" color="#000000" filter="url(#filter7744-7-0-1)" opacity=".143" style="-inkscape-stroke:none;mix-blend-mode:normal"/>
 <path transform="matrix(4.1461 0 0 4.1461 133.91 58.187)" d="m120.68 50.565s-11.956 3.2089-13.127 12.869l-2.5358 0.90806c-1.9854-8.2621-17.107-4.148-23.17-11.953l2.909-1.4023 5.8193-1.8104 4.7201 0.38795 11.047-2.3237z" filter="url(#filter1317-9)" opacity=".143" stroke="#000" stroke-width=".26458px" style="mix-blend-mode:normal"/>
 <g stroke-width="4.1461">
  <path transform="translate(19.4 11.241)" d="m382.44 408.95-40.04-12.615 3.8394-13.712 38.394 21.117z"/>
  <path transform="translate(19.4 11.241)" d="m388.77 391.65-36.761-20.273 6.4712-12.684 33.469 28.282z"/>
  <path transform="translate(19.4 11.241)" d="m398.5 376.01-31.059-28.243 9.2358-10.838 26 35.271z"/>
  <path transform="translate(19.4 11.241)" d="m714.57 476.61 28.066-7.6653-2.2896-9.6061-27.156 13.601z"/>
  <path transform="translate(19.4 11.241)" d="m710.67 464.46 26.002-13.06-4.1398-8.9642-23.938 18.699z"/>
  <path transform="translate(19.4 11.241)" d="m704.33 453.36 22.268-18.737-6.1039-7.7594-18.954 23.743z"/>
  <path transform="translate(19.4 11.241)" d="m646.78 554.34c-0.44023-0.10656-2.6014-0.4853-4.8024-0.84157-9.2056-1.4899-19.15-5.8485-27.255-11.946-16.244-12.22-25.574-30.99-25.574-51.449 0-3.8712-0.18782-5.9845-0.50346-5.6664-0.27696 0.27903-2.0916 3.7288-4.0327 7.6665-5.9612 12.093-14.114 23.201-23.332 31.789-42.912 39.978-108.4 39.978-151.31 0-9.4319-8.7872-17.592-19.994-23.595-32.406-4.3472-8.9887-6.9679-16.622-8.7922-25.61-4.8016-23.656-1.8853-47.983 8.2955-69.194 6.1034-12.715 12.245-21.446 21.82-31.022 43.177-43.177 112.67-43.177 155.85 0 9.5758 9.5758 15.717 18.307 21.82 31.022 8.0969 16.868 11.75 36.373 10.259 54.774-0.35076 4.3289-0.78009 8.4112-0.95401 9.0716-0.62515 2.3735 0.85886 1.1485 2.9535-2.438 3.2246-5.5213 6.455-9.5712 11.489-14.404 12.114-11.629 27.342-17.71 44.355-17.71 35.614 0 64.289 28.765 64.277 64.472-0.0124 25.954-15.748 49.276-40.046 59.347-7.1176 2.9499-13.754 4.2912-22.386 4.5246-4.2555 0.11484-8.0977 0.12189-8.538 0.0166zm21.988-5.251c9.9145-2.6206 18.804-7.6437 26.353-14.891 12.812-12.3 18.895-26.438 18.895-43.915 0-11.037-1.7875-18.506-6.7108-28.038-8.5082-16.473-23.902-28.025-42.302-31.746-6.2419-1.2621-20.97-0.85161-26.78 0.74638-21.643 5.9521-37.877 22.239-43.87 44.015-1.0659 3.8716-1.1952 5.5562-1.1741 15.29 0.0207 10.354 0.10199 11.196 1.482 15.742 1.6688 5.496 5.2912 13.335 8.213 17.773 2.8598 4.3443 11.333 12.926 15.808 16.01 7.0454 4.8559 14.483 8.0774 22.497 9.7445 7.2241 1.5028 20.47 1.1524 27.591-0.72983zm-171.52 0.66255c19.74-2.1455 39.855-10.574 55.607-23.301 4.7236-3.8161 13.694-12.964 17.152-17.492 4.4732-5.8568 8.4568-12.409 11.906-19.583 7.6943-16.005 10.925-31.654 10.272-49.761-0.83066-23.056-8.5011-43.832-23.058-62.461-3.7663-4.819-13.323-14.278-18.14-17.954-32.572-24.861-75.819-29.346-111.87-11.604-11.239 5.5313-18.757 10.837-27.872 19.668-19.975 19.355-31.195 44.57-32.196 72.349-0.65242 18.108 2.5782 33.758 10.272 49.761 5.5201 11.483 10.918 19.239 19.703 28.314 8.9784 9.274 17.71 15.693 29.193 21.461 10.375 5.2112 23.915 9.3067 34.858 10.543 6.0918 0.68829 18.106 0.71747 24.168 0.0589z"/>
  <path transform="translate(19.4 11.241)" d="m500.15 1169.9c-2.249-0.5327-2.4644-0.7747-1.5253-1.7138 0.52544-0.5255 3.1756-0.9628 8.4298-1.3912 11.088-0.9041 22.98-2.6513 23.83-3.5013 0.61071-0.6108 0.53526-10.23-0.47929-61.093-1.0147-50.872-1.1019-61.988-0.55408-70.645 0.35739-5.6515 6.6441-101.46 13.97-212.91 7.3261-111.45 13.32-203.48 13.32-204.51 0-3.0122-1.5367-2.4225-4.9596 1.9034-2.0457 2.5855-5.6926 9.0434-11.526 20.411-4.6934 9.1458-9.2922 18.31-10.22 20.364-0.92744 2.0544-3.2232 6.977-5.1018 10.939-1.8785 3.9622-3.4147 7.3875-3.4138 7.6118 1e-3 0.2243-1.7171 4.1863-3.8178 8.8046-5.6868 12.502-12.005 27.348-14.586 34.278-1.2576 3.3752-3.7329 9.7387-5.5006 14.141-1.7678 4.4023-4.3484 11.366-5.7344 15.475-1.386 4.1088-3.1925 9.3055-4.0141 11.547-4.5682 12.466-13.052 44.251-15.14 56.718-3.0185 17.111-5.3314 34.702-4.9478 52.065 0.26701 7.9891 2.0311 21.577 3.048 23.478 0.31261 0.58427 1.3629 1.0236 2.8469 1.1908 1.4241 0.16045 3.3076 0.92288 4.7755 1.9329 5.6573 3.8924 5.7689 13.283 0.20275 17.085-4.7174 3.2222-7.5691 3.2595-12.262 0.16003-2.4894-1.6442-3.569-3.6238-3.9373-7.22-0.43107-4.2083 0.59235-7.1068 3.4286-9.711 2.1487-1.9729 2.3836-2.4069 2.038-3.7668-1.2207-4.8036-2.5139-15.44-2.782-22.882-0.22886-6.3497-0.0124-12.162 0.84551-22.679 0.29893-9.7348 2.5328-20.594 4.0278-29.375 3.6501-21.549 14.769-59.293 24.997-84.858 1.9457-4.8634 4.4052-11.334 5.465-14.38 1.0601-3.0456 2.488-6.6437 3.1731-7.9957 0.6851-1.352 2.7988-6.1673 4.6971-10.701 1.8983-4.5333 4.8223-11.244 6.4977-14.913 1.6754-3.6687 3.7412-8.4108 4.5905-10.538 0.84958-2.1269 2.6355-6.0392 3.9688-8.6939 1.3332-2.6547 2.9152-6.0773 3.5154-7.6056 1.0688-2.7218 16.023-32.123 21.29-41.859 1.4663-2.7102 2.6659-5.2916 2.6659-5.7365 4.5933-4.5476 11.851-2.0435 17.834-2.506 2.9678-0.20689 4.7942-0.17953 7.7222-0.47349l1.375 0.29728c-0.28774 0.28774 0.85102 3.0192 2.4172 5.8787 4.863 8.8784 19.655 37.855 20.754 40.66 0.59969 1.5284 2.1811 4.9508 3.5144 7.6056 1.3332 2.6547 3.1192 6.567 3.9688 8.6939 0.84953 2.1269 2.9154 6.8688 4.5906 10.538 1.6753 3.6687 4.5992 10.379 6.4977 14.913 1.8984 4.5333 4.0121 9.3486 4.6971 10.701 0.68514 1.352 2.113 4.95 3.1731 7.9957 1.0601 3.0456 3.5194 9.5165 5.465 14.38 10.228 25.564 21.347 63.311 24.997 84.858 0.46987 2.7741 0.94282 5.1868 1.051 5.3617 0.64948 1.051 1.979 11.776 2.9769 24.013 0.85754 10.517 1.0742 16.329 0.84547 22.679-0.26825 7.4414-1.5612 18.079-2.7819 22.882-0.34578 1.3599-0.1107 1.794 2.038 3.7668 2.8362 2.6041 3.8596 5.5027 3.4286 9.711-0.36817 3.5961-1.4479 5.5757-3.9373 7.22-4.6925 3.0993-7.5442 3.0621-12.262-0.16003-5.5661-3.8021-5.4546-13.192 0.20274-17.085 1.468-1.01 3.3515-1.7724 4.7755-1.9329 1.484-0.16708 2.5342-0.60653 2.8469-1.1908 1.0169-1.9002 2.781-15.489 3.048-23.478 0.3802-11.378-2.3257-43.961-3.8566-46.436-0.11195-0.1816-0.60313-2.7143-1.0912-5.6287-2.0879-12.469-10.572-44.251-15.14-56.718-0.82163-2.2422-2.628-7.4385-4.0141-11.547-1.3861-4.1088-3.9666-11.073-5.7344-15.475-1.7678-4.4023-4.2431-10.766-5.5006-14.141-2.5818-6.9294-8.8996-21.776-14.586-34.278-2.1007-4.6183-3.8195-8.5762-3.8195-8.7951 0-1.3259-23.187-48.343-27.631-56.03-1.9804-3.4248-3.1471-4.4222-3.6477-3.1176-0.15879 0.41378 7.5326 94 17.091 207.97 9.5592 113.97 17.53 211.42 17.713 216.56 0.18326 5.1362-0.19735 35.002-0.84514 66.366-0.99908 48.368-1.0666 57.141-0.44483 57.763 0.85903 0.859 12.687 2.6005 23.838 3.5096 5.3717 0.438 7.8995 0.8607 8.4522 1.4133 0.69551 0.6955 0.68738 0.845-0.0688 1.2683-1.6286 0.9114-8.3577 1.1045-14.859 0.4263-6.3986-0.6675-16.536-3.3463-18.675-4.9351-0.93486-0.6943-2.152-10.221-11.847-92.727-3.191-27.157-3.3511-28.815-3.7592-38.954-0.15962-3.9621-0.51527-10.686-0.79057-14.941-0.2753-4.2555-2.0746-32.951-3.9984-63.767-1.9238-30.817-3.6234-56.598-3.7768-57.291-0.2384-1.076-0.48778-1.2012-1.7218-0.86503-2.469 0.67257-22.767 0.91885-24.996 0.30307-1.5394-0.42501-2.1881-0.40175-2.6412 0.0945-0.40715 0.44603-1.3283 19.49-2.8583 59.09-3.3352 86.326-3.2361 84.667-6.9472 116.06-10.507 88.892-11.213 94.435-12.108 95.099-0.48003 0.3566-3.1308 1.4008-5.8904 2.3202-7.6222 2.5394-20.961 3.8838-26.206 2.6415zm-23.442-260.05c1.612-0.88962 2.1625-1.6191 2.7728-3.6741 2.092-7.0446-4.183-12.39-10.426-8.8817-2.238 1.2579-3.1633 3.1058-3.1633 6.3178 0 3.6067 0.90973 5.1623 3.8865 6.6458 2.9258 1.458 3.6239 1.4169 6.9298-0.40756zm183-3.7171c2.164-1.1939 3.0907-3.0698 3.0907-6.2564 0-3.2119-0.92528-5.0599-3.1633-6.3178-2.6112-1.4676-4.9463-1.462-7.5803 0.0166-1.6826 0.94568-2.2306 1.665-2.8454 3.7354-0.66238 2.2305-0.66006 2.9055 0.0166 5.1884 0.70085 2.36 1.058 2.763 3.5479 4.0038 2.9571 1.4736 3.6561 1.4361 6.9322-0.37149z" fill-opacity=".99763"/>
 </g>
 <path transform="translate(19.4 11.241)" d="m514.86 841.17 4.9678 322.61s4.7427 0.7314 7.0459 0.6857c2.3028-0.046 6.7714-0.9598 6.7714-0.9598l18.463-146.36 15.401-122.08 38.107 266.61s4.8173 1.0812 7.0201 1.0733c2.2029-0.01 6.1976-1.1206 6.1976-1.1206l-2.388-322.04s-11.624 1.5285-49.119 1.9941c-10.208 0.49703-52.469-0.40922-52.469-0.40922z" fill="#484545" stroke="#000" stroke-linejoin="round" stroke-width="2.3425"/>
 <path transform="translate(19.4 11.241)" d="m514.86 841.21 4.9678 322.61s4.7427 0.7313 7.0458 0.6857c2.3028-0.046 6.7714-0.9598 6.7714-0.9598l18.463-146.36 15.401-122.08 38.107 266.61s4.8173 1.0812 7.0202 1.0733c2.2029-0.01 6.1976-1.1206 6.1976-1.1206l-2.809-324.23s-11.202 1.6789-48.696 2.1446c-44.492 0.5525-52.887-0.55964-52.887-0.55964z" fill="url(#linearGradient36522)" stroke-width="4.1461"/>
 <g stroke="#000">
  <g transform="matrix(4.1461 0 0 4.1461 133.91 58.189)" fill="none">
   <path d="m101.94 192.56s-0.0259 3.4623-5.4002 2.868" stroke-width=".26458px"/>
   <path d="m108.15 191.64c0.01 9.218-0.11002 8.4107 0.98477 8.8178l-0.10335-8.6816" stroke-width=".26458px"/>
   <path d="m109.26 200.46-0.26367 0.01-0.0282 4.2563 0.56961-0.0576z" color="#000000" fill="#000" stroke="none" style="-inkscape-stroke:none"/>
   <g stroke-width=".26458px">
    <path d="m96.609 192.57 11.343 0.10336h0.12919"/>
    <path d="m109.11 192.6 11.834-0.41341"/>
    <path d="m115.2 192.42s0.0278 3.4623 5.8021 2.868"/>
   </g>
  </g>
  <path transform="matrix(1.097 0 0 1.097 133.68 59.552)" d="m364.58 723.35 0.36133 50.047-0.15039-6e-3c0.0502 0.0253 0.10029 0.0493 0.15039 0.0742l1.3358 43.327c0.19484 9.3744 1.0943 59.934 1.0943 59.934 0.51719 16.681 0.25067 27.23 0.25067 27.23 0.15301 24.418 0.21458 36.446 0.86648 61.172-0.41029 18.677 2.6537 32.621 1.451 51.557 1.8586 0.5463 3.6622 7.9564 3.5076 0.9974 6.8126-168.02-1.9946-223.55 7.8145-293.25z" filter="url(#filter25156-4-8)" opacity=".15309" stroke-width="1px" style="mix-blend-mode:normal"/>
  <path transform="matrix(4.1461 0 0 4.1461 133.91 58.187)" d="m113.68 236.52c0.65565 6.6768 4.3684 22.202 3.8502 26.95-0.79361-20.032-4.3691-41.346-6.4951-52.258l-1.9081-7.8352c-0.6748 2.8702-0.78323 5.7679-0.93614 8.6951l-1.7859-1.1245c1.9791 1.8591 0.96217 3.8498 1.5214 5.7878-0.39026-9.5182 1.3382-9.3298 1.3382-9.3298s2.9467 17.614 3.4676 22.674" filter="url(#filter25136-6-1)" opacity=".25407" stroke-width=".26458px" style="mix-blend-mode:normal"/>
 </g>
 <path transform="matrix(4.1461 0 0 4.1461 133.91 58.187)" d="m108.73 204.03-2.7605-0.58358 2.1245 1.9244-0.0387 7.8677 1.2038-8.6794 0.93432 6.186-0.3036-5.6586 2.5128-2.0727z" filter="url(#filter48371-1-1-7)" opacity=".15309" stroke-width=".26458px" style="mix-blend-mode:normal"/>
 <g>
  <path transform="matrix(-4.1461 0 0 4.1461 1113.3 59.552)" d="m115.57 238.51s2.4009-3.415 4.2664-3.8364c0.30281-0.0684 0.89296 0.26458 0.89296 0.26458l-5.0602 3.605" filter="url(#filter25144-8-1)" opacity=".15309" style="mix-blend-mode:normal"/>
  <path transform="matrix(-4.1461 0 0 4.1461 1113.3 59.552)" d="m116.91 225.25c-0.45454 1e-3 -1.3744 0.16966-1.3744 0.16966 2.4351 1.4758 3.4836 2.9516 5.1447 4.4275 0 0-1.7885-4.6017-3.7703-4.5971z" filter="url(#filter25140-0-6)" opacity=".15309" style="mix-blend-mode:normal"/>
  <path transform="matrix(4.1461 0 0 4.1461 133.91 58.187)" d="m106.23 235.75s-2.0789 0.48974-2.8999 1.1225c-0.44212 0.3408-0.98222 1.3564-0.98222 1.3564z" filter="url(#filter25168-9-0)" opacity=".15309" style="mix-blend-mode:normal"/>
  <path transform="matrix(4.1461 0 0 4.1461 133.91 58.187)" d="m104.45 239.26s-1.4902 0.10949-2.1983 0.3274c-0.92638 0.2851-2.6192 1.2628-2.6192 1.2628z" filter="url(#filter25164-6-4)" opacity=".15309" style="mix-blend-mode:normal"/>
 </g>
 <g transform="matrix(4.1461 0 0 4.1461 133.91 58.189)" stroke="#000">
  <g transform="translate(.2152 -.49518)" fill="none">
   <path d="m109.13 200.46 0.12916 4.1083" stroke-width=".265"/>
   <path d="m96.609 192.57 11.343 0.10336h0.12919" stroke-width=".26458px"/>
   <path d="m109.11 192.6 11.834-0.41341" stroke-width=".26458px"/>
  </g>
  <path d="m94.818 192.64 2.3939-29.201c1.6164-15.491 0.42468-2.4537-0.12932-0.68121-0.94395 3.0202-6.5868 40.184-6.5868 40.184-3.8093 3.409-7.9462 0.54053-7.9314 0.19547 0.30036-6.9843 5.9613-40.353 11.801-56.551 4.7545-13.188 11.058-10.959 11.058-10.959l6.2665 2e-3c12.578-2.7801 23.559 46.769 22.301 67.224-3.5862 0.59393-3.5547 0.20229-5.2262 0.57219-0.89346 0.19772-7.8076-39.852-7.8099-40.013-1.423-13.845-0.52232-3.1692-0.50412-1.1418l2.9628 31.443c-7.772 2.3295-24.57 3.1188-28.596-1.0727z" fill="#2c9ca0" fill-opacity=".99763" stroke-linejoin="round" stroke-width=".724"/>
  <path d="m94.818 192.64 2.3939-29.233c1.1592-17.777 0.05576 1.8562 0 0-0.0064-0.21276-6.7161 39.535-6.7161 39.535-3.8093 3.409-7.9462 0.54053-7.9314 0.19547 0.29777-6.9859 5.4309-40.8 12.12-56.488 4.7545-13.188 10.739-11.022 10.739-11.022l6.2665 2e-3c12.578-2.7801 23.559 46.769 22.301 67.224-3.5862 0.59393-3.5547 0.20229-5.2262 0.57219-0.89346 0.19772-7.8076-39.852-7.8099-40.013-1.423-13.845-0.52232-3.1692-0.50412-1.1418l2.9628 31.443c-7.772 2.3295-24.57 3.1188-28.596-1.0727z" fill="url(#linearGradient7079-5)" opacity=".28664" stroke="none" stroke-width=".724"/>
  <path d="m107.95 136.9s1.839 1.4406 2.8531 2.0112c3.7185 2.0924 10.528 4.3726 11.734 5.1148 1.6239 0.99958 2.6781-3.0345 2.9056-4.9278 0.16711-1.3907-0.36931-2.9066-1.2161-4.0224-0.63865-0.84158-2.675-1.6998-2.675-1.6998-9.8618 2.2476-19.354 2.2308-28.531 0.74835 0 0-4.0106 3.1398-3.686 5.2545 0.34586 2.2531 3.5474 4.6972 5.4256 4.1627 3.4755-0.98899 6.7305-2.9414 9.9625-4.6772 1.1095-0.59587 3.2273-1.9644 3.2273-1.9644z" fill="#2c9ca0" fill-opacity=".99763" stroke-width=".565"/>
 </g>
 <path transform="matrix(4.1461 0 0 4.1461 133.91 58.187)" d="m121.55 133.38s-5.6868 2.9935-10.749 5.5352c12.838 5.2685 16.656 7.4143-1.1773 0.87224-1.9044 0.79811-2.7016 1.303-4.1596 1.8098-3.346 1.163-10.422 2.0774-10.422 2.0774-2.2317-0.0294-4.7855-0.95292-5.5932-4.2604-0.98349-1.0588 0.31293-2.8553 3.5696-5.2859 1.3959 0.27987 7.6057 0.80592 11.423 0.98841 2.3881 0.11415 7.1721 0.0661 7.1721 0.0661 3.4572-0.34814 13.078-2.8305 9.9356-1.8029z" fill-opacity=".99763" filter="url(#filter83355-5)" opacity=".27846"/>
 <g transform="matrix(4.1461 0 0 4.1461 133.91 58.189)" stroke="#000">
  <g fill-opacity=".72065">
   <path d="m107.95 136.9-4.928-1.9316c4.5239 0.18121 8.142 0.10463 10.848-0.23151l-5.9199 2.1631" stroke-width=".26458px"/>
   <ellipse cx="104.07" cy="138.72" rx=".48783" ry=".42168" fill-rule="evenodd" stroke-linecap="round" stroke-linejoin="round" stroke-width=".165"/>
   <ellipse cx="111.44" cy="138.63" rx=".48783" ry=".42168" fill-rule="evenodd" stroke-linecap="round" stroke-linejoin="round" stroke-width=".165"/>
  </g>
  <g stroke-width=".26458px">
   <path d="m104.16 138.77-0.18709 12.114" fill="none"/>
   <path d="m111.43 138.61 0.0468 11.553" fill="none"/>
   <path d="m96.11 134.56-0.37522 0.0887c-1.3785 1.0146-4.1573 4.6053 12.215 2.2563l-4.0793-1.6444z" fill-opacity=".53441"/>
   <path d="m119.93 133.79c1.3785 1.0146 4.3911 5.4589-11.982 3.1099l5.6696-2.1004c2.1449 0.0534 2.882-0.63467 6.3121-1.0094z" fill-opacity=".53441"/>
   <g fill-opacity=".99763">
    <path d="m97.941 155.84c5.6508 14.032-13.638 40.452 25.473 37.865-13.242 2.5658-23.569 2.8345-28.596-1.0727z" filter="url(#filter5543-6)" opacity=".16"/>
    <path d="m120.3 156.5s3.3796 9.5251 4.0224 14.499c1.8323 14.18 6.0845 32.445 6.0845 32.445l-1.875-0.17228c-3.1498-15.591-6.2092-31.181-8.2319-46.772z" filter="url(#filter6257-4)" opacity=".16"/>
    <path transform="matrix(-1,0,0,1,185.48,1.4479)" d="m87.536 154.4s3.3796 9.5251 4.0224 14.499c1.8323 14.18 5.3361 33.568 5.3361 33.568l-1.9134-0.97339c-3.1498-15.591-5.4225-31.503-7.4451-47.094z" filter="url(#filter6257-8-7)" opacity=".16"/>
    <path transform="matrix(-1,0,0,1.1552,179.47,-30.16)" d="m82.578 149.62c0.965-0.4498 5.0211 8.8061 5.8876 13.938 4.4285 14.18 8.7258 38.907 8.4287 38.907l-2.8812 0.0534c0.77903-13.566-4.4547-34.878-11.435-52.898z" filter="url(#filter6257-8-1-6)" opacity=".16" stroke-linejoin="round" stroke-width=".26423"/>
   </g>
   <path d="m82.848 199.4c2.712 1.4525 5.424 1.3129 8.1359 0.0331" fill="none"/>
   <path d="m127.86 199.66c0.86409-0.46657 3.9436-0.41187 6.1516-0.56224" fill="none"/>
  </g>
 </g>
 <g id="Expression" transform="matrix(4.1461 0 0 4.1461 125.19 66.716)">
  <g fill="none" stroke="#000" stroke-linecap="round" stroke-linejoin="round">
   <path d="m113.97 123.38a3.0941 4.3202 0 0 1-2.4264 1.7962 3.0941 4.3202 0 0 1-2.4938-1.6063" stroke-width=".63971" style="paint-order:normal"/>
   <path d="m118.91 123.19a3.1048 4.2978 0 0 1-2.4348 1.7869 3.1048 4.2978 0 0 1-2.5024-1.5979" stroke-width=".6" style="paint-order:normal"/>
  </g>
 </g>
 <g transform="matrix(4.1461 0 0 4.1461 133.91 58.186)" fill="none" stroke="#000">
  <path transform="rotate(2.2245,105.15,97.74)" d="m111.78 108.47c-5.3027 9.546-15.507 15.338-26.429 14.586-11.183-0.77029-20.733-8.2374-24.586-18.816" filter="url(#filter12880)" opacity=".33876" stroke-linecap="round" stroke-linejoin="round" stroke-width="2.4232"/>
  <path transform="rotate(2.2245,105.15,97.74)" d="m109.74 113.51c2.1626-0.69626 3.6237-0.78448 5.3654 0.2966l-1.4959-7.9431z" fill="#000" fill-opacity=".62423" filter="url(#filter12872)" opacity=".33876" stroke-width=".26458px"/>
  <path transform="rotate(2.2245,105.15,97.74)" d="m148.15 107.61c-1.2668 8.9022-9.0024 14.267-18.095 13.59-9.0925-0.67694-16.088-8.1994-15.985-17.188" filter="url(#filter12876)" opacity=".33876" stroke-linecap="round" stroke-linejoin="round" stroke-width="2.2873"/>
 </g>
 <path transform="translate(19.4 11.241)" d="m730.74 495.8a71.677 70.662 2.2245 0 1-78.676 57.634 71.677 70.662 2.2245 0 1-63.459-73.782" color="#000000" fill="url(#linearGradient854)" fill-rule="evenodd" stroke-linecap="round" stroke-linejoin="round" stroke-width="9.4833" style="-inkscape-stroke:none"/>
 <path transform="translate(19.4 11.241)" d="m587.29 480.02a117.24 120.74 2.2245 0 1-117.35 74.218 117.24 120.74 2.2245 0 1-104.8-91.536" color="#000000" fill="url(#linearGradient852)" fill-rule="evenodd" stroke-linecap="round" stroke-linejoin="round" stroke-width="10.047" style="-inkscape-stroke:none"/>
 <g fill="#d94040" stroke-width="4.1461">
  <path transform="translate(19.4 11.241)" d="m571.32 510.73c9.0716-2.5365 15.139-2.6669 22.181 2.0923l-4.9189-33.149z"/>
  <path transform="translate(19.4 11.241)" d="m588.84 474.92a4.7417 4.7417 0 0 0-4.9721 4.5024c-2.0005 39.71 27.691 74.186 67.657 78.727 39.967 4.5405 76.75-22.369 83.877-61.495a4.7417 4.7417 0 0 0-3.8141-5.5146 4.7417 4.7417 0 0 0-5.5146 3.8141c-6.2347 34.229-38.323 57.772-73.48 53.778-35.156-3.9945-61.01-34.096-59.26-68.831a4.7417 4.7417 0 0 0-4.4943-4.9802z" color="#000000" fill-rule="evenodd" stroke-linecap="round" stroke-linejoin="round" style="-inkscape-stroke:none"/>
  <path transform="translate(19.4 11.241)" d="m363.98 457.81a5.0234 5.0234 0 0 0-3.7331 6.0491c12.482 52.715 56.562 91.274 109.3 95.384 52.734 4.1117 102.12-27.173 122.4-77.342a5.0234 5.0234 0 0 0-2.7695-6.5349 5.0234 5.0234 0 0 0-6.5431 2.7695c-18.699 46.268-63.984 74.858-112.3 71.091-48.317-3.7656-88.792-39.052-100.31-87.683a5.0234 5.0234 0 0 0-6.041-3.7331z" color="#000000" fill-rule="evenodd" stroke-linecap="round" stroke-linejoin="round" style="-inkscape-stroke:none"/>
 </g>
</svg>
