<?xml version="1.0" encoding="UTF-8" standalone="no"?>
<!-- Created with Inkscape (http://www.inkscape.org/) -->

<svg
   width="110.5035mm"
   height="114.26692mm"
   viewBox="0 0 110.5035 114.26692"
   version="1.1"
   id="svg2735"
   inkscape:version="1.1.1 (3bf5ae0d25, 2021-09-20)"
   sodipodi:docname="Icon Tick Asset.svg"
   xmlns:inkscape="http://www.inkscape.org/namespaces/inkscape"
   xmlns:sodipodi="http://sodipodi.sourceforge.net/DTD/sodipodi-0.dtd"
   xmlns="http://www.w3.org/2000/svg"
   xmlns:svg="http://www.w3.org/2000/svg">
  <sodipodi:namedview
     id="namedview2737"
     pagecolor="#ffffff"
     bordercolor="#666666"
     borderopacity="1.0"
     inkscape:pageshadow="2"
     inkscape:pageopacity="0.0"
     inkscape:pagecheckerboard="0"
     inkscape:document-units="mm"
     showgrid="false"
     fit-margin-top="0"
     fit-margin-left="0"
     fit-margin-right="0"
     fit-margin-bottom="0"
     inkscape:zoom="0.76435185"
     inkscape:cx="327.72865"
     inkscape:cy="445.47547"
     inkscape:window-width="1920"
     inkscape:window-height="1017"
     inkscape:window-x="1912"
     inkscape:window-y="-8"
     inkscape:window-maximized="1"
     inkscape:current-layer="layer1" />
  <defs
     id="defs2732">
    <clipPath
       id="id3">
      <path
         d="M 248.30078,261 H 555 V 567 H 248.30078 Z m 0,0"
         clip-rule="nonzero"
         id="path8" />
    </clipPath>
    <clipPath
       id="id4">
      <path
         d="M 310,243 H 561.80078 V 503 H 310 Z m 0,0"
         clip-rule="nonzero"
         id="path11" />
    </clipPath>
  </defs>
  <g
     inkscape:label="Layer 1"
     inkscape:groupmode="layer"
     id="layer1"
     transform="translate(-18.479018,-30.789615)">
    <g
       clip-path="url(#id3)"
       id="g34"
       style="fill:#22577a;fill-opacity:1"
       transform="matrix(0.35277777,0,0,0.35277777,-69.16283,-54.935383)">
      <path
         fill="#000000"
         d="m 401.42187,261.03125 c -84.32812,0 -152.98828,68.63672 -152.98828,152.9375 0,84.30078 68.66016,152.9375 152.98828,152.9375 84.32813,0 152.98829,-68.63672 152.98829,-152.9375 0,-36.44531 -12.33594,-69.03516 -33.28516,-95.73438 l -14.40625,17.06641 c 18.26562,22.48047 25.41406,47.4375 25.41406,78.66797 0,72.24609 -58.44531,130.63281 -130.71094,130.63281 -72.26953,0 -130.71093,-58.38672 -130.71093,-130.63281 0,-72.24219 58.4414,-130.66406 130.71093,-130.66406 22.89844,0 40.02735,3.28906 58.72657,13.61328 l 13.68359,-17.96485 C 451.9375,266.86328 428.14062,261.03125 401.42187,261.03125 Z m 0,0"
         fill-opacity="1"
         fill-rule="evenodd"
         id="path32"
         style="fill:#22577a;fill-opacity:1" />
    </g>
    <g
       clip-path="url(#id4)"
       id="g38"
       style="fill:#22577a;fill-opacity:1"
       transform="matrix(0.35277777,0,0,0.35277777,-69.16283,-54.935383)">
      <path
         fill="#000000"
         d="m 344.80078,393.85547 c 6.16797,0 10.83594,5.0625 14,15.17969 6.32422,18.97656 10.83203,28.46484 13.52344,28.46484 2.05469,0 4.1914,-1.58203 6.40625,-4.74219 C 423.17969,361.59766 464.30859,304.03516 502.11328,260.07812 511.92187,248.69141 527.50391,243 548.85937,243 c 5.0625,0 8.46094,0.47266 10.20313,1.42187 1.73828,0.94922 2.60937,2.13672 2.60937,3.5586 0,2.21484 -2.60937,6.5625 -7.82812,13.04687 -61.0625,73.3711 -117.69141,150.85547 -169.89453,232.45313 -3.63672,5.6914 -11.07031,8.53906 -22.30469,8.53906 -11.38672,0 -18.10937,-0.47266 -20.16797,-1.42187 -5.3789,-2.375 -11.70312,-14.46875 -18.98047,-36.29297 -8.22656,-24.19532 -12.33984,-39.375 -12.33984,-45.54297 0,-6.64063 5.53516,-13.04688 16.60937,-19.21485 6.80079,-3.79296 12.8125,-5.6914 18.03516,-5.6914"
         fill-opacity="1"
         fill-rule="nonzero"
         id="path36"
         style="fill:#22577a;fill-opacity:1" />
    </g>
  </g>
</svg>
