<?xml version="1.0" encoding="UTF-8"?>
<svg width="1200mm" height="1200mm" version="1.1" viewBox="0 0 1200 1200" xmlns="http://www.w3.org/2000/svg" xmlns:xlink="http://www.w3.org/1999/xlink">
 <defs>
  <linearGradient id="linearGradient19129">
   <stop stop-color="#fff" stop-opacity=".72874" offset="0"/>
   <stop stop-color="#fff" stop-opacity="0" offset="1"/>
  </linearGradient>
  <linearGradient id="linearGradient8236-5" x1="123.66" x2="114.77" y1="91.869" y2="114.29" gradientTransform="matrix(8.6147 0 0 8.6147 1095.6 -314.12)" gradientUnits="userSpaceOnUse">
   <stop offset="0"/>
   <stop stop-opacity="0" offset="1"/>
  </linearGradient>
  <filter id="filter22322-3-1-8" x="-.015979" y="-.033658" width="1.0287" height="1.0605" color-interpolation-filters="sRGB">
   <feGaussianBlur stdDeviation="0.23358464"/>
  </filter>
  <filter id="filter7744-7-4-9-03-4" x="-.0066224" y="-.0010425" width="1.0132" height="1.0021" color-interpolation-filters="sRGB">
   <feGaussianBlur stdDeviation="0.0057284191"/>
  </filter>
  <linearGradient id="linearGradient90903-3" x1="96.445" x2="123.34" y1="230.35" y2="230.35" gradientTransform="matrix(8.6147 0 0 8.6147 1093.4 -316.57)" gradientUnits="userSpaceOnUse">
   <stop offset="0"/>
   <stop stop-opacity="0" offset=".53219"/>
   <stop stop-opacity=".40486" offset="1"/>
  </linearGradient>
  <filter id="filter48371-3-3-0-7" x="-.3762" y="-.11261" width="1.7524" height="1.2252" color-interpolation-filters="sRGB">
   <feGaussianBlur stdDeviation="1.2069309"/>
  </filter>
  <filter id="filter25156-9-5" x="-.023558" y="-.0031682" width="1.0379" height="1.0063" color-interpolation-filters="sRGB">
   <feGaussianBlur stdDeviation="0.047869003"/>
  </filter>
  <filter id="filter25176-3-4" x="-.043135" y="-.018346" width="1.0837" height="1.0383" color-interpolation-filters="sRGB">
   <feGaussianBlur stdDeviation="0.047869003"/>
  </filter>
  <filter id="filter25136-0-1" x="-.040396" y="-.0068998" width="1.0842" height="1.0155" color-interpolation-filters="sRGB">
   <feGaussianBlur stdDeviation="0.1605801"/>
  </filter>
  <filter id="filter25152-1-1" x="-.017224" y="-.056427" width="1.0374" height="1.1187" color-interpolation-filters="sRGB">
   <feGaussianBlur stdDeviation="0.047869003"/>
  </filter>
  <filter id="filter25148-8-4" x="-.041852" y="-.028948" width="1.0837" height="1.0579" color-interpolation-filters="sRGB">
   <feGaussianBlur stdDeviation="0.047869003"/>
  </filter>
  <filter id="filter25144-5-6" x="-.022267" y="-.029619" width="1.0445" height="1.0592" color-interpolation-filters="sRGB">
   <feGaussianBlur stdDeviation="0.047869003"/>
  </filter>
  <filter id="filter25140-7-8" x="-.022331" y="-.024991" width="1.0447" height="1.05" color-interpolation-filters="sRGB">
   <feGaussianBlur stdDeviation="0.047869003"/>
  </filter>
  <filter id="filter25168-4-0" x="-.029594" y="-.046345" width="1.0592" height="1.0927" color-interpolation-filters="sRGB">
   <feGaussianBlur stdDeviation="0.047869003"/>
  </filter>
  <filter id="filter25164-5-5" x="-.023847" y="-.072244" width="1.0477" height="1.1445" color-interpolation-filters="sRGB">
   <feGaussianBlur stdDeviation="0.047869003"/>
  </filter>
  <filter id="filter25160-9-5" x="-.029955" y="-.031092" width="1.0599" height="1.0622" color-interpolation-filters="sRGB">
   <feGaussianBlur stdDeviation="0.047869003"/>
  </filter>
  <filter id="filter5908-5" x="-.030077" y="-.027516" width="1.0602" height="1.055" color-interpolation-filters="sRGB">
   <feGaussianBlur stdDeviation="0.073773287"/>
  </filter>
  <filter id="filter8266-6-0" x="-.031164" y="-.07979" width="1.0562" height="1.1619" color-interpolation-filters="sRGB">
   <feGaussianBlur stdDeviation="0.073773287"/>
  </filter>
  <filter id="filter8667-5" x="-.023122" y="-.0078975" width="1.0462" height="1.0158" color-interpolation-filters="sRGB">
   <feGaussianBlur stdDeviation="0.073773287"/>
  </filter>
  <filter id="filter62099-05-9" x="-.37056" y="-.78989" width="1.7411" height="2.5798" color-interpolation-filters="sRGB">
   <feGaussianBlur stdDeviation="0.41362866"/>
  </filter>
  <filter id="filter62779-69-9" x="-.43024" y="-5.2411" width="1.8605" height="11.482" color-interpolation-filters="sRGB">
   <feGaussianBlur stdDeviation="0.22568059"/>
  </filter>
  <filter id="filter62779-1-1-1" x="-.43024" y="-5.2411" width="1.8605" height="11.482" color-interpolation-filters="sRGB">
   <feGaussianBlur stdDeviation="0.22568059"/>
  </filter>
  <filter id="filter62099-6-6" x="-.37056" y="-.78989" width="1.7411" height="2.5798" color-interpolation-filters="sRGB">
   <feGaussianBlur stdDeviation="0.41362866"/>
  </filter>
  <filter id="filter62779-30-2" x="-.43024" y="-5.2411" width="1.8605" height="11.482" color-interpolation-filters="sRGB">
   <feGaussianBlur stdDeviation="0.22568059"/>
  </filter>
  <filter id="filter62779-1-12-3" x="-.43024" y="-5.2411" width="1.8605" height="11.482" color-interpolation-filters="sRGB">
   <feGaussianBlur stdDeviation="0.22568059"/>
  </filter>
  <filter id="filter62099-9-4" x="-.37056" y="-.78989" width="1.7411" height="2.5798" color-interpolation-filters="sRGB">
   <feGaussianBlur stdDeviation="0.41362866"/>
  </filter>
  <filter id="filter62779-17-1" x="-.43024" y="-5.2411" width="1.8605" height="11.482" color-interpolation-filters="sRGB">
   <feGaussianBlur stdDeviation="0.22568059"/>
  </filter>
  <filter id="filter62779-1-17-1" x="-.43024" y="-5.2411" width="1.8605" height="11.482" color-interpolation-filters="sRGB">
   <feGaussianBlur stdDeviation="0.22568059"/>
  </filter>
  <filter id="filter62099-1-0" x="-.37056" y="-.78989" width="1.7411" height="2.5798" color-interpolation-filters="sRGB">
   <feGaussianBlur stdDeviation="0.41362866"/>
  </filter>
  <filter id="filter62779-4-1" x="-.43024" y="-5.2411" width="1.8605" height="11.482" color-interpolation-filters="sRGB">
   <feGaussianBlur stdDeviation="0.22568059"/>
  </filter>
  <filter id="filter62779-1-9-5" x="-.43024" y="-5.2411" width="1.8605" height="11.482" color-interpolation-filters="sRGB">
   <feGaussianBlur stdDeviation="0.22568059"/>
  </filter>
  <filter id="filter62099-0-9" x="-.37056" y="-.78989" width="1.7411" height="2.5798" color-interpolation-filters="sRGB">
   <feGaussianBlur stdDeviation="0.41362866"/>
  </filter>
  <filter id="filter62779-6-5" x="-.43024" y="-5.2411" width="1.8605" height="11.482" color-interpolation-filters="sRGB">
   <feGaussianBlur stdDeviation="0.22568059"/>
  </filter>
  <filter id="filter62779-1-5-4" x="-.43024" y="-5.2411" width="1.8605" height="11.482" color-interpolation-filters="sRGB">
   <feGaussianBlur stdDeviation="0.22568059"/>
  </filter>
  <filter id="filter62099-7-5" x="-.37056" y="-.78989" width="1.7411" height="2.5798" color-interpolation-filters="sRGB">
   <feGaussianBlur stdDeviation="0.41362866"/>
  </filter>
  <filter id="filter62779-3-6" x="-.43024" y="-5.2411" width="1.8605" height="11.482" color-interpolation-filters="sRGB">
   <feGaussianBlur stdDeviation="0.22568059"/>
  </filter>
  <filter id="filter62779-1-7-8" x="-.43024" y="-5.2411" width="1.8605" height="11.482" color-interpolation-filters="sRGB">
   <feGaussianBlur stdDeviation="0.22568059"/>
  </filter>
  <filter id="filter24317-7" x="-.0044195" y="-.0018574" width="1.0088" height="1.0037" color-interpolation-filters="sRGB">
   <feGaussianBlur stdDeviation="0.18212505"/>
  </filter>
  <linearGradient id="linearGradient12396" x1="-9.5396" x2="4.5847" y1="-122.65" y2="-137.45" gradientUnits="userSpaceOnUse" xlink:href="#linearGradient19129"/>
  <linearGradient id="linearGradient12398" x1="-8.2966" x2="2.9334" y1="-123.86" y2="-135.57" gradientUnits="userSpaceOnUse">
   <stop stop-color="#fff" stop-opacity=".72874" offset="0"/>
   <stop stop-color="#fff" stop-opacity="0" offset="1"/>
  </linearGradient>
  <linearGradient id="linearGradient12400" x1="-51.461" x2="-44.815" y1="-156.35" y2="-165.9" gradientUnits="userSpaceOnUse" xlink:href="#linearGradient19129"/>
  <linearGradient id="linearGradient12402" x1="-37.451" x2="-29.989" y1="-160.29" y2="-169.21" gradientUnits="userSpaceOnUse" xlink:href="#linearGradient19129"/>
 </defs>
 <g>
  <g transform="matrix(.47755 0 0 .47755 -386.78 211.59)">
   <path d="m1832.8 194.34c4.1308-14.73-8.9835-3.9937 0 0z" fill="#5b77c9" stroke-width=".072594"/>
   <path d="m1998.3 127.33c-19.697 0-39.392 0.71587-50.447 2.1457-50.169 6.4893-93.352 19.445-137.48 41.246-48.405 23.912-89.951 56.061-124.63 96.433-46.823 54.518-75.286 118.43-85.664 192.35-2.3047 16.42-1.9475 71.245 0.5743 88.144l1.9853 13.306-2.3772 1.6605c-11.07 7.7513-14.925 14.366-14.201 24.368 0.9587 13.254 10.328 22.526 24.484 24.231 4.084 0.49173 7.6705 1.1398 7.9685 1.4379 0.2979 0.29781 1.2989 5.9427 2.2259 12.545 5.3366 38.018 18.492 66.878 44.856 98.396 39.862 47.655 108.66 87.38 188.57 108.88 40.404 10.873 101.13 19.508 137.24 19.516 8.9205 0 13.912-2.9319 14.393-1.677 26.36-0.3381 32.958-2.9516 52.329-3.3607 0-1.582 3.0038 1.5408 22.218-1.0612 79.191-10.724 147.34-38.39 202.98-77.358 14.712-10.303 21.548-15.633 35.187-28.78 23.668-22.811 38.408-43.782 49.255-70.103l5.9887-11.132 7.2513-1.5605c12.887-2.7734 17.295-6.3598 19.432-17.586 1.8171-9.5451-3.336-21.635-13.158-24.577-2.5045-0.75035-4.7137-0.73022-5.2693-1.4004-0.6303-0.75954 1.2925-8.0255 3.3135-15.225 4.1485-14.777 8.1164-33.653 10.622-50.522 2.5123-16.914 2.8642-71.765 0.5654-88.144-10.377-73.921-38.841-137.83-85.664-192.35-11.187-13.026-33.573-35.267-45.278-44.988-60.833-50.52-134.59-82.051-216.83-92.689-11.054-1.4298-30.754-2.1457-50.452-2.1457zm-166.89 1313.5c0.62 2.4373 0 3.4622-4.3049 6.9804-6.0233 4.9355-5.9434 10.152-5.1318 20.375 0.6581 8.2861 0.6167 9.8688 7.4191 14.183 6.8027 4.3141 10.644 1.6313 16.467-0.5928 12.034-4.5957 14.582-7.1316 11.935-18.962-0.7032-3.1418-1.0907-4.9827-2.0647-6.3737-2.9855-4.2624-8.3878-10.72-13.089-10.72-6.1361-0.1829-7.1227 0.2942-11.231-4.8895zm465.36-360.63c-4.7018 0-9.3968 2.8755-12.382 7.1377-0.9743 1.391-2.9731 5.3073-3.676 8.4491-2.6477 11.831 1.7173 18.181 13.751 22.777 5.8232 2.2239 7.8106 1.1778 14.613-3.1365 6.8024-4.3142 7.4031-4.5027 8.0614-12.789 0.8119-10.223 0.2739-12.45-5.7493-17.386-6.3794-2.7671-9.5928-1.8616-14.618-5.0523z" fill="#f7e2ab" stroke-width="2.2793" style="mix-blend-mode:normal"/>
   <g transform="matrix(8.6147 0 0 8.6147 1095.2 -314.73)" fill-opacity=".99763">
    <path d="m93.014 270.84c-0.54243-0.12847-0.59439-0.18685-0.36789-0.41335 0.12673-0.12674 0.76593-0.23222 2.0332-0.33555 2.6743-0.21805 5.5425-0.63947 5.7475-0.84448 0.1473-0.14731 0.1291-2.4673-0.1156-14.735-0.24474-12.27-0.26577-14.951-0.13364-17.039 0.0862-1.3631 1.6025-24.471 3.3695-51.351s3.2127-49.077 3.2127-49.326c0-0.72652-0.37063-0.58428-1.1962 0.45908-0.49341 0.62361-1.373 2.1812-2.78 4.923-1.132 2.2059-2.2412 4.4162-2.4649 4.9117-0.22369 0.49551-0.77741 1.6828-1.2305 2.6384-0.45308 0.95564-0.82359 1.7818-0.82337 1.8359 2.6e-4 0.0541-0.41414 1.0097-0.92082 2.1236-1.3716 3.0153-2.8954 6.5962-3.5181 8.2675-0.30332 0.81406-0.90034 2.3489-1.3267 3.4107-0.42638 1.0618-1.0488 2.7414-1.3831 3.7324s-0.77 2.2444-0.96817 2.7851c-1.1018 3.0067-3.1481 10.673-3.6517 13.68-0.1177 0.70291-0.23613 1.3138-0.26317 1.3576-0.36925 0.59745-1.0219 8.4559-0.9302 11.2 0.0644 1.9269 0.48989 5.2043 0.73516 5.6626 0.0754 0.14092 0.32871 0.24687 0.68665 0.2872 0.34347 0.0387 0.79776 0.22259 1.1518 0.4662 1.3645 0.93881 1.3914 3.2037 0.0489 4.1208-1.1378 0.77718-1.8256 0.78616-2.9574 0.0386-0.60042-0.39657-0.86081-0.87404-0.94965-1.7414-0.10397-1.015 0.14287-1.7141 0.82694-2.3422 0.51825-0.47584 0.57489-0.58053 0.49154-0.90852-0.29442-1.1586-0.60633-3.7241-0.67099-5.5189-0.0552-1.5315-3e-3 -2.9333 0.20393-5.47 0.24067-2.9515 0.56135-5.5383 0.718-5.7917 0.0261-0.0422 0.14015-0.62416 0.25348-1.2932 0.88038-5.1974 3.5621-14.301 6.029-20.467 0.46929-1.173 1.0625-2.7337 1.3181-3.4683 0.25569-0.73457 0.60008-1.6024 0.76533-1.9285 0.16524-0.32609 0.67505-1.4875 1.1329-2.5809 0.45786-1.0934 1.1631-2.712 1.5672-3.5968 0.40408-0.88485 0.90234-2.0286 1.1072-2.5416 0.20491-0.513 0.63566-1.4566 0.95723-2.0969s0.70311-1.4658 0.84788-1.8344c0.25778-0.65647 3.8645-7.7478 5.1349-10.096 0.35365-0.65367 0.5877-1.1758 0.643-1.3836 0 0 0.15588-0.2483-0.27259-0.23395l4.528-0.59113 3.8132 0.0306c-0.76502 0.0966-1.4433 0.22809-1.5073 0.2921-0.0694 0.0694 0.13953 0.58361 0.51729 1.2733 5.4097 10.159 10.076 24.816 14.582 31.454s2.5116 5.4306 10.71-1.3291c0.11457-0.31845 0.16236-0.40196-0.17852-1.0174-0.44996-0.81239-0.46268-1.5537-0.0426-2.4836 0.35891-0.79458 1.0752-1.1546 1.4522-1.351 0.28403-0.0986 0.57048-0.12217 0.8852-0.1519 0.32614-0.0308 0.47946 0.0168 0.67484 0.049 0.28894 0.0659 0.4644 0.19998 0.7487 0.5201 0.14808 0.14139 0.31776 0.33664 0.48427 0.55598 0.98302 1.295 0.24022 3.4348-1.3514 3.8932-0.41299 0.11895-0.90213 0.14949-1.2402 0.0774-0.35228-0.0751-0.67462-0.0898-0.74226 0.055-8.1756 7.1847-7.0673 9.1994-11.917 1.5943s-9.7716-22.001-14.423-31.123c-0.47766-0.82604-0.75906-1.0666-0.87979-0.75193-0.0383 0.0998 1.8168 22.672 4.1223 50.161 2.3056 27.489 4.2281 50.993 4.2722 52.232 0.0442 1.2388-0.0476 8.4421-0.20384 16.007-0.24097 11.666-0.25726 13.782-0.10729 13.932 0.20719 0.20719 3.0601 0.62722 5.7495 0.84649 1.2956 0.10563 1.9053 0.20758 2.0386 0.34087 0.16775 0.16775 0.16579 0.20381-0.0166 0.3059-0.39281 0.21983-2.0158 0.2664-3.5839 0.10282-1.5433-0.16098-3.9884-0.80709-4.5043-1.1903-0.22548-0.16747-0.51904-2.4652-2.8574-22.365-0.76965-6.55-0.80826-6.95-0.9067-9.3955-0.0385-0.95563-0.12428-2.5773-0.19068-3.6037s-0.50038-7.9476-0.96439-15.38c-0.46401-7.4327-0.87393-13.651-0.91093-13.818-0.0575-0.25953-0.11765-0.28973-0.41528-0.20864-0.59549 0.16222-5.4911 0.22162-6.0288 0.0731-0.3713-0.10251-0.52774-0.0969-0.63704 0.0228-0.0982 0.10758-0.32037 4.7008-0.68939 14.252-0.80443 20.821-0.78052 20.421-1.6756 27.993-2.5342 21.44-2.7044 22.777-2.9203 22.937-0.11578 0.086-0.75511 0.33787-1.4207 0.55962-1.8384 0.61246-5.0555 0.93672-6.3207 0.63709zm-5.654-62.721c0.38879-0.21457 0.52158-0.39052 0.66877-0.88617 0.50456-1.6991-1.0089-2.9884-2.5146-2.1422-0.53979 0.30339-0.76296 0.7491-0.76296 1.5238 0 0.8699 0.21942 1.2451 0.93739 1.6029 0.70567 0.35166 0.87406 0.34175 1.6714-0.0983zm51.906-45.729c-0.58627 0.10785-0.94154 0.46622-1.185 1.1953-0.24533 0.73482-0.1748 1.2283 0.24113 1.687 0.48529 0.5352 1.02 0.71228 1.7354 0.57519 0.45718-0.0878 0.63749-0.21055 0.93628-0.63723 0.32191-0.4597 0.37293-0.6143 0.3925-1.1882 0.0199-0.59345-0.031-0.71293-0.50586-1.187-0.56396-0.56299-0.72676-0.60781-1.6144-0.44453z"/>
   </g>
   <g transform="matrix(8.6147 0 0 8.6147 1095.2 -314.73)">
    <path d="m104.32 135.44c-2.7616 0-7.6008-0.50136-11.336-1.1745-13.605-2.4516-24.641-8.9681-29.528-17.437-1.329-2.3028-2.0879-4.5222-2.5248-7.3836-0.14563-0.95359-0.33435-1.778-0.41938-1.8321-0.085-0.0541-0.36452-0.0992-0.62107-0.10025-1.1305-5e-3 -2.239-0.69567-2.7449-1.7109-0.75445-1.514-0.20525-3.0303 1.4381-3.9705 0.60604-0.34674 0.86326-0.41745 1.5093-0.4149 0.85858 3e-3 1.9454 0.39621 2.3462 0.84804 0.23 0.25926 0.22836 0.26292-0.0873 0.19439-0.17697-0.0384-0.66927-0.19776-1.094-0.3541-1.7337-0.6382-3.5822 0.18601-3.9961 1.7818-0.48396 1.8657 1.0858 3.4576 3.2883 3.3347l0.57917-0.0323 0.0843 1.3594c0.49494 7.9809 6.8355 15.61 17.162 20.649 5.6601 2.7623 12.37 4.6166 19.563 5.4066 2.5766 0.28299 8.9404 0.39558 11.656 0.20623 13.264-0.92475 24.949-5.4822 32.324-12.607 2.7776-2.6835 4.5416-5.2986 5.7737-8.5594l0.43011-1.1383 0.48888 0.0782c0.70274 0.11238 1.5531-0.143 2.1352-0.64121 0.64962-0.55605 0.844-1.0383 0.77141-1.9137-0.14185-1.7104-1.9766-2.6074-3.835-1.8749-0.78576 0.30971-0.99259 0.32987-0.78207 0.0762 0.20975-0.25274 1.011-0.61853 1.5885-0.72513 0.35335-0.0652 0.69716-0.0125 1.2692 0.19462 1.4365 0.52013 2.043 1.2638 2.043 2.505 0 0.85527-0.23263 1.3916-0.83171 1.9176-0.57778 0.5073-0.92986 0.65303-1.8605 0.77006l-0.7004 0.0881-0.48383 1.1941c-0.61838 1.5261-1.818 3.6345-2.9089 5.1125-1.218 1.6503-4.1659 4.5424-6.1064 5.9908-6.7488 5.0376-15.421 8.2896-25.502 9.5631-0.76502 0.0966-1.4082 0.2164-2.092 0.31549" fill-opacity=".99763"/>
   </g>
   <ellipse cx="1866.9" cy="510" rx="224.85" ry="226.31" fill="#fff" stroke-width="8.5777"/>
   <g stroke-width="8.6146">
    <ellipse cx="2214.8" cy="605.4" rx="129.59" ry="130.24" fill="#fff"/>
    <path d="m2207 701.71c-1.5246-0.2705-5.7656-1.0226-9.4246-1.6708-8.667-1.5356-23.613-7.8654-32.806-13.894-9.4036-6.167-22.748-20.158-28.533-29.914-32.462-54.748-3.7144-124.53 58.012-140.82 10.668-2.8162 35.81-2.884 45.879-0.12405 21.699 5.9482 38.272 16.686 51.722 33.511 24.183 30.25 26.998 72.665 7.1047 107.05-5.2762 9.1195-16.966 21.824-26.033 28.295-8.7551 6.2475-23.199 12.985-32.99 15.389-7.4092 1.819-27.493 3.1525-32.932 2.1866zm-354.8-29.337c-20.198-2.4765-36.054-6.941-52.847-14.88-42.78-20.225-75.316-58.941-87.249-103.82-4.3633-16.413-5.5861-25.856-5.5861-43.134 0-8.8421 0.6331-19.819 1.407-24.392 9.1928-54.324 40.728-97.122 89.834-121.91 10.294-5.1966 31.21-11.891 43.909-14.054 14.566-2.4809 39.652-2.5015 54.037-0.043 62.33 10.647 113.89 57.205 129.86 117.26 4.3631 16.413 5.5861 25.856 5.5861 43.134 0 44.486-15.999 83.133-47.536 114.82-24.45 24.572-54.279 39.981-88.111 45.516-12.557 2.0546-32.974 2.7583-43.298 1.4923z" fill="#502d16"/>
    <path d="m2204.2 687.33c-4.2687-0.9423-12.002-3.747-17.185-6.2327-13.282-6.3691-26.537-19.606-33.09-33.045-6.7281-13.796-8.2893-21.218-7.6903-36.561 0.8064-20.655 6.9952-34.912 21.414-49.331 14.426-14.426 28.674-20.608 49.355-21.415 15.04-0.58753 25.156 1.6283 38.148 8.3544 11.954 6.1889 25.6 20.268 31.431 32.427 19.75 41.183 0.1 88.628-42.837 103.43-11.852 4.0851-27.534 5.027-39.547 2.3751zm-358.13-38.289c-40.852-5.8869-77.846-32.94-95.898-70.128-17.767-36.599-17.767-75.7 0-112.3 38.67-79.659 146.58-95.709 207.18-30.814 48.08 51.484 45.386 131.94-6.0264 179.95-28.179 26.316-67.451 38.736-105.25 33.288z" fill-opacity=".99763" opacity=".59939"/>
    <path d="m2207 701.72c-1.5244-0.2705-5.7656-1.0226-9.4244-1.6708-8.6672-1.5356-23.613-7.8654-32.805-13.894-9.4039-6.167-22.749-20.158-28.534-29.914-32.462-54.748-3.7145-124.53 58.012-140.82 10.668-2.8162 35.809-2.884 45.879-0.12404 21.698 5.9482 38.272 16.686 51.721 33.511 24.183 30.25 26.998 72.665 7.105 107.05-5.2765 9.1195-16.966 21.824-26.034 28.295-8.7551 6.2475-23.199 12.985-32.99 15.389-7.4092 1.8189-27.493 3.1524-32.932 2.1865zm-354.8-29.337c-20.198-2.4765-36.054-6.941-52.847-14.88-42.78-20.225-75.316-58.941-87.249-103.82-4.3632-16.413-5.5862-25.855-5.5862-43.134 0-8.8421 0.6331-19.819 1.4073-24.392 9.1925-54.324 40.727-97.122 89.833-121.91 10.295-5.1965 31.21-11.891 43.909-14.054 14.566-2.4809 39.652-2.5015 54.037-0.043 62.33 10.647 113.89 57.205 129.86 117.26 4.3633 16.413 5.5862 25.855 5.5862 43.134 0 44.486-15.999 83.133-47.536 114.82-24.45 24.572-54.279 39.981-88.111 45.516-12.557 2.0546-32.974 2.7583-43.298 1.4923z" fill="url(#linearGradient8236-5)"/>
   </g>
   <g fill="#fff">
    <g stroke-linecap="round" stroke-linejoin="round">
     <ellipse cx="1818.7" cy="423.53" rx="39.895" ry="54.143" stroke-dasharray="8.32421, 8.32421" stroke-width="2.081" style="paint-order:markers stroke fill"/>
     <ellipse cx="1753.1" cy="468.41" rx="28.496" ry="22.085" stroke-dasharray="2.20245, 2.20245" stroke-width=".55061" style="paint-order:markers stroke fill"/>
     <ellipse cx="2190.6" cy="556.58" rx="18.774" ry="25.479" stroke-dasharray="3.91728, 3.91728" stroke-width=".97932" style="paint-order:markers stroke fill"/>
     <ellipse cx="2159.8" cy="577.7" rx="13.41" ry="10.393" stroke-dasharray="1.03644, 1.03644" stroke-width=".25911" style="paint-order:markers stroke fill"/>
    </g>
    <g transform="matrix(8.6147 0 0 8.6147 1095.8 -315.31)" fill-opacity=".68016">
     <path d="m75.206 104.89c0.54783 3.3726 8.0748 8.1509 13.049 8.4658 4.9746 0.31483 13.565-4.3029 14.359-7.6239 0.79435-3.321-0.99187-4.6305-3.6015-5.1449-2.6096-0.51442-5.3353 5.3333-9.1206 5.1917-3.7853-0.14155-7.3468-6.6556-10.29-6.2207-2.9431 0.43489-4.9444 1.9594-4.3966 5.332z"/>
     <path d="m123.16 112.67c0.29991 1.8464 4.4206 4.4623 7.144 4.6347 2.7234 0.17235 7.4261-2.3557 7.861-4.1738 0.43487-1.8181-0.543-2.535-1.9716-2.8166s-2.9208 2.9198-4.9931 2.8423-4.022-3.6437-5.6333-3.4056c-1.6112 0.23808-2.7069 1.0727-2.407 2.9191z"/>
    </g>
   </g>
   <g transform="matrix(8.6147 0 0 8.6147 1092.8 -314.46)" fill="none" filter="url(#filter22322-3-1-8)" stroke-linecap="round" stroke-linejoin="round" stroke-opacity=".82341" style="mix-blend-mode:normal">
    <path transform="rotate(137.23)" d="m13.375-131.98a13.19 13.003 0 0 1-8.1489 12.016 13.19 13.003 0 0 1-14.378-2.8314 13.19 13.003 0 0 1-2.8407-14.18 13.19 13.003 0 0 1 12.206-8.007" opacity=".47557" stroke="url(#linearGradient12396)" stroke-width=".865"/>
    <path transform="rotate(137.23)" d="m11.721-131.96a11.693 11.527 0 0 1-7.2303 10.654 11.693 11.527 0 0 1-12.749-2.5217 11.693 11.527 0 0 1-2.5014-12.579 11.693 11.527 0 0 1 10.84-7.0799" opacity=".41368" stroke="url(#linearGradient12398)" stroke-width=".165"/>
    <path transform="rotate(145.57)" d="m-39.721-162.73a7.0148 6.9114 0 0 1-6.3018 6.8756 7.0148 6.9114 0 0 1-7.5829-5.4779 7.0148 6.9114 0 0 1 4.7603-7.9892" opacity=".47883" stroke="url(#linearGradient12400)" stroke-width=".165"/>
    <path transform="rotate(140.51)" d="m-24.344-166.26a7.9229 7.8065 0 0 1-7.7289 7.8042 7.9229 7.8065 0 0 1-8.1074-7.422 7.9229 7.8065 0 0 1 7.3318-8.1677" opacity=".468" stroke="url(#linearGradient12402)" stroke-width=".465"/>
   </g>
   <g stroke-width="8.6146">
    <path d="m2080.4 594.28c-0.5755 0.57976-4.3458 7.7477-8.3791 15.929-12.386 25.127-29.325 48.206-48.479 66.05-89.162 83.065-225.23 83.065-314.38 0-19.597-18.258-36.552-41.544-49.024-67.333-9.0325-18.677-14.478-34.538-18.268-53.211-9.9767-49.153-3.9173-99.697 17.236-143.77 12.682-26.419 25.442-44.561 45.338-64.457 89.713-89.713 234.11-89.713 323.82 0 19.896 19.896 32.656 38.038 45.338 64.457 16.824 35.049 24.414 75.575 21.315 113.81-0.7287 8.9946-1.6207 17.477-1.9822 18.849-1.042 15.297-1.3028 38.341-12.536 49.677zm-189.89 135.71c41.016-4.4579 82.81-21.971 115.54-48.414 9.8146-7.9289 28.452-26.935 35.638-36.343 9.2943-12.169 17.571-25.784 24.738-40.69 15.987-33.254 22.7-65.77 21.344-103.39-1.726-47.905-17.664-91.074-47.91-129.78-7.8255-10.013-27.682-29.666-37.69-37.305-67.678-51.655-157.54-60.975-232.44-24.11-23.353 11.493-38.974 22.516-57.911 40.866-41.503 40.216-64.816 92.608-66.895 150.33-1.3555 37.624 5.357 70.141 21.344 103.39 11.47 23.858 22.685 39.974 40.939 58.829 18.655 19.269 36.798 32.606 60.657 44.59 21.557 10.828 49.691 19.337 72.427 21.906 12.658 1.4302 37.621 1.4908 50.215 0.1224z"/>
    <path d="m2201.2 739.52c-0.9149-0.2214-5.4052-1.0084-9.9784-1.7486-19.127-3.0957-39.788-12.152-56.629-24.821-33.751-25.391-53.137-64.39-53.137-106.9 0-8.0436-0.3902-12.434-1.0459-11.774 2.0479-23.231 11.635-40.04 18.673-54.743 6.7002-11.472 13.412-19.887 23.872-29.929 25.17-24.163 56.81-36.797 92.16-36.797 73.997 0 133.58 59.768 133.55 133.96-0.025 53.928-32.72 102.39-83.207 123.31-14.789 6.1292-28.578 8.9162-46.512 9.4012-8.8422 0.2386-16.826 0.2532-17.74 0.034zm45.687-10.91c20.6-5.4449 39.071-15.882 54.756-30.94 26.621-25.557 39.26-54.931 39.26-91.246 0-22.933-3.7141-38.451-13.944-58.257-17.678-34.228-49.662-58.23-87.895-65.961-12.97-2.6223-43.57-1.7694-55.643 1.5508-44.969 12.367-78.699 46.208-91.152 91.453-2.2147 8.0444-2.4832 11.544-2.4395 31.77 0.044 21.512 0.2118 23.264 3.0791 32.708 3.4676 11.42 10.994 27.707 17.065 36.929 5.9419 9.0264 23.547 26.857 32.846 33.266 14.639 10.089 30.092 16.783 46.744 20.247 15.01 3.1224 42.532 2.3945 57.329-1.5165zm-159.11-227.46c-847.18-624.52-423.59-312.26 0 0z"/>
    <path d="m2201.2 739.53c-0.9146-0.2214-5.4051-1.0083-9.9783-1.7486-19.127-3.0956-39.788-12.152-56.629-24.82-33.75-25.391-53.137-64.39-53.137-106.9 0-8.0436-0.3902-12.434-1.0462-11.774-0.5753 0.57976-4.3457 7.7477-8.3788 15.929-12.386 25.127-29.325 48.206-48.479 66.05-89.162 83.065-225.23 83.065-314.38 0-19.598-18.258-36.552-41.544-49.024-67.333-9.0326-18.677-14.478-34.538-18.268-53.211-9.9766-49.153-3.9172-99.697 17.236-143.77 12.682-26.419 25.442-44.561 45.338-64.457 89.713-89.713 234.11-89.713 323.82 0 19.896 19.896 32.656 38.038 45.338 64.457 16.824 35.049 24.414 75.575 21.315 113.81-0.7286 8.9946-1.6206 17.477-1.9822 18.849-1.2988 4.9316 1.7846 2.3864 6.1367-5.0657 6.7003-11.472 13.412-19.887 23.872-29.929 25.17-24.163 56.81-36.797 92.16-36.797 73.998 0 133.58 59.768 133.55 133.96-0.025 53.928-32.72 102.39-83.207 123.31-14.789 6.1293-28.578 8.9162-46.512 9.4012-8.8422 0.2386-16.826 0.2533-17.74 0.034zm45.687-10.91c20.6-5.445 39.071-15.882 54.757-30.94 26.621-25.557 39.26-54.931 39.26-91.246 0-22.933-3.7141-38.451-13.944-58.257-17.678-34.228-49.663-58.23-87.895-65.961-12.97-2.6223-43.57-1.7695-55.643 1.5508-44.969 12.367-78.699 46.208-91.152 91.453-2.2147 8.0444-2.4836 11.544-2.4395 31.77 0.044 21.513 0.2119 23.264 3.0791 32.708 3.4676 11.42 10.994 27.707 17.065 36.929 5.9423 9.0265 23.547 26.857 32.846 33.266 14.639 10.09 30.092 16.783 46.744 20.247 15.01 3.1225 42.532 2.3944 57.329-1.5164zm-356.37 1.3766c41.015-4.4579 82.81-21.971 115.54-48.414 9.8149-7.929 28.452-26.935 35.638-36.344 9.2942-12.169 17.571-25.784 24.738-40.69 15.987-33.254 22.7-65.77 21.344-103.39-1.726-47.905-17.664-91.074-47.91-129.78-7.8255-10.013-27.682-29.666-37.69-37.305-67.678-51.655-157.54-60.975-232.44-24.11-23.352 11.493-38.974 22.516-57.911 40.866-41.503 40.216-64.816 92.608-66.895 150.33-1.3558 37.624 5.3567 70.141 21.344 103.39 11.47 23.858 22.685 39.974 40.939 58.829 18.655 19.269 36.798 32.606 60.657 44.59 21.557 10.828 49.691 19.337 72.427 21.906 12.657 1.4302 37.621 1.4908 50.215 0.1224z"/>
   </g>
   <g transform="matrix(8.6147 0 0 8.6147 1095.3 -314.73)" fill="#303433">
    <g transform="translate(.2466 .052997)" stroke="#000" stroke-width=".565">
     <g fill="#303433" stroke-linecap="round" stroke-linejoin="round">
      <path d="m147.5 107.65c1.2146-0.6355 3.9956-0.0984 4.139 2.6729 0.046 0.88988-0.42644 1.5126-1.2112 1.9384-0.60135 0.32635-1.3861 0.53714-2.2614 0.66404-3.4046 7.0372-4.774 7.7372-7.5902 10.699 5.6217-2.7753 7.666-7.9141 10.038-11.261 1.3366-1.408 0.81059-1.475 1.1954-2.5397 1.7124-4.7377 2.1249-9.2609 2.1519-14.907 0.085-17.764-1.0673-28.158-11.561-36.703-12.886-11.583-27.596-13.447-42.502-12.079-10.921 1.0824-17.41 3.3353-26.231 9.6261-11.652 8.3102-18.146 19.33-17.482 37.004 0.13422 3.5726 0.38716 7.4939 0.69505 10.489-0.0065 1.6018-0.23178 1.743 0.41806 3.237 1.4272 8.1143 4.5787 14.279 11.493 16.931-4.3472-4.1912-8.0394-8.7472-8.1751-15.93-2.807-0.1549-3.529-0.83537-3.729-2.7151 0.02262-3.3689 1.7658-3.1751 4.5753-2.941-1.7442-11.674-0.57827-19.374 3.6591-27.08 6.0373-10.98 15.67-12.897 25.234-12.995 1.0458-0.01071 16.13 2.1777 18.982 2.4414 3.1198 0.28845 15.943-0.95634 17.168-0.76986 4.7438 0.38045 17.455 3.4415 21.335 18.622 1.4618 5.7195 0.58459 18.74-0.34033 25.597z" fill="#303433" style="mix-blend-mode:normal"/>
     </g>
    </g>
    <path transform="matrix(12.018,0,0,5.4713,-1640.1,-840.71)" d="m141.16 170.17c0.14428 5.6375 0.41761 5.4294 1.05 6.0583-0.53831-0.99798-0.66632-1.9647-0.68023-2.9116-0.31803-0.032-0.39761-0.61073-0.16336-1.0766 0.12475-5e-3 0.0509 0.0229 0.12475-5e-3 -0.41123-4.353 0.7977-7.5781 1.7448-9.1942-1.982 2.3095-2.0378 5.5154-2.076 7.129z" color="#000000" filter="url(#filter7744-7-4-9-03-4)" opacity=".14007" style="-inkscape-stroke:none;mix-blend-mode:normal"/>
   </g>
   <g transform="matrix(2.0778 0 0 2.0778 857.44 -412.45)">
    <g transform="matrix(-4.4887 0 0 6.7842 1065 -662.3)" fill="#fff">
     <path d="m90.908 269.32c-0.69016 0.58121-0.32503 0.70121-0.22018 1.0378 2.4301 1.6004 4.8602 0.56652 7.2903 0.66054 2.0589 0.0239 4.1251 0.0722 5.9937-0.53822 2e-3 -0.20576-0.0105-0.38748-0.0734-1.1112-1.5675 0.36773-11.69 1.5851-12.99-0.0489z" stroke="#000" stroke-width=".265"/>
    </g>
    <path d="m598.57 1167.4 0.0143 1.9365c2.4588 1.6837 9.1557 3.0157 15.683 3.4305 6.5274 0.4147 38.281 4.2467 43.767-4.9468l-0.0357-1.9195c-7.5 9.7198-37.171 5.491-43.677 5.0775-4.4512-0.3528-11.449-2.0094-15.749-3.5782z" color="#000000" stroke-width="5.5185" style="-inkscape-stroke:none"/>
    <g transform="matrix(-4.4887 0 0 6.7842 1060.6 -662.38)" fill="#fff">
     <g fill="#fff" stroke="#000">
      <path d="m102.34 267.31c0.0116-0.13607-0.27623-0.28933-0.2849-0.23471-0.0137 0.0859 0.0195 0.19945-0.0387 0.23516-3.8566 0.77661-4.3284-0.76621-6.336 0.26567-1.8797 1.1079-4.9193 0.46125-5.7462 1.7527 1.0122 1.4942 12.42 0.77514 12.991 0.0515 0 0-0.11994-1.0414-0.56268-1.8348l-0.0323-0.18012z" fill="#fff" stroke-width=".265"/>
     </g>
    </g>
    <g stroke="#000">
     <path d="m608.56 1162.5c0.24301 2.962-2.5063 5.3273-2.5063 5.3273-2.8795-0.547-4.6379-0.8402-6.5253-2.3573-2.0854-4.5097 1.1155-9.1338 1.5683-12.784 0 0 7.2202 6.8519 7.4632 9.8139z" fill="#c7c7c7" stroke-width="2"/>
     <path d="m602.64 1151.1c-0.97625 3.9386 16.783 4.0756 17.3 1.675" fill="none" stroke-linecap="round" stroke-width="5"/>
     <path d="m619.05 1151.7 6.813 8.0037c2.1004 3.3617-5.2267 6.7834-10.914 9.1942 13.982 1.6411 33.963 2.9108 41.927-4.1212-3.0957-8.8096-20.09-8.0286-32.601-17.244-3.4451-0.4543-5.0166 2.688-5.2255 4.1672z" fill="#c7c7c7" stroke-width="2"/>
    </g>
    <g fill="none" stroke="#000" stroke-width=".26458px">
     <path d="m621.94 1154.1 5.5272-4.426"/>
     <path d="m624.4 1157.3 6.6127-4.923"/>
     <path d="m626.75 1161.1 8.8914-7.1306"/>
     <path d="m623.45 1169.4 16.577-13.642"/>
     <path d="m630.36 1169.2 14.899-11.926"/>
     <path d="m638.6 1169.2 11.4-10.432"/>
     <path d="m647.2 1168.3 6.2206-7.4644"/>
     <path d="m621.34 1149c9.628 7.0458 24.964 8.9768 34.176 15.557"/>
     <path d="m653.24 1166.9c-9.9244-6.1163-23.675-9.1779-32.897-14.786"/>
     <path d="m646.96 1169c-2.6007-3.3117-20.21-9.8505-20.4-9.2576"/>
     <path d="m640.3 1169.8c-2.8848-2.6585-9.5376-4.3303-14.74-6.3818"/>
     <path d="m633.15 1169.8-11.194-3.6332"/>
    </g>
    <g stroke="#000" stroke-width=".26458px">
     <path d="m623.47 1148.1-2.0451 1.0944 3.8395 2.2287 1.7008-1.2191z"/>
     <path d="m625.31 1151.5-2.507 1.9567 4.0943 2.0117 2.5498-1.9572z"/>
     <path d="m629.58 1153.4 4.4352 1.8363 1.3594-1.0866-3.8809-2.0998z"/>
     <path d="m634.06 1155.4-2.6774 2.0444 4.4323 1.5792 2.8479-2.132z"/>
     <path d="m638.57 1156.8 4.8642 1.8744 1.4446-1.1305-4.9485-1.7449z"/>
     <path d="m649.61 1159.2-1.529 1.26 4.0076 1.9269 1.1418-1.3843z"/>
     <path d="m652.05 1162.4-2.1993 2.6391s2.6738 1.4703 2.8876 1.425c0.21381-0.045 3.0232-1.791 3.0232-1.791z"/>
     <path d="m649.81 1165.1-2.7892 3.5458-4.661-2.8625 3.0969-2.8634z"/>
     <path d="m642.32 1165.8-3.3531 2.952-4.999-2.4302 3.3974-2.8239z"/>
     <path d="m640.76 1160.8 4.78 2.004 2.5036-2.2568-4.5214-1.8782z"/>
     <path d="m640.76 1161-4.8661-2.0458-3.0555 2.7343 4.5219 1.9212z"/>
     <path d="m632.75 1161.7-4.6042-1.6202-1.148 0.8272-1.1274 2.67 3.2276 1.164z"/>
     <path d="m629.1 1164.7-3.2269 2.7363 4.8185 1.6178 3.014-2.6054z"/>
     <path d="m630.65 1168.8-0.37997 0.5186 1.2447 0.1575z"/>
     <path d="m638.96 1168.9-0.59375 0.5638 1.158 0.073z"/>
     <path d="m625.83 1167.5-2.0803 1.7805-6.9541-0.951 5.5054-2.1188z"/>
     <path d="m626.81 1155.4-2.2951 1.7401 2.3005 2.5889 1.2028 0.2437 3.3993-2.6525z"/>
     <path d="m622.72 1153.4-0.84804 0.8238-1.6929-1.9099z"/>
    </g>
    <g fill="none" stroke="#000" stroke-width=".26458px">
     <path d="m601.64 1154.5-0.76904 12.556 0.11985-0.1225"/>
     <path d="m603.54 1167.5 0.48903-10.492"/>
     <path d="m606.09 1167.8 0.38947-8.551"/>
     <path d="m607.71 1160.7c-2.9093-0.6659-6.3422-0.5271-8.3929-2.5127"/>
     <path d="m608.36 1164.2c-3.2366-0.3407-6.4705-0.4384-9.7208-2.013"/>
    </g>
    <path d="m601.64 1154.6-0.30884 4.9132-1.4647-0.8929z" stroke="#000" stroke-width=".26458px"/>
    <path d="m601.27 1159.5-0.20252 3.5785 2.6735 0.5764 0.26244-3.6399z" fill="none" stroke="#000" stroke-width=".26458px"/>
    <g stroke="#000" stroke-width=".26458px">
     <path d="m603.91 1157.1 0.0318 2.8486 2.5516 0.517 0.0484-1.0916z"/>
     <path d="m603.42 1156-1.9469-0.645 0.16965-1.093z"/>
     <path d="m606.29 1164 0.20455-3.3967 1.1529 0.1083 0.21633 3.089z"/>
     <path d="m603.89 1160-0.08 3.6984-2.7361-0.7575 0.32575-3.398z"/>
     <path d="m603.8 1163.5-0.33184 2.8526 2.9772 0.6335-0.1557-3.0896z"/>
     <path d="m600.89 1163-0.0335 2.425-1.2897-1.501 0.0444-1.4552z"/>
    </g>
    <g transform="translate(-1.2631 -5.6436)">
     <g transform="matrix(4.4887 0 0 6.7842 75.7 -655.59)" fill="#fff">
      <path d="m90.908 269.32c-0.69016 0.58121-0.32503 0.70121-0.22018 1.0378 2.4301 1.6004 4.8602 0.56652 7.2903 0.66054 2.0589 0.0239 4.1251 0.0722 5.9937-0.53822 2e-3 -0.20576-0.0105-0.38748-0.0734-1.1112-1.5675 0.36773-11.69 1.5851-12.99-0.0489z" stroke="#000" stroke-width=".265"/>
     </g>
     <path d="m542.09 1174.1-0.0143 1.9365c-2.4588 1.6837-9.1557 3.0157-15.683 3.4305-6.5274 0.4147-38.281 4.2467-43.767-4.9468l0.0357-1.9195c7.5 9.7198 37.171 5.491 43.677 5.0775 4.4512-0.3528 11.449-2.0094 15.749-3.5782z" color="#000000" stroke-width="5.5185" style="-inkscape-stroke:none"/>
     <g transform="matrix(4.4887 0 0 6.7842 80.092 -655.67)" fill="#fff">
      <g fill="#fff" stroke="#000">
       <path d="m102.34 267.31c0.0116-0.13607-0.27623-0.28933-0.2849-0.23471-0.0137 0.0859 0.0195 0.19945-0.0387 0.23516-3.8566 0.77661-4.3284-0.76621-6.336 0.26567-1.8797 1.1079-4.9193 0.46125-5.7462 1.7527 1.0122 1.4942 12.42 0.77514 12.991 0.0515 0 0-0.11994-1.0414-0.56268-1.8348l-0.0323-0.18012z" fill="#fff" stroke-width=".265"/>
      </g>
     </g>
     <g stroke="#000">
      <path d="m532.1 1169.2c-0.24301 2.962 2.5063 5.3273 2.5063 5.3273 2.8795-0.547 4.6379-0.8402 6.5253-2.3573 2.0854-4.5097-1.1155-9.1338-1.5683-12.784 0 0-7.2202 6.8519-7.4632 9.8139z" fill="#c7c7c7" stroke-width="2"/>
      <path d="m538.01 1157.8c0.97625 3.9386-16.783 4.0756-17.3 1.675" fill="none" stroke-linecap="round" stroke-width="5"/>
      <path d="m521.61 1158.4-6.813 8.0037c-2.1004 3.3617 5.2267 6.7834 10.914 9.1942-13.982 1.6411-33.963 2.9108-41.927-4.1212 3.0957-8.8096 20.09-8.0286 32.601-17.244 3.4451-0.4543 5.0166 2.688 5.2255 4.1672z" fill="#c7c7c7" stroke-width="2"/>
     </g>
     <g fill="none" stroke="#000" stroke-width=".26458px">
      <path d="m518.71 1160.8-5.5272-4.426"/>
      <path d="m516.26 1164-6.6127-4.923"/>
      <path d="m513.91 1167.8-8.8914-7.1306"/>
      <path d="m517.21 1176.1-16.577-13.642"/>
      <path d="m510.3 1175.9-14.899-11.926"/>
      <path d="m502.06 1175.9-11.4-10.432"/>
      <path d="m493.46 1175-6.2206-7.4644"/>
      <path d="m519.31 1155.7c-9.628 7.0458-24.964 8.9768-34.176 15.557"/>
      <path d="m487.42 1173.6c9.9244-6.1163 23.675-9.1779 32.897-14.786"/>
      <path d="m493.7 1175.7c2.6007-3.3117 20.21-9.8505 20.4-9.2576"/>
      <path d="m500.36 1176.5c2.8848-2.6585 9.5376-4.3303 14.74-6.3818"/>
      <path d="m507.51 1176.5 11.194-3.6332"/>
     </g>
     <g stroke="#000" stroke-width=".26458px">
      <path d="m517.19 1154.8 2.0451 1.0944-3.8395 2.2287-1.7008-1.2191z"/>
      <path d="m515.35 1158.2 2.507 1.9567-4.0943 2.0117-2.5498-1.9572z"/>
      <path d="m511.08 1160.1-4.4352 1.8363-1.3594-1.0866 3.8809-2.0998z"/>
      <path d="m506.6 1162.1 2.6774 2.0444-4.4323 1.5792-2.8479-2.132z"/>
      <path d="m502.09 1163.5-4.8642 1.8744-1.4446-1.1305 4.9485-1.7449z"/>
      <path d="m491.04 1165.9 1.529 1.26-4.0076 1.9269-1.1418-1.3843z"/>
      <path d="m488.61 1169.1 2.1993 2.6391s-2.6738 1.4703-2.8876 1.425c-0.21381-0.045-3.0232-1.791-3.0232-1.791z"/>
      <path d="m490.85 1171.8 2.7892 3.5458 4.661-2.8625-3.0969-2.8634z"/>
      <path d="m498.34 1172.6 3.3531 2.952 4.999-2.4302-3.3974-2.8239z"/>
      <path d="m499.9 1167.6-4.78 2.004-2.5036-2.2568 4.5214-1.8782z"/>
      <path d="m499.9 1167.7 4.8661-2.0458 3.0555 2.7343-4.5219 1.9212z"/>
      <path d="m507.9 1168.4 4.6042-1.6202 1.148 0.8272 1.1274 2.67-3.2276 1.164z"/>
      <path d="m511.56 1171.4 3.2269 2.7363-4.8185 1.6178-3.014-2.6054z"/>
      <path d="m510.01 1175.6 0.37997 0.5186-1.2447 0.1575z"/>
      <path d="m501.69 1175.6 0.59375 0.5638-1.158 0.073z"/>
      <path d="m514.83 1174.2 2.0803 1.7805 6.9541-0.951-5.5054-2.1188z"/>
      <path d="m513.85 1162.1 2.2951 1.7401-2.3005 2.5889-1.2028 0.2437-3.3993-2.6525z"/>
      <path d="m517.94 1160.1 0.84804 0.8238 1.6929-1.9099z"/>
     </g>
     <g fill="none" stroke="#000" stroke-width=".26458px">
      <path d="m539.02 1161.3 0.76904 12.556-0.11985-0.1225"/>
      <path d="m537.11 1174.2-0.48903-10.492"/>
      <path d="m534.56 1174.5-0.38947-8.551"/>
      <path d="m532.95 1167.4c2.9093-0.6659 6.3422-0.5271 8.3929-2.5127"/>
      <path d="m532.3 1170.9c3.2366-0.3407 6.4705-0.4384 9.7208-2.013"/>
     </g>
     <path d="m539.02 1161.3 0.30884 4.9132 1.4647-0.8929z" stroke="#000" stroke-width=".26458px"/>
     <path d="m539.39 1166.2 0.20252 3.5785-2.6735 0.5764-0.26244-3.6399z" fill="none" stroke="#000" stroke-width=".26458px"/>
     <g stroke="#000" stroke-width=".26458px">
      <path d="m536.74 1163.8-0.0318 2.8486-2.5516 0.517-0.0484-1.0916z"/>
      <path d="m537.24 1162.7 1.9469-0.645-0.16965-1.093z"/>
      <path d="m534.36 1170.7-0.20455-3.3967-1.1529 0.1083-0.21633 3.089z"/>
      <path d="m536.77 1166.7 0.08 3.6984 2.7361-0.7575-0.32575-3.398z"/>
      <path d="m536.85 1170.3 0.33184 2.8526-2.9772 0.6335 0.1557-3.0896z"/>
      <path d="m539.77 1169.7 0.0335 2.425 1.2897-1.501-0.0444-1.4552z"/>
     </g>
    </g>
   </g>
   <path d="m1924.3 1328 3.9524 547.43s0.2057 3.5698 0.7563 6.9809c0.5506 3.411 3.7828 13.041 3.7828 13.041l-3.6587 101.92c17.538 7.8819 31.492 10.083 50.201 9.2089l35.698-5.4967 5.3716-281.96 13.287-277.65 25.133 270.24 0.035 290.51c42.824 13.066 62.142 4.5599 97.156-1.6616l-21.254-674.05s-23.546 1.4198-101.45 1.9153c-92.444 0.5875-109.02-0.4351-109.02-0.4351z" fill="url(#linearGradient90903-3)" opacity=".16938" stroke-width="3.4828"/>
   <g transform="matrix(8.6147 0 0 8.6147 1092.4 -314.73)" fill="#22577a" stroke="#000">
    <path d="m96.776 190.9 0.4588 63.546s0.0239 0.41441 0.08782 0.81037 0.4391 1.5138 0.4391 1.5138l-0.42472 11.832c2.0359 0.91495 3.6556 1.1704 5.8274 1.069l4.1439-0.63809 0.62356-32.73 1.5423-32.23 2.9174 31.37 4e-3 33.723c4.9711 1.5167 7.2136 0.52932 11.278-0.19289l-2.4672-78.245s-2.7333 0.16482-11.776 0.22232c-10.731 0.0682-11.63-0.0174-11.63-0.0174z" stroke-width=".40429"/>
    <g transform="translate(.2152 -.49518)">
     <g fill="#22577a" stroke-width=".26458px">
      <path d="m103.91 192.75s0.22989 5.2894-7.3734 3.1969"/>
      <path d="m113.62 192.56s-0.22989 5.2894 7.3734 3.1969"/>
      <path d="m108.15 191.64c0.01 9.218 0.0323 11.013 1.1271 11.42l-0.24568-11.515"/>
     </g>
     <path d="m109.31 200.51-0.16955 0.14616-0.0822 4.3513 0.42738-0.0197z" color="#000000" fill="#000" stroke="none" style="-inkscape-stroke:none"/>
     <path d="m96.609 192.57 11.343 0.10336h0.12919" fill="#22577a" stroke-width=".26458px"/>
     <path d="m109.11 192.6 11.834-0.41341" fill="#22577a" stroke-width=".26458px"/>
    </g>
   </g>
   <g>
    <path transform="matrix(8.6147 0 0 8.6147 1095.3 -314.73)" d="m108.61 203.54-3.3748 0.69482 2.7388 0.64597 0.14839 22.18 1.0167-22.992 2.6308 25.194-2.0001-24.667 3.1652-0.93017z" fill-opacity=".99763" filter="url(#filter48371-3-3-0-7)" opacity=".18567" stroke-width=".26458px" style="mix-blend-mode:normal"/>
    <g>
     <g stroke="#000" stroke-width=".26458px">
      <path transform="matrix(8.6147 0 0 8.6147 1095.3 -314.73)" d="m99.592 203.77c0.98966 3.5696 7.0712 8.0225 7.0712 8.0225s-5.0268-4.0312-7.2115-3.0179c-2.4404 1.1319 0.15365 8.0689 0.15365 8.0689-3.9976 2.6263-1.664 8.0705-0.33349 9.5994-0.22468 1.173-0.65868 4.069 0.33351 4.4941 3.5449 1.4365 0.41666 3.602 0.45964 3.6204 0 0-0.93322 0.45981-1.1693 0.88868-0.26411 0.47978-0.14032 1.637-0.14032 1.637s0.19298 0.77268 0.5145 0.8419c0.39964 0.086 2.3182-7e-3 2.3182-7e-3s-1.2159 0.74406-1.8698 1.1812c-0.57558 0.38478-0.69709 0.0846-1.165 0.59483-0.48466 0.52851-0.28613 1.3664-0.0227 1.9668 0.22838 0.52049 1.268 1.14 1.268 1.14s-1.2644 0.0224-1.6838 0.42095c-0.69719 0.66242-1.0649 1.8241-0.8419 2.7596 0.23239 0.97478 0.37694 1.4924 0.37694 1.4924 1.3722 0.79004 3.3799 2.9007 3.235 3.6948-0.0848 0.46461-1.9482-0.59634-3.0234-0.48642-0.79028 0.0808 0.90913 1.5559 1.5848 2.363 1.6271 1.9434 3.7472 3.7642 3.7472 3.7642-0.0666 0.33316-4.4268-4.2291-5.0046-3.6482-0.92151 0.92644-0.21028 3.962-0.21164 3.9601-0.71626 0.6418-0.87184-1.4781 0.87878 1.2883 1.2258 1.2966 2.5309 3.9924 5.4094 4.1146-3.5001 0.0743-4.1481-0.11197-5.8267 0.76198-0.82946 1.2442-0.52513 3.2125 0.45167 4.3276 1.8036 2.059 8.0876 1.4226 8.0876 1.4226-3.3013 0.93328-6.6259 0.75235-9.9713-0.4309-0.16052-3.095 0.3794-7.3013 0.41265-11.791 0.0045-0.60491-0.43644-1.3302-0.45843-1.9409-0.09113-2.5303 0.0088-5.0482-0.14679-7.3781-0.08236-1.2335 0.06086-0.38863 0.05345-1.5713l-0.04534-7.2357s0.0478-2.7909-0.08904-7.2044c0 0-0.05755-13.4-0.1091-15.88l-0.17834-24.701 2.5617-0.0429s-0.56618 8.7583 0.58465 12.909z" filter="url(#filter25156-9-5)" opacity=".18567" style="mix-blend-mode:normal"/>
      <path transform="matrix(8.6147 0 0 8.6147 1095.3 -314.73)" d="m104.97 219.94-2.4143-4.2003c0.80112 3.5606 3.1872 6.7338 5.6555 9.8557z" filter="url(#filter25176-3-4)" opacity=".18567" style="mix-blend-mode:normal"/>
      <path transform="matrix(8.6147 0 0 8.6147 1095.3 -314.73)" d="m112.06 235.44c-0.73341 5.9492 0.59809 22.731 0.0799 27.48-0.0257 0.23592 4.5002-0.77898 3.3987-1.5586-0.60055-0.42506-3.0828 0.24588-2.6735-2.6007 0 0-0.16027-1.5559 3.0888 0.49654 0.36161 0.22843-1.1866-1.18-0.9727-1.7554 0.29619-0.79663 1.2627-1.4615 1.5899-2.6704 0.2072-0.76559-1.6989-2.0904-1.5095-5.2658 0.18604-3.1197 0.69051-7.5531 1.5377-9.3685 0.29873-0.64009 1.5089-0.28858 1.5602-0.36118 0.46045-0.65128-1.7641-1.3154-3.0428-4.6076-0.34787-0.89565-0.50323-3.7621-0.66289-4.7382-0.46863-2.8652-1.3137-5.5647-1.103-6.0696 1.0446-2.5027 1.2898-5.2917 1.2898-5.2917-0.2463 1.1166-1.4781 2.0018-2.1412 2.2916 0.20322-1.3458 2.1079-4.5877 1.7112-6.2934 0.1077-1.3177-0.15315-5.4431 0.8599-6.6476-1.4111 1.3578-3.6412 3.3989-4.0018 1.9183l-1.9081-7.8352c-0.6748 2.8702-0.78323 5.7679-0.93614 8.6951l-1.7859-1.1245c1.9791 1.8591 1.5906 3.8498 2.1497 5.7878-0.39026-9.5182 0.70976-9.3298 0.70976-9.3298s1.8015 18.53 2.3224 23.59" filter="url(#filter25136-0-1)" opacity=".18567" style="mix-blend-mode:normal"/>
      <path transform="matrix(8.6147 0 0 -8.6147 1095.3 4266.8)" d="m122.78 264.78c-3.9361 2.9688-7.1734 2.3595-9.7896 1.9844 1.9252 0.85563 2.9141 2.6724 5.2586 1.5875 0.22371-0.10352 4.531-3.5719 4.531-3.5719z" filter="url(#filter25152-1-1)" opacity=".18567" style="mix-blend-mode:normal"/>
     </g>
     <path transform="matrix(8.6147 0 0 8.6147 1095.3 -314.73)" d="m117.05 259.32 2.745-3.9688s-0.53703 1.425-0.95911 2.0505c-0.48867 0.72418-1.7859 1.9182-1.7859 1.9182z" filter="url(#filter25148-8-4)" opacity=".18567" style="mix-blend-mode:normal"/>
     <path transform="matrix(8.6147 0 0 8.6147 1095.3 -314.73)" d="m116.35 256.35s2.4009-3.415 4.2664-3.8364c0.30281-0.0684 0.89296 0.26458 0.89296 0.26458l-5.0602 3.605" filter="url(#filter25144-5-6)" opacity=".18567" style="mix-blend-mode:normal"/>
     <path transform="matrix(8.6147 0 0 8.6147 1095.3 -314.73)" d="m118.29 236.67c-0.45454 1e-3 -1.3744 0.16966-1.3744 0.16966 2.4351 1.4758 3.4836 2.9516 5.1447 4.4275 0 0-1.7885-4.6017-3.7703-4.5971z" filter="url(#filter25140-7-8)" opacity=".18567" style="mix-blend-mode:normal"/>
    </g>
    <path d="m1934.9 1892.4-1.18 5.5951c5.6487 5.935 26.983 37.311 31.536 33.503-10.118-11.628-20.237-24.434-30.356-39.098z" color="#000000" stroke-width="8.6146" style="-inkscape-stroke:none"/>
    <g>
     <path transform="matrix(8.6147 0 0 8.6147 1095.3 -314.73)" d="m106.27 234.94s-2.0789 0.48974-2.8999 1.1225c-0.44212 0.3408-0.98222 1.3564-0.98222 1.3564z" filter="url(#filter25168-4-0)" opacity=".18567" style="mix-blend-mode:normal"/>
     <path transform="matrix(8.6147 0 0 8.6147 1095.3 -314.73)" d="m104.49 238.44s-1.4902 0.10949-2.1983 0.3274c-0.92638 0.2851-2.6192 1.2628-2.6192 1.2628z" filter="url(#filter25164-5-5)" opacity=".18567" style="mix-blend-mode:normal"/>
     <path transform="matrix(8.6147 0 0 8.6147 1095.3 -314.73)" d="m107.06 255.66-3.695 3.695 3.8353-3.0402z" filter="url(#filter25160-9-5)" opacity=".18567" style="mix-blend-mode:normal"/>
    </g>
   </g>
   <g transform="matrix(8.6147 0 0 8.8386 1506.8 -298.56)" fill="#382e85" fill-opacity=".99763">
    <path d="m49.027 184.87c-0.62775-0.30974 1.0308-15.588 5.3882-40.191 0.12756-0.81753-7.1293 19.88-6.985 18.933 0.12173-0.79863-5.4247-0.31831-4.8412-2.6575 0.93854-3.7627 4.7033-17.479 9.4848-24.959 1.1581-1.8118 2.0608-3.048 4.0278-5.0596 1.1458-1.0073 1.7876-0.77852 1.7876-0.77852l5.5934-0.31303c1.2234-0.10501 4.122 1.3795 6.9069 5.1249 3.1035 4.1739 5.5151 15.37 8.8643 23.38-0.79617 1.5947-3.4474 2.8842-4.87 3.8178-0.56973-0.47523-5.6089-18.665-5.4997-18.062 3.7502 20.711 4.3157 39.054 4.1296 40.005-4.4478 0.83025-20.063 1.1248-23.987 0.76006z" fill="#b4e3fc" fill-opacity="1" stroke="#000" stroke-width=".71478"/>
   </g>
   <path d="m2137.5 954.95c-3.8228-12.658-9.6263-25.446-14.827-38.194 0 0-6.2152 26.419 1.4339 35.43 2.95 3.4751 13.393 2.7644 13.393 2.7644z" fill="#22577a" stroke="#000" stroke-width=".5"/>
   <g transform="matrix(8.6147 0 0 8.6147 1095.3 -314.73)" stroke="#000">
    <path d="m109.96 136.53 0.5858 54.965c-0.47221 0.0516-3.7131 0.22829-2.4666 0.12602l-0.4121-55.315" fill="none" stroke-width=".565"/>
    <path d="m103.69 135.2 4.4618 0.52634 1.6305-0.032c0.87499-0.40253 3.0161 0.10576 2.8104-0.77713-0.46578 0.46775-6.121 0.73723-8.903 0.28279z" stroke-width=".26458px"/>
    <g fill="#b4e3fc" stroke-width=".565">
     <path d="m114.38 140.49-5.5967-4.8394c0.999 0.0437 1.8872-0.26591 3.8094-0.73339l2.4351 1.5213s-1.0708 1.2734-0.64778 4.0514z"/>
     <path d="m103.94 141.19 4.8515-5.5417c-1.75-0.0561-3.6585 0.0988-5.0932-0.44449l-1.3808 1.3229s2.0367 1.8852 1.6225 4.6633z"/>
    </g>
    <path d="m90.921 163.25c2.0274 1.181 3.6291 2.9065 5.98 2.8744 0.73511-0.0283-1.0666 2.6147-1.5999 3.9221-1.9359-0.3855-3.8898-0.5911-5.6555-2.6789z" fill="#b4e3fc" stroke-width=".565"/>
    <g fill="none" stroke-linejoin="round" stroke-width=".165">
     <circle cx="109.21" cy="186.43" r=".51449"/>
     <circle cx="109.17" cy="179.02" r=".51449"/>
     <circle cx="109.07" cy="171.42" r=".51449"/>
     <circle cx="109.11" cy="162.92" r=".51449"/>
     <circle cx="109.01" cy="155.08" r=".51449"/>
     <circle cx="108.94" cy="146.88" r=".51449"/>
     <circle cx="108.88" cy="138.64" r=".51449"/>
    </g>
   </g>
   <path transform="matrix(8.6147 0 0 8.6147 1095.3 -314.73)" d="m108.55 136.19 5.8867 5.8945-0.048-1.5953-5.5967-4.8394" filter="url(#filter5908-5)" opacity=".18892" style="mix-blend-mode:normal"/>
   <g transform="matrix(8.6147 0 0 8.6147 1095.3 -314.73)" stroke="#000" stroke-width=".26458px">
    <path d="m113.33 134.97c-1.6685 1.8723-3.0332 3.068-9.7116 3.8269l-1.3102-2.2714 1.3808-1.3229 8.9031-0.28189" filter="url(#filter8266-6-0)" opacity=".18892" style="mix-blend-mode:normal"/>
   </g>
   <path d="m2191.4 1095.1c-14.411 16.797-32.462 24.887-49.902 37.497 7.4495 13.256 11.469 24.079 17.659 33.481 9.5295-4.2553 46.063-16.359 48.448-38.067z" fill="#b4e3fc" stroke="#000" stroke-width="5.2907"/>
   <path transform="matrix(8.6147 0 0 8.6147 1095.3 -314.73)" d="m116.9 149.48 2.866 8.3338 3.0457 9.5196c0.67599 1.8023 0.58032 3.3069 1.7457 4.0948l-1.0618 0.47112-2.0499-3.8865 0.40579-0.78049z" filter="url(#filter8667-5)" opacity=".18892" style="mix-blend-mode:normal"/>
   <path d="m1930.5 959.56c4.6466-12.379 11.278-24.758 17.306-37.137 0 0 4.4649 26.771-3.7601 35.259-3.1721 3.2737-13.546 1.878-13.546 1.878z" fill="#22577a" stroke="#000" stroke-width=".5"/>
   <path d="m1989.7 846.12-11.896 11.396 4.1103 7.6933c-51.244 63.619-71.813 152.5-104.63 229.75l-9.83 31.626 9.5036 8.4223c0.7004-12.985 5.7921-23.804 12.944-34.664 2.1966-1.7798-9.3405-7.6632-9.3405-7.6632l7.2962 1.7674c29.993-69.451 46.044-142.55 95.192-211.27 1.026 3.8357 1.9269 7.8245 2.4137 12.368 0.4212 3.9248 0.5328 8.2633 0.1496 13.273l4.0375-6.056 7.9293-11.893v-0.017c0-13.401-5.3679-32.16 0.7162-39.472zm-15.888 128.3c-0.6984 0.017-1.5584 0.46-2.6189 1.5086-9.247 9.1418-29.094 91.704-29.356 92.677 0 0 35.344-85.8 34.935-84.401 0-0.01-1e-4 -0.01 0-0.01 0 0 0.4046-9.8537-2.9601-9.7763zm2.9601 9.7848c-8.1327 27.467-28.853 134.89-31.32 195.94 19.283-63.5 28.95-132.2 31.32-195.94zm-31.32 195.94c-18.884 46.159-13.426 106.13-17.202 151.53l53.985 4.994-7.067-9.8956c-21.088-42.953-29.664 18.947-29.716-146.63z" opacity=".12195" stroke-width=".54974" style="mix-blend-mode:normal"/>
   <g stroke="#000" stroke-width="4.1556">
    <path d="m2060.8 951.75 26.187-1.3552" fill="none"/>
    <path d="m1976.6 861.36-24.938 17.639c2.313 49.207-4.7591 107.94-18.883 158.18l-6.245 154.42-12.522 142.27 104.81 0.7702c0.1185-33.933-3.6575-66.767-3.1705-100.7 0.4916-34.261 5.2447-69.622 4.8088-103.88-0.8466-66.563-4.8863-133.13 0.06-199.69l-4.5595-73.242-27.468-7.1476z" fill="#22577a"/>
    <path d="m2092.1 859.48 24.938 17.639c-2.313 49.207 4.7592 107.94 18.883 158.18l6.2449 154.42 12.523 142.27-104.81 0.7701c-0.1184-33.933 3.6577-66.766 3.1707-100.7-0.4916-34.261-5.2447-69.622-4.8088-103.88 0.8467-66.563 4.8863-133.13-0.06-199.69l4.5595-73.242 23.757-8.6594z" fill="#22577a"/>
   </g>
   <path d="m2124.3 946.4c0.4569 1.0786 1.6637 3.5907 3.4352 4.8789 1.5981 1.1621 3.6623 1.2694 8.3132 0.016l-0.26-0.78704c-4.1788 1.0483-5.6669 0.64497-7.4126 0.0466-1.7105-0.81965-2.7201-2.0658-4.076-4.1545z" color="#000000" fill="#ebac05" stroke-width="2.0778" style="-inkscape-stroke:none"/>
   <path d="m2014.5 1329.5c-31.348-1.7446-62.714-3.471-98.111-1.1667" fill="none" stroke="#ebac05" stroke-width=".83111"/>
   <ellipse cx="2010.6" cy="1091.6" rx="3.4014" ry="3.5957" fill="#ebac05" stroke="#000" stroke-linecap="round" stroke-linejoin="round" stroke-width="2.0778" style="paint-order:markers stroke fill"/>
   <g>
    <ellipse transform="matrix(2.0778 0 0 2.0778 -2217.1 -654.39)" cx="2034.7" cy="840.34" rx="1.3395" ry=".62839" filter="url(#filter62099-05-9)" opacity=".74594" style="paint-order:markers stroke fill"/>
    <ellipse cx="2012.3" cy="1091.8" rx="1.1167" ry=".99703" opacity=".74594" style="paint-order:markers stroke fill"/>
    <ellipse transform="matrix(2.0778 0 0 2.0778 -2217.1 -654.39)" cx="2034.7" cy="839.41" rx=".78343" ry=".064312" filter="url(#filter62779-69-9)" opacity=".31098" stroke="#fff" stroke-linecap="round" stroke-linejoin="round" stroke-width=".265" style="paint-order:markers stroke fill"/>
    <ellipse transform="matrix(2.0778 0 0 2.0778 -2217.1 -654.39)" cx="2035.1" cy="841.23" rx=".78343" ry=".064312" filter="url(#filter62779-1-1-1)" opacity=".31098" stroke="#fff" stroke-linecap="round" stroke-linejoin="round" stroke-width=".265" style="paint-order:markers stroke fill"/>
   </g>
   <ellipse cx="2010.6" cy="1165.2" rx="3.4014" ry="3.5957" fill="#ebac05" stroke="#000" stroke-linecap="round" stroke-linejoin="round" stroke-width="2.0778" style="paint-order:markers stroke fill"/>
   <g>
    <ellipse transform="matrix(2.0778 0 0 2.0778 -2217.1 -654.39)" cx="2034.7" cy="875.79" rx="1.3395" ry=".62839" filter="url(#filter62099-6-6)" opacity=".74594" style="paint-order:markers stroke fill"/>
    <ellipse cx="2008.9" cy="1165.4" rx="1.1352" ry="1.0136" opacity=".74594" style="paint-order:markers stroke fill"/>
    <ellipse cx="2012.3" cy="1165.4" rx="1.1167" ry=".99703" opacity=".74594" style="paint-order:markers stroke fill"/>
    <ellipse transform="matrix(2.0778 0 0 2.0778 -2217.1 -654.39)" cx="2034.7" cy="874.87" rx=".78343" ry=".064312" filter="url(#filter62779-30-2)" opacity=".31098" stroke="#fff" stroke-linecap="round" stroke-linejoin="round" stroke-width=".265" style="paint-order:markers stroke fill"/>
    <ellipse transform="matrix(2.0778 0 0 2.0778 -2217.1 -654.39)" cx="2035.1" cy="876.69" rx=".78343" ry=".064312" filter="url(#filter62779-1-12-3)" opacity=".31098" stroke="#fff" stroke-linecap="round" stroke-linejoin="round" stroke-width=".265" style="paint-order:markers stroke fill"/>
   </g>
   <ellipse cx="2008.9" cy="1230.1" rx="3.4014" ry="3.5957" fill="#ebac05" stroke="#000" stroke-linecap="round" stroke-linejoin="round" stroke-width="2.0778" style="paint-order:markers stroke fill"/>
   <g>
    <ellipse transform="matrix(2.0778 0 0 2.0778 -2217.1 -654.39)" cx="2033.9" cy="907.01" rx="1.3395" ry=".62839" filter="url(#filter62099-9-4)" opacity=".74594" style="paint-order:markers stroke fill"/>
    <ellipse cx="2010.6" cy="1230.3" rx="1.1167" ry=".99703" opacity=".74594" style="paint-order:markers stroke fill"/>
    <ellipse transform="matrix(2.0778 0 0 2.0778 -2217.1 -654.39)" cx="2033.9" cy="906.09" rx=".78343" ry=".064312" filter="url(#filter62779-17-1)" opacity=".31098" stroke="#fff" stroke-linecap="round" stroke-linejoin="round" stroke-width=".265" style="paint-order:markers stroke fill"/>
    <ellipse transform="matrix(2.0778 0 0 2.0778 -2217.1 -654.39)" cx="2034.3" cy="907.91" rx=".78343" ry=".064312" filter="url(#filter62779-1-17-1)" opacity=".31098" stroke="#fff" stroke-linecap="round" stroke-linejoin="round" stroke-width=".265" style="paint-order:markers stroke fill"/>
   </g>
   <ellipse cx="2006.7" cy="1294.4" rx="3.4014" ry="3.5957" fill="#ebac05" stroke="#000" stroke-linecap="round" stroke-linejoin="round" stroke-width="2.0778" style="paint-order:markers stroke fill"/>
   <g>
    <ellipse transform="matrix(2.0778 0 0 2.0778 -2217.1 -654.39)" cx="2032.8" cy="937.97" rx="1.3395" ry=".62839" filter="url(#filter62099-1-0)" opacity=".74594" style="paint-order:markers stroke fill"/>
    <ellipse cx="2005.1" cy="1294.6" rx="1.1352" ry="1.0136" opacity=".74594" style="paint-order:markers stroke fill"/>
    <ellipse cx="2008.4" cy="1294.6" rx="1.1167" ry=".99703" opacity=".74594" style="paint-order:markers stroke fill"/>
    <ellipse transform="matrix(2.0778 0 0 2.0778 -2217.1 -654.39)" cx="2032.9" cy="937.05" rx=".78343" ry=".064312" filter="url(#filter62779-4-1)" opacity=".31098" stroke="#fff" stroke-linecap="round" stroke-linejoin="round" stroke-width=".265" style="paint-order:markers stroke fill"/>
    <ellipse transform="matrix(2.0778 0 0 2.0778 -2217.1 -654.39)" cx="2033.2" cy="938.86" rx=".78343" ry=".064312" filter="url(#filter62779-1-9-5)" opacity=".31098" stroke="#fff" stroke-linecap="round" stroke-linejoin="round" stroke-width=".265" style="paint-order:markers stroke fill"/>
   </g>
   <ellipse cx="2010.8" cy="948.25" rx="3.4014" ry="3.5957" fill="#ebac05" stroke="#000" stroke-linecap="round" stroke-linejoin="round" stroke-width="2.0778" style="paint-order:markers stroke fill"/>
   <g>
    <ellipse transform="matrix(2.0778 0 0 2.0778 -2217.1 -654.39)" cx="2034.8" cy="771.36" rx="1.3395" ry=".62839" filter="url(#filter62099-0-9)" opacity=".74594" style="paint-order:markers stroke fill"/>
    <ellipse cx="2009.2" cy="948.4" rx="1.1352" ry="1.0136" opacity=".74594" style="paint-order:markers stroke fill"/>
    <ellipse cx="2012.6" cy="948.46" rx="1.1167" ry=".99703" opacity=".74594" style="paint-order:markers stroke fill"/>
    <ellipse transform="matrix(2.0778 0 0 2.0778 -2217.1 -654.39)" cx="2034.9" cy="770.44" rx=".78343" ry=".064312" filter="url(#filter62779-6-5)" opacity=".31098" stroke="#fff" stroke-linecap="round" stroke-linejoin="round" stroke-width=".265" style="paint-order:markers stroke fill"/>
    <ellipse transform="matrix(2.0778 0 0 2.0778 -2217.1 -654.39)" cx="2035.2" cy="772.26" rx=".78343" ry=".064312" filter="url(#filter62779-1-5-4)" opacity=".31098" stroke="#fff" stroke-linecap="round" stroke-linejoin="round" stroke-width=".265" style="paint-order:markers stroke fill"/>
   </g>
   <ellipse cx="2011" cy="1021.5" rx="3.4014" ry="3.5957" fill="#ebac05" stroke="#000" stroke-linecap="round" stroke-linejoin="round" stroke-width="2.0778" style="paint-order:markers stroke fill"/>
   <g>
    <ellipse transform="matrix(2.0778 0 0 2.0778 -2217.1 -654.39)" cx="2034.9" cy="806.63" rx="1.3395" ry=".62839" filter="url(#filter62099-7-5)" opacity=".74594" style="paint-order:markers stroke fill"/>
    <ellipse cx="2009.4" cy="1021.7" rx="1.1352" ry="1.0136" opacity=".74594" style="paint-order:markers stroke fill"/>
    <ellipse cx="2012.7" cy="1021.7" rx="1.1167" ry=".99703" opacity=".74594" style="paint-order:markers stroke fill"/>
    <ellipse transform="matrix(2.0778 0 0 2.0778 -2217.1 -654.39)" cx="2035" cy="805.7" rx=".78343" ry=".064312" filter="url(#filter62779-3-6)" opacity=".31098" stroke="#fff" stroke-linecap="round" stroke-linejoin="round" stroke-width=".265" style="paint-order:markers stroke fill"/>
    <ellipse transform="matrix(2.0778 0 0 2.0778 -2217.1 -654.39)" cx="2035.3" cy="807.52" rx=".78343" ry=".064312" filter="url(#filter62779-1-7-8)" opacity=".31098" stroke="#fff" stroke-linecap="round" stroke-linejoin="round" stroke-width=".265" style="paint-order:markers stroke fill"/>
   </g>
   <path d="m1954.4 886.82c13.454-4.3295 17.464-6.8044 25.428-11.134l-0.9309-16.985c-9.4402 3.3086-19.038 5.7937-27.926 11.989-6.2728 9.7143 1.5534 11.444 3.4288 16.129z" fill="#22577a" stroke="#000" stroke-width="3.7833"/>
   <g fill="#ebac05" stroke-width="2.0778">
    <path d="m1955.6 869.93c-0.7752 0.8781-2.5194 3.052-2.9153 5.2062-0.3961 2.1541 0.6066 4.2019 4.6706 8.7071l0.8319-0.2836c-3.9854-4.418-4.3272-6.0674-4.5723-8.1587 0-1.8967 0.6875-3.3456 1.9851-5.471z" color="#000000" style="-inkscape-stroke:none"/>
    <path d="m1957.7 868.8c-0.7755 0.8782-2.5961 3.4725-2.992 5.6267-0.3961 2.1542 0.6069 4.202 4.6708 8.7071l0.8317-0.2836c-3.9852-4.418-4.3272-6.0674-4.5722-8.1587 0-1.8967 0.7639-3.7661 2.0617-5.8915z" color="#000000" style="-inkscape-stroke:none"/>
    <path d="m1944.2 951.89c-0.5268 1.0462-1.8962 3.4736-3.7485 4.6425-1.671 1.0545-3.7378 1.0259-8.2963-0.53054l0.3112-0.76825c4.1009 1.3208 5.6122 1.0161 7.3935 0.53381 1.7607-0.70543 2.85-1.8825 4.3403-3.8775z" color="#000000" style="-inkscape-stroke:none"/>
    <path d="m1944.4 949.51c-0.5268 1.0465-2.2579 3.7013-4.1102 4.8701-1.5657 0.98801-3.4326 1.0199-7.4109-0.26008l0.3062-0.79034c3.4583 1.0114 4.8619 0.73225 6.5121 0.28534 1.7606-0.70544 3.2117-2.1098 4.702-4.105z" color="#000000" style="-inkscape-stroke:none"/>
   </g>
   <path d="m2114.2 885.21c-13.454-4.3295-17.464-6.8044-25.428-11.134l0.9309-16.985c9.4402 3.3086 19.038 5.7937 27.926 11.989 6.2728 9.7143-1.5534 11.444-3.4288 16.129z" fill="#22577a" stroke="#000" stroke-width="3.7833"/>
   <path d="m2113 868.32c0.7752 0.8781 2.5196 3.052 2.9156 5.2062 0.396 2.1541-0.6069 4.2019-4.6709 8.7071l-0.8319-0.2836c3.9854-4.418 4.3272-6.0674 4.5723-8.1587 0-1.8967-0.6875-3.3456-1.9851-5.471z" color="#000000" fill="#ebac05" stroke-width="2.0778" style="-inkscape-stroke:none"/>
   <path d="m2110.9 867.19c0.7755 0.8782 2.5961 3.4725 2.9921 5.6267s-0.6067 4.202-4.6709 8.7071l-0.8317-0.2836c3.9854-4.418 4.3272-6.0674 4.5722-8.1587 0-1.8967-0.7639-3.7661-2.0617-5.8915z" color="#000000" fill="#ebac05" stroke-width="2.0778" style="-inkscape-stroke:none"/>
   <g>
    <path d="m1988.5 849.97-17.53 8.5102c7.1345 13.094 14.465 26.081 14.464 43.099l24.209-21.747c-3.3671 13.477-4.0305 27.167-12.993 38.779 8.0703 3.7148 18.576 2.9645 23.878 11.756l-4.5595-73.242-27.468-7.1475" fill="#22577a" stroke="#000" stroke-width="4.1556"/>
    <path d="m2053.9 1327c31.348-1.7446 62.714-3.471 98.111-1.1667" fill="none" stroke="#ebac05" stroke-width=".83111"/>
    <path d="m2097.7 856.59c-7.1344 13.094-14.465 26.081-14.464 43.099l-24.209-21.746c3.367 13.476 4.0305 27.167 12.993 38.778-8.0703 3.7149-18.576 2.9646-23.878 11.756l4.5594-73.242 23.757-8.6594z" fill="#22577a" stroke="#000" stroke-width="4.1556"/>
   </g>
   <path transform="matrix(2.0778 0 0 2.0778 -2217.1 -654.39)" d="m2085.9 738.14-66.14 16.494c-16.75 48.004-10.637 75.987-14.807 108.86 1.894 36.884-11.247 82.701 26.046 94.473l-42.844-1.0788 5.0443-53.173 4.2027-87.998c7.0828-25.584 10.075-51.372 8.9387-77.366l10.018-6.3188-0.3082-2.9282 7.5517-3.8529 43.307-2.62 10.634 5.3941-1.0788 2.9282 10.594 5.092z" fill-opacity=".99763" filter="url(#filter24317-7)" opacity=".11789"/>
   <path d="m2124.2 944.01c0.4569 1.0789 2.0097 3.8417 3.7812 5.1298 1.4973 1.0888 3.3581 1.2433 7.4119 0.22768l-0.2535-0.80876c-3.5173 0.78189-4.8995 0.41103-6.5168-0.14334-1.7105-0.81967-3.0661-2.3164-4.422-4.4053z" color="#000000" fill="#ebac05" stroke-width="2.0778" style="-inkscape-stroke:none"/>
   <g stroke-width="2.0778">
    <path d="m2053.8 1020.7c-0.2708 5.4961 3.6376 1.4412 6.2305 3.056 0.2711-5.4961-3.9812-1.046-6.2305-3.056z" color="#000000" style="-inkscape-stroke:none"/>
    <path d="m2053.4 946.14c-0.2708 5.4962 3.6376 1.4412 6.2307 3.0561 0.2709-5.4961-3.9812-1.0461-6.2307-3.0561z" color="#000000" style="-inkscape-stroke:none"/>
    <path d="m2054.1 1090.5c-0.2712 5.4961 3.6375 1.4412 6.2304 3.056 0.271-5.4961-3.9812-1.0461-6.2304-3.056z" color="#000000" style="-inkscape-stroke:none"/>
    <path d="m2054.3 1162.3c-0.271 5.4961 3.6375 1.4412 6.2306 3.056 0.2709-5.496-3.9812-1.046-6.2306-3.056z" color="#000000" style="-inkscape-stroke:none"/>
    <path d="m2058.8 1227.8c-0.2709 5.4961 3.6378 1.4412 6.2307 3.056 0.2709-5.4961-3.9813-1.046-6.2307-3.056z" color="#000000" style="-inkscape-stroke:none"/>
    <path d="m2058 1292.1c-0.2709 5.4962 3.6378 1.4412 6.2307 3.0561 0.2709-5.4962-3.9813-1.0461-6.2307-3.0561z" color="#000000" style="-inkscape-stroke:none"/>
   </g>
   <g>
    <g stroke="#000">
     <path d="m2077.4 952.02 30.704-1.8359 0.093 48.641-31.094 3.1503z" fill="#fff" stroke-width=".69928px"/>
     <path d="m2077.4 952.02 30.704-1.8359-0.1039 10.368-30.653 3.1504z" fill="#10344c" stroke-width=".69928px"/>
     <path d="m2085.6 948.33v4.276l13.994-0.8746v-4.1788z" fill="#c6c6c6" stroke-width=".54974px"/>
    </g>
    <path d="m2086.4 948.95 12.61-0.7215 0.068 2.8174c-0.6418-2.9896-8.0817-1.6343-12.679-2.0959z" fill="#fff"/>
    <path d="m2077.2 990.07 30.704-1.8358 0.2016 10.585-31.094 3.1503z" fill="#10344c" stroke="#000" stroke-width=".69928px"/>
   </g>
   <path d="m2016.3 764.09c20.076 25.427 65.558 27.611 85.186 0.1448" fill="none" stroke="#000" stroke-linecap="round" stroke-width="6.5902"/>
  </g>
 </g>
</svg>
