<?xml version="1.0" encoding="UTF-8" standalone="no"?>
<!-- Created with Inkscape (http://www.inkscape.org/) -->

<svg
   width="210mm"
   height="297mm"
   viewBox="0 0 210 297"
   version="1.1"
   id="svg34493"
   inkscape:version="1.1.1 (3bf5ae0d25, 2021-09-20)"
   sodipodi:docname="Passport Asset.svg"
   xmlns:inkscape="http://www.inkscape.org/namespaces/inkscape"
   xmlns:sodipodi="http://sodipodi.sourceforge.net/DTD/sodipodi-0.dtd"
   xmlns="http://www.w3.org/2000/svg"
   xmlns:svg="http://www.w3.org/2000/svg">
  <sodipodi:namedview
     id="namedview34495"
     pagecolor="#ffffff"
     bordercolor="#666666"
     borderopacity="1.0"
     inkscape:pageshadow="2"
     inkscape:pageopacity="0.0"
     inkscape:pagecheckerboard="0"
     inkscape:document-units="mm"
     showgrid="false"
     showguides="true"
     inkscape:guide-bbox="true"
     inkscape:zoom="0.5"
     inkscape:cx="563"
     inkscape:cy="469"
     inkscape:window-width="1920"
     inkscape:window-height="1017"
     inkscape:window-x="-8"
     inkscape:window-y="-8"
     inkscape:window-maximized="1"
     inkscape:current-layer="layer1" />
  <defs
     id="defs34490" />
  <g
     inkscape:label="Layer 1"
     inkscape:groupmode="layer"
     id="layer1">
    <rect
       style="fill:#34373c;fill-rule:evenodd;stroke:#000000;stroke-width:1;stroke-linecap:round;stroke-linejoin:round;stroke-opacity:1;paint-order:fill markers stroke;fill-opacity:1"
       id="rect34576"
       width="170.26697"
       height="105.23077"
       x="27.276573"
       y="126.22017"
       ry="5.1382222" />
    <g
       id="rect34576-3"
       style="stroke:#000000;stroke-opacity:1;fill:#34373c;fill-opacity:1"
       transform="translate(6.8534965,-2.2029096)">
      <path
         style="color:#000000;fill:#34373c;fill-rule:evenodd;stroke:#000000;stroke-linecap:round;stroke-linejoin:round;stroke-opacity:1;-inkscape-stroke:none;paint-order:fill markers stroke;fill-opacity:1"
         d="M 5.8305408,40.153856 H 165.82106 c 2.84658,0 3.79251,2.629833 5.13823,5.138222 14.36526,26.776428 13.55933,52.035736 19.73077,77.992782 0.65844,2.76938 -2.29165,5.13822 -5.13823,5.13822 H 25.56131 c -2.846575,0 -4.816105,-2.30992 -5.138222,-5.13822 C 17.4282,96.988763 14.492985,70.687694 0.69231877,45.292078 -0.66685995,42.790954 2.9839658,40.153856 5.8305408,40.153856 Z"
         id="path34911"
         sodipodi:nodetypes="sssssssss" />
    </g>
    <g
       id="rect34576-3-7"
       style="stroke:#000000;stroke-opacity:1;fill:#22577a;fill-opacity:1"
       transform="translate(6.8534965,-2.2029096)">
      <path
         style="color:#000000;fill:#22577a;fill-rule:evenodd;stroke:#000000;stroke-linecap:round;stroke-linejoin:round;stroke-opacity:1;-inkscape-stroke:none;paint-order:fill markers stroke;fill-opacity:1"
         d="M 8.7677536,35.013734 H 168.75827 c 2.84658,0 3.79251,2.629833 5.13823,5.138222 14.36526,26.776428 10.62212,57.175858 16.79356,83.132904 0.65844,2.76938 -2.29165,5.13822 -5.13823,5.13822 H 25.56131 c -2.846575,0 -4.816105,-2.30992 -5.138222,-5.13822 C 17.4282,96.988763 17.430198,65.547572 3.6295316,40.151956 2.2703528,37.650832 5.9211786,35.013734 8.7677536,35.013734 Z"
         id="path34911-3"
         sodipodi:nodetypes="sssssssss" />
    </g>
    <rect
       style="fill:#ffffff;fill-opacity:1;fill-rule:evenodd;stroke:#000000;stroke-width:0.989158;stroke-linecap:round;stroke-linejoin:round;stroke-opacity:1;paint-order:fill markers stroke"
       id="rect41007"
       width="170.27782"
       height="102.9547"
       x="27.276573"
       y="126.22017"
       ry="5.0270863" />
    <rect
       style="fill:#1db1ff;fill-opacity:0.22610721;fill-rule:evenodd;stroke:#000000;stroke-width:0.989158;stroke-linecap:round;stroke-linejoin:round;stroke-opacity:1;paint-order:fill markers stroke"
       id="rect42136"
       width="170.27782"
       height="102.9547"
       x="27.276573"
       y="126.22017"
       ry="5.0270863" />
    <g
       id="g52877"
       style="stroke:#000000;stroke-opacity:1;fill:#22577a;fill-opacity:1"
       transform="translate(6.8534965,-2.2029096)">
      <path
         style="color:#000000;fill:#22577a;fill-opacity:1;fill-rule:evenodd;stroke:#000000;stroke-linecap:round;stroke-linejoin:round;stroke-opacity:1;-inkscape-stroke:none;paint-order:fill markers stroke"
         d="M 10.358007,33.049303 H 170.34852 c 2.84658,0 3.79251,2.629833 5.13823,5.138222 14.36526,26.776428 9.03187,59.140289 15.20331,85.097335 0.65844,2.76938 -2.29165,5.13822 -5.13823,5.13822 H 25.56131 c -2.846575,0 -4.816105,-2.30992 -5.138222,-5.13822 C 17.4282,96.988763 19.020452,63.583141 5.2197853,38.187525 3.8606065,35.686401 7.5114323,33.049303 10.358007,33.049303 Z"
         id="path52875"
         sodipodi:nodetypes="sssssssss" />
    </g>
    <g
       id="rect34576-3-6"
       style="stroke:#000000;stroke-opacity:1;fill:#1db1ff;fill-opacity:1"
       transform="translate(6.8534965,-2.2029096)">
      <path
         style="color:#000000;fill:#1db1ff;fill-rule:evenodd;stroke:#000000;stroke-linecap:round;stroke-linejoin:round;stroke-opacity:1;-inkscape-stroke:none;paint-order:fill markers stroke;fill-opacity:1"
         d="M 12.684037,30.607914 H 172.67456 c 2.84658,0 3.79251,2.629833 5.13823,5.138222 14.36526,26.776428 6.70583,61.581678 12.87727,87.538724 0.65844,2.76938 -2.29165,5.13822 -5.13823,5.13822 H 25.56131 c -2.846575,0 -4.816105,-2.30992 -5.138222,-5.13822 C 17.4282,96.988763 21.346481,61.141752 7.5458153,35.746136 6.1866365,33.245012 9.8374623,30.607914 12.684037,30.607914 Z"
         id="path34911-2"
         sodipodi:nodetypes="sssssssss" />
    </g>
    <g
       id="g52698"
       style="stroke:#000000;stroke-opacity:1;fill:#1db1ff;fill-opacity:1"
       transform="translate(6.8534965,-2.2029096)">
      <path
         style="color:#000000;fill:#1db1ff;fill-opacity:1;fill-rule:evenodd;stroke:#000000;stroke-linecap:round;stroke-linejoin:round;stroke-opacity:1;-inkscape-stroke:none;paint-order:fill markers stroke"
         d="M 14.403829,28.226664 H 174.39435 c 2.84658,0 3.79251,2.629833 5.13823,5.138222 14.36526,26.776428 4.98604,63.962928 11.15748,89.919974 0.65844,2.76938 -2.29165,5.13822 -5.13823,5.13822 H 25.56131 c -2.846575,0 -4.816105,-2.30992 -5.138222,-5.13822 C 17.4282,96.988763 23.066273,58.760502 9.265607,33.364886 7.9064282,30.863762 11.557254,28.226664 14.403829,28.226664 Z"
         id="path52696"
         sodipodi:nodetypes="sssssssss" />
    </g>
    <g
       id="rect34576-3-6-0"
       style="stroke:#000000;stroke-opacity:1;fill:#ffdb13;fill-opacity:1"
       transform="translate(6.8534965,-2.2029096)">
      <path
         style="color:#000000;fill:#ffdb13;fill-opacity:1;fill-rule:evenodd;stroke:#000000;stroke-linecap:round;stroke-linejoin:round;stroke-opacity:1;-inkscape-stroke:none;paint-order:fill markers stroke"
         d="M 17.579392,25.467792 H 177.56991 c 2.84658,0 3.79251,2.629833 5.13823,5.138222 14.36526,26.776428 1.81048,66.7218 7.98192,92.678846 0.65844,2.76938 -2.29165,5.13822 -5.13823,5.13822 H 25.56131 c -2.846575,0 -4.816105,-2.30992 -5.138222,-5.13822 C 17.4282,96.988763 23.463711,58.647463 12.44117,30.606014 c -1.041369,-2.649253 2.291647,-5.138222 5.138222,-5.138222 z"
         id="path34911-2-9"
         sodipodi:nodetypes="sssssssss" />
    </g>
    <g
       id="rect34576-3-6-0-4"
       style="fill:#ffdb13;fill-opacity:1;stroke:#000000;stroke-opacity:1"
       transform="translate(6.8534965,-2.2029096)">
      <path
         style="color:#000000;fill:#ffdb13;fill-opacity:1;fill-rule:evenodd;stroke:#000000;stroke-linecap:round;stroke-linejoin:round;stroke-opacity:1;-inkscape-stroke:none;paint-order:fill markers stroke"
         d="M 19.563767,24.409459 H 179.55429 c 2.84658,0 5.20661,2.292471 5.13823,5.138222 -0.69646,28.98288 -2.47908,68.117828 5.99754,93.737179 0.89417,2.70249 -2.29165,5.13822 -5.13823,5.13822 H 25.56131 c -2.846575,0 -4.816105,-2.30992 -5.138222,-5.13822 -2.994888,-26.296097 4.098956,-67.812397 -5.997543,-93.737179 -1.033031,-2.652515 2.291647,-5.138222 5.138222,-5.138222 z"
         id="path34911-2-9-0"
         sodipodi:nodetypes="sssssssss" />
    </g>
    <rect
       style="fill:#ffffff;fill-opacity:1;fill-rule:evenodd;stroke:#000000;stroke-width:1;stroke-linecap:round;stroke-linejoin:round;stroke-miterlimit:4;stroke-dasharray:none;stroke-opacity:1;paint-order:fill markers stroke"
       id="rect34576-5"
       width="170.26697"
       height="105.23077"
       x="27.276573"
       y="20.989405"
       ry="5.1382222" />
    <path
       id="path1066"
       style="color:#000000;fill:#ffffff;stroke:none;stroke-width:1.49415;stroke-opacity:0.0862471;-inkscape-stroke:none;paint-order:stroke fill markers"
       d="m 54.869738,138.73751 -4.394921,5.157 11.528559,10.48311 c -0.772126,0.85278 -1.483095,1.71396 -2.146499,2.6005 l -12.125412,-10.2476 -3.078451,6.03259 13.166231,7.26258 c -0.605944,1.01658 -1.185318,2.09176 -1.751173,3.2545 l -12.722261,-6.99775 -1.826841,6.52521 13.013351,4.0992 c -2.360742,6.51122 -2.881512,13.64828 -1.468577,20.60949 0.629508,3.10119 1.558826,5.80987 3.043706,8.88018 2.075055,4.29057 4.890744,8.1635 8.185269,11.23282 14.832905,13.82002 37.572031,13.81993 52.406261,0 2.51852,-2.34633 4.65759,-5.28384 6.51054,-8.41381 1.01145,5.69067 4.00254,10.82075 8.70491,14.35839 v 0.003 c 2.91565,2.19335 6.41473,3.73875 9.80596,4.2876 0.68955,0.11161 1.55972,0.28253 1.40063,0.24168 l 0.0702,0.0149 c 0.45409,0.1016 0.57477,0.0722 0.81999,0.0765 0.24523,0.004 0.51257,0.001 0.79607,-0.003 0.56698,-0.0105 1.19337,-0.0305 1.62841,-0.0356 h 0.0149 0.0149 c 3.0117,-0.0814 5.50337,-0.58117 8.0432,-1.63381 8.68581,-3.59994 14.34473,-11.97331 14.34912,-21.28046 3.9e-4,-1.26698 -0.10519,-2.50849 -0.30035,-3.72008 l 0.46327,-0.14671 10.0067,-3.15412 -1.43846,-5.13925 -9.74341,5.36394 c -0.35491,-1.15995 -0.79924,-2.28063 -1.32342,-3.35488 l 0.51115,-0.28105 9.18362,-5.06898 -2.42215,-4.75396 -8.79987,7.44017 c -0.5972,-0.8976 -1.25639,-1.74958 -1.96969,-2.55264 l 0.38683,-0.35286 7.75983,-7.06183 -3.45834,-4.06291 -6.87111,9.32802 c -4.03596,-3.48573 -9.28685,-5.59789 -15.03631,-5.59789 -6.05132,0 -11.58597,2.20756 -15.90727,6.35611 -0.60174,0.5777 -0.92013,1.20862 -1.4153,1.77434 0.0914,-5.71018 -0.95021,-11.548 -3.43517,-16.72494 -2.07854,-4.33002 -4.27754,-7.45869 -7.55213,-10.73328 -7.46841,-7.46841 -17.23401,-11.2035 -26.999582,-11.2035 -9.328713,0 -18.656419,3.41078 -25.982686,10.22599 z m 35.561641,7.75519 c 1.138855,1.9e-4 2.277859,0.0591 3.412007,0.17682 6.048,0.62759 11.964434,2.91925 17.056954,6.80548 1.30616,0.99696 4.61377,4.26795 5.64113,5.58245 4.57822,5.85854 6.94206,12.27539 7.20236,19.49995 0.20565,5.70645 -0.78325,10.49242 -3.20123,15.52198 -1.08569,2.25818 -2.3331,4.3073 -3.72394,6.12834 -0.93049,1.21831 -4.02003,4.37879 -5.34077,5.44578 -4.8998,3.95874 -11.23617,6.60996 -17.354217,7.27493 -1.727937,0.18777 -5.811832,0.17664 -7.552903,-0.02 -3.3194,-0.37506 -7.671113,-1.68528 -10.85836,-3.28616 -3.626564,-1.8216 -6.279947,-3.77209 -9.117222,-6.70279 -2.791097,-2.88307 -4.395995,-5.18863 -6.151499,-8.84005 -2.433047,-5.06077 -3.760028,-10.29094 -3.209712,-15.38763 0.901122,-8.34543 3.878369,-16.71798 10.053033,-22.70117 2.903291,-2.81322 5.132788,-4.38658 8.707996,-6.14609 4.564943,-2.24672 9.501322,-3.35262 14.436373,-3.35179 z m 55.981191,30.67874 c 1.20772,-0.005 2.28943,0.0382 2.82211,0.14593 5.52587,1.11736 10.10487,4.55842 12.65045,9.48707 1.52446,2.9517 2.0052,4.949 2.0052,8.38448 0,5.32614 -1.73339,9.36031 -5.6527,13.12298 -2.2703,2.17953 -4.9042,3.66407 -7.86793,4.44744 -1.84889,0.48867 -6.35724,0.61 -8.23546,0.21928 -2.39686,-0.4986 -4.59832,-1.45103 -6.73214,-2.92172 -1.04883,-0.72284 -4.07801,-3.80559 -4.70994,-4.76554 -0.7973,-1.21115 -2.00575,-3.80783 -2.48083,-5.37242 -0.44201,-1.45588 -0.39852,-1.24357 -0.40536,-4.64585 v -0.003 c -0.007,-3.19071 -0.006,-3.35833 0.3181,-4.53777 1.80919,-6.57351 6.63015,-11.4057 13.15235,-13.19943 0.75965,-0.20893 3.1233,-0.35262 5.13615,-0.36135 z" />
    <rect
       style="fill:#ffdb13;fill-opacity:0.39393941;fill-rule:evenodd;stroke:#000000;stroke-width:1;stroke-linecap:round;stroke-linejoin:round;stroke-miterlimit:4;stroke-dasharray:none;stroke-opacity:1;paint-order:fill markers stroke"
       id="rect49913"
       width="170.26697"
       height="105.23077"
       x="27.276573"
       y="20.989405"
       ry="5.1382222" />
    <path
       id="path1066-8"
       style="color:#000000;fill:#ffffff;stroke:none;stroke-width:1.49415;stroke-opacity:0.0862471;-inkscape-stroke:none;paint-order:stroke fill markers"
       d="m 54.869726,35.782815 -4.394921,5.157 11.528559,10.48311 c -0.772126,0.85278 -1.483095,1.71396 -2.146499,2.6005 l -12.125412,-10.2476 -3.078451,6.03259 13.166231,7.26258 c -0.605944,1.01658 -1.185318,2.09176 -1.751173,3.2545 l -12.722261,-6.99775 -1.826841,6.52521 13.013351,4.0992 c -2.360742,6.51122 -2.881512,13.64828 -1.468577,20.60949 0.629508,3.10119 1.558826,5.80987 3.043706,8.88018 2.075055,4.29057 4.890744,8.163495 8.185271,11.232815 14.8329,13.82002 37.572031,13.81993 52.406261,0 2.51852,-2.34633 4.65759,-5.283835 6.51054,-8.413805 1.01145,5.690665 4.00254,10.820745 8.70491,14.358385 v 0.003 c 2.91565,2.19335 6.41473,3.73875 9.80596,4.2876 0.68955,0.11161 1.55972,0.28253 1.40063,0.24168 l 0.0702,0.0149 c 0.45409,0.1016 0.57477,0.0722 0.81999,0.0765 0.24523,0.004 0.51257,10e-4 0.79607,-0.003 0.56698,-0.0105 1.19337,-0.0305 1.62841,-0.0356 h 0.0149 0.0149 c 3.0117,-0.0814 5.50337,-0.58117 8.0432,-1.63381 8.68581,-3.59994 14.34473,-11.97331 14.34912,-21.280455 3.9e-4,-1.26698 -0.10519,-2.50849 -0.30035,-3.72008 l 0.46327,-0.14671 10.0067,-3.15412 -1.43846,-5.13925 -9.74341,5.36394 c -0.35491,-1.15995 -0.79924,-2.28063 -1.32342,-3.35488 l 0.51115,-0.28105 9.18362,-5.06898 -2.42215,-4.75396 -8.79987,7.44017 c -0.5972,-0.8976 -1.25639,-1.74958 -1.96969,-2.55264 l 0.38683,-0.35286 7.75983,-7.06183 -3.45834,-4.06291 -6.87111,9.32802 c -4.03596,-3.48573 -9.28685,-5.59789 -15.03631,-5.59789 -6.05132,0 -11.58597,2.20756 -15.90727,6.35611 -0.60174,0.5777 -0.92013,1.20862 -1.4153,1.77434 0.0914,-5.71018 -0.95021,-11.548 -3.43517,-16.72494 -2.07854,-4.33002 -4.27754,-7.45869 -7.55213,-10.73328 -7.46841,-7.46841 -17.23401,-11.2035 -26.999581,-11.2035 -9.32872,0 -18.65642,3.41078 -25.98269,10.22599 z m 35.561643,7.75519 c 1.13885,1.9e-4 2.27786,0.0591 3.412,0.17682 6.048,0.62759 11.964441,2.91925 17.056961,6.80548 1.30616,0.99696 4.61377,4.26795 5.64113,5.58245 4.57822,5.85854 6.94206,12.27539 7.20236,19.49995 0.20565,5.70645 -0.78325,10.49242 -3.20123,15.52198 -1.08569,2.25818 -2.3331,4.3073 -3.72394,6.12834 -0.93049,1.21831 -4.02003,4.378785 -5.34077,5.445775 -4.8998,3.95874 -11.23617,6.60996 -17.354221,7.27493 -1.72794,0.18777 -5.81183,0.17664 -7.5529,-0.02 -3.3194,-0.37506 -7.67111,-1.68528 -10.85836,-3.28616 -3.62657,-1.8216 -6.27995,-3.77209 -9.11722,-6.702785 -2.7911,-2.88307 -4.395998,-5.18863 -6.151502,-8.84005 -2.433047,-5.06077 -3.760028,-10.29094 -3.209712,-15.38763 0.901122,-8.34543 3.878369,-16.71798 10.053034,-22.70117 2.90329,-2.81322 5.13279,-4.38658 8.70799,-6.14609 4.56495,-2.24672 9.50133,-3.35262 14.43638,-3.35179 z m 55.981191,30.67874 c 1.20772,-0.005 2.28943,0.0382 2.82211,0.14593 5.52587,1.11736 10.10487,4.55842 12.65045,9.48707 1.52446,2.9517 2.0052,4.949 2.0052,8.38448 0,5.32614 -1.73339,9.360305 -5.6527,13.122975 -2.2703,2.17953 -4.9042,3.66407 -7.86793,4.44744 -1.84889,0.48867 -6.35724,0.61 -8.23546,0.21928 -2.39686,-0.4986 -4.59832,-1.45103 -6.73214,-2.92172 -1.04883,-0.72284 -4.07801,-3.80559 -4.70994,-4.76554 -0.7973,-1.21115 -2.00575,-3.807825 -2.48083,-5.372415 -0.44201,-1.45588 -0.39852,-1.24357 -0.40536,-4.64585 v -0.003 c -0.007,-3.19071 -0.006,-3.35833 0.3181,-4.53777 1.80919,-6.57351 6.63015,-11.4057 13.15235,-13.19943 0.75965,-0.20893 3.1233,-0.35262 5.13615,-0.36135 z" />
    <rect
       style="fill:#ffffff;fill-opacity:1;fill-rule:evenodd;stroke:#34373c;stroke-width:1;stroke-linecap:round;stroke-linejoin:round;stroke-miterlimit:4;stroke-dasharray:none;stroke-opacity:1;paint-order:fill markers stroke"
       id="rect41225"
       width="67.67308"
       height="67.67308"
       x="34.26923"
       y="149.71152"
       ry="0.29206827" />
    <text
       xml:space="preserve"
       style="font-style:normal;font-variant:normal;font-weight:normal;font-stretch:normal;font-size:7.05556px;line-height:1;font-family:Roboto;-inkscape-font-specification:Roboto;stroke-width:1.21375"
       x="52.167881"
       y="145.6925"
       id="text43882"><tspan
         sodipodi:role="line"
         id="tspan43880"
         style="font-style:normal;font-variant:normal;font-weight:normal;font-stretch:normal;font-size:7.05556px;font-family:Roboto;-inkscape-font-specification:Roboto;stroke-width:1.21375"
         x="52.167881"
         y="145.6925">PASSPORT</tspan></text>
    <text
       xml:space="preserve"
       style="font-style:normal;font-variant:normal;font-weight:normal;font-stretch:normal;font-size:14.1111px;line-height:1.25;font-family:Ranchers;-inkscape-font-specification:Ranchers;stroke-width:0.264583;fill:#22577a;fill-opacity:1"
       x="115.26923"
       y="147.63461"
       id="text53352"><tspan
         sodipodi:role="line"
         id="tspan53350"
         style="font-style:normal;font-variant:normal;font-weight:normal;font-stretch:normal;font-size:14.1111px;font-family:Ranchers;-inkscape-font-specification:Ranchers;stroke-width:0.264583;fill:#22577a;fill-opacity:1"
         x="115.26923"
         y="147.63461">PEEPS CLUB</tspan></text>
    <text
       xml:space="preserve"
       style="font-size:7.05556px;line-height:1.25;font-family:Roboto;-inkscape-font-specification:Roboto;stroke-width:0.264583"
       x="108.51923"
       y="161.65384"
       id="text7434"><tspan
         sodipodi:role="line"
         id="tspan7432"
         style="stroke-width:0.264583"
         x="108.51923"
         y="161.65384">Name</tspan></text>
    <text
       xml:space="preserve"
       style="font-size:7.05556px;line-height:1.25;font-family:Roboto;-inkscape-font-specification:Roboto;stroke-width:0.264583"
       x="108.69231"
       y="173.76923"
       id="text9388"><tspan
         sodipodi:role="line"
         id="tspan9386"
         style="stroke-width:0.264583"
         x="108.69231"
         y="173.76923">District</tspan></text>
    <text
       xml:space="preserve"
       style="font-size:7.05556px;line-height:1.25;font-family:Roboto;-inkscape-font-specification:Roboto;stroke-width:0.264583"
       x="108.69231"
       y="198.86537"
       id="text10646"><tspan
         sodipodi:role="line"
         id="tspan10644"
         style="stroke-width:0.264583"
         x="108.69231"
         y="198.86537">Birthdate</tspan></text>
    <text
       xml:space="preserve"
       style="font-size:7.05556px;line-height:1.25;font-family:Roboto;-inkscape-font-specification:Roboto;stroke-width:0.2;stroke-miterlimit:4;stroke-dasharray:none"
       x="108.87532"
       y="217.55768"
       id="text16508"><tspan
         sodipodi:role="line"
         id="tspan16506"
         style="fill:none;stroke:#000000;stroke-width:0.2;stroke-linecap:round;stroke-linejoin:bevel;stroke-miterlimit:4;stroke-dasharray:none;stroke-opacity:1"
         x="108.87532"
         y="217.55768">P&lt;PC12864&lt;7384&lt;101294</tspan></text>
    <text
       xml:space="preserve"
       style="font-size:7.05556px;line-height:1.25;font-family:Roboto;-inkscape-font-specification:Roboto;stroke-width:0.264583"
       x="108.6923"
       y="186.23077"
       id="text21693"><tspan
         sodipodi:role="line"
         id="tspan21691"
         style="stroke-width:0.264583"
         x="108.6923"
         y="186.23077">Pronouns</tspan></text>
  </g>
</svg>
