<?xml version="1.0" encoding="UTF-8" standalone="no"?>
<!-- Created with Inkscape (http://www.inkscape.org/) -->

<svg
   width="3840"
   height="2160"
   viewBox="0 0 1016 571.5"
   version="1.1"
   id="svg5"
   inkscape:version="1.1.1 (3bf5ae0d25, 2021-09-20)"
   sodipodi:docname="Sky Background Day.svg"
   xmlns:inkscape="http://www.inkscape.org/namespaces/inkscape"
   xmlns:sodipodi="http://sodipodi.sourceforge.net/DTD/sodipodi-0.dtd"
   xmlns="http://www.w3.org/2000/svg"
   xmlns:svg="http://www.w3.org/2000/svg">
  <sodipodi:namedview
     id="namedview7"
     pagecolor="#ffffff"
     bordercolor="#666666"
     borderopacity="1.0"
     inkscape:pageshadow="2"
     inkscape:pageopacity="0.0"
     inkscape:pagecheckerboard="0"
     inkscape:document-units="mm"
     showgrid="false"
     units="px"
     inkscape:zoom="0.19108796"
     inkscape:cx="1713.8704"
     inkscape:cy="1017.8558"
     inkscape:window-width="1920"
     inkscape:window-height="1017"
     inkscape:window-x="-8"
     inkscape:window-y="-8"
     inkscape:window-maximized="1"
     inkscape:current-layer="layer2">
    <inkscape:grid
       type="xygrid"
       id="grid6832" />
  </sodipodi:namedview>
  <defs
     id="defs2" />
  <g
     inkscape:label="Layer 1"
     inkscape:groupmode="layer"
     id="layer1"
     style="display:inline" />
  <g
     inkscape:groupmode="layer"
     id="layer2"
     inkscape:label="Layer 2"
     style="display:inline">
    <path
       style="fill:#a6f9de;stroke:none;stroke-width:0.0954365"
       d="M 0.00188525,286.30933 V 0 L 1024.0602,-1.063e-4 V 572.61856 L 0.00188525,572.61867 Z"
       id="path997"
       sodipodi:nodetypes="cccccc" />
    <path
       style="fill:#fae086;stroke:none;stroke-width:0.127624"
       d="M 0.00188525,423.73781 C 0.01406838,374.11086 -0.01604402,324.48388 0.06840514,274.85696 83.028956,297.87328 174.04017,310.15661 265.98677,314.85355 c 73.62529,4.27136 148.03188,6.6007 221.35536,-0.53302 46.2962,-3.31805 97.05361,-9.51994 138.4538,-17.86332 C 424.03465,315.01326 183.53857,289.95673 -0.48907711,240.51833 L 0.14383992,228.08966 C 188.45438,280.94876 430.29517,306.13158 637.9159,285.35032 c 47.56066,-3.91252 95.14526,-8.82661 138.70731,-20.7076 81.22132,-17.49195 161.16203,-38.4018 247.38209,-47.0477 v 355.02359 c -341.33438,0 -682.66878,0 -1024.00317287,-10e-6 z"
       id="path995"
       sodipodi:nodetypes="ssscsccssssss" />
    <path
       style="fill:#f3c470;stroke:none;stroke-width:0.127541"
       d="m -0.29860587,465.13537 c 0,0 203.84547587,17.91679 287.10154587,19.44486 142.34085,1.60553 285.47538,-2.8351 425.90731,-16.75179 105.12743,-10.55674 207.88418,-27.20492 311.03925,-42.46831 l 0.3107,147.25843 H 1.3964393 Z M 0.34850037,450.34843 -0.00568835,433.6114 C 111.69874,448.63921 226.12573,456.02434 340.79696,458.19743 240.15492,477.18886 109.5881,460.70281 0.34850037,450.34843 Z"
       id="path987"
       sodipodi:nodetypes="ccscccccccc" />
    <path
       style="fill:#82f8cd;stroke:none;stroke-width:0.127462"
       d="M 276.4628,210.72595 C 182.23015,209.44366 88.144364,199.66376 0.00188525,180.82459 V 0 H 1021.4092 c -0.5449,35.889114 1.0804,72.838219 -0.8087,108.07082 -114.65898,8.03679 -221.81795,33.94571 -331.15658,53.48171 -96.02508,20.05966 -193.00563,40.55186 -295.91171,45.94848 -38.79542,2.99477 -77.94227,3.90562 -117.06941,3.22494 z m 358.94337,-17.37521 c 111.07661,-27.94781 266.71586,-49.87577 383.66933,-68.22877 l -0.092,11.77939 c -129.15086,13.56195 -257.17742,36.88436 -383.57703,56.44938 z"
       id="path993"
       sodipodi:nodetypes="ssscsssssccss" />
    <path
       style="fill:#5ccaa1;stroke:none;stroke-width:0.127426"
       d="M 192.15758,157.69313 C 125.57261,155.79191 -0.10988297,129.80811 -0.10988297,129.80811 l 0.12418273,-22.84607 c 0,0 130.57930024,39.01786 195.00999024,50.64501 l -2.86671,0.0861 z m 168.94683,-4.67226 C 232.54678,152.29628 108.30649,126.33985 0.09288926,88.644689 L -0.25860393,54.191721 C 153.6318,112.70784 346.48219,136.49075 530.56164,127.21176 688.20195,115.5517 1014.4348,71.565772 1020.8824,74.320288 l -0.6442,15.05546 c 0,0 -368.01333,44.607902 -523.17334,59.355312 -45.0673,3.107 -90.56542,4.41924 -135.96045,4.28981 z M 445.66288,113.5016 C 293.92686,112.08461 125.80317,84.157356 -0.12767813,35.709768 L 0.00188525,0 H 38.117813 1021.4092 c -0.5541,19.659501 1.0878,40.404945 -0.8082,59.400868 -194.96148,6.78312 -378.58481,54.745522 -574.93812,54.100732 z"
       id="path983"
       sodipodi:nodetypes="sccccsccccccccccccccc" />
    <path
       style="fill:#f3e06f;stroke:none;stroke-width:0.0954365"
       d="m 564.54241,267.73486 c -32.78485,-0.77069 -57.49544,-37.7801 -44.80425,-68.3276 10.61879,-33.82601 59.53739,-44.42684 83.37932,-18.41828 24.08333,22.46792 17.40943,67.39454 -12.81152,80.93745 -7.69095,4.55285 -16.9318,6.0849 -25.76355,5.80843 z m -38.96409,-80.20854 c 0.71774,-0.6945 -0.49467,0.67987 0,0 z m 0.81121,-1.02332 c 0.49627,-0.88008 0.55236,-0.5883 0,0 z m 0.76349,-1.11232 c 0.005,-0.45385 0.49811,0.0581 0,0 z m 0.62035,-0.72745 c 1.43387,-1.36915 -1.20969,1.35423 0,0 z m 0.71577,-0.79954 c 0.005,-0.45381 0.49806,0.0581 0,0 z m 0.85893,-1.04979 c 0.005,-0.45384 0.49808,0.0581 0,0 z m 1.43154,-1.52699 c 0.005,-0.45383 0.49809,0.0581 0,0 z m 0.38174,-0.28631 c 0.005,-0.45383 0.49811,0.0581 0,0 z m 0.47719,-0.57262 c 0.005,-0.45382 0.49808,0.0581 0,0 z m 0.90664,-0.91832 c 0.71773,-0.69451 -0.49464,0.67987 0,0 z m 0.47718,-0.38175 c 0.71774,-0.69447 -0.49467,0.67986 0,0 z m 0.62035,-0.5249 c 1.25892,-1.20009 -1.03486,1.18522 0,0 z m 0.71577,-0.62034 c 0.71774,-0.69444 -0.49471,0.67985 0,0 z m 1.00208,-0.89496 c 0.005,-0.45385 0.49809,0.0581 0,0 z m 2.0996,-1.63411 c 0.90264,-0.86261 -0.67903,0.84788 0,0 z m 0.85893,-0.56093 c 0.005,-0.45384 0.49809,0.0581 0,0 z m 1.14523,-0.76349 c 0.005,-0.45383 0.49811,0.0581 0,0 z m 48.53494,-3.86795 c 0.18106,-0.24606 0.31915,0.39345 0,0 z m -0.86376,-0.38955 c 0.14364,-0.20415 0.24533,0.37142 0,0 z m -1.87957,-0.73435 c 0.4191,-0.13607 0.0401,0.1848 0,0 z m -1.43155,-0.57262 c 0.41908,-0.13608 0.0401,0.1848 0,0 z m -0.57262,-0.19087 c 0.41911,-0.13609 0.0401,0.1848 0,0 z m -29.20951,-0.28433 c 0.52553,-0.1548 0.0954,0.16691 0,0 z m 26.91904,-0.38373 c 0.4191,-0.13607 0.0401,0.1848 0,0 z m -1.48342,-0.38268 c 0.63014,-0.14099 0.12045,0.15684 0,0 z m -21.85676,-0.19052 c 0.73921,-0.14838 0.14194,0.15335 0,0 z m 21.13917,0.002 c 0.52556,-0.1548 0.0954,0.16691 0,0 z m -0.62033,-0.0981 c 0.73919,-0.14838 0.14193,0.15335 0,0 z m -19.51675,-0.0929 c 0.52553,-0.1548 0.0954,0.16691 0,0 z m 18.7115,-0.0974 c 0.41911,-0.13609 0.0401,0.1848 0,0 z m -0.48315,-0.0934 c 0.52558,-0.1548 0.0954,0.16691 0,0 z m -0.52309,-0.0984 c 0.63014,-0.14099 0.12045,0.15684 0,0 z m -14.6972,-0.0955 c 0.63014,-0.14099 0.12045,0.15684 0,0 z m 13.69331,-0.0925 c 0.52556,-0.1548 0.0954,0.16691 0,0 z m -6.87143,-0.195 c 0.95213,-0.14367 0.18623,0.14632 0,0 z m 5.77573,0.001 c 0.63014,-0.14099 0.12045,0.15684 0,0 z m -9.39635,-0.0945 c 0.41909,-0.13609 0.0401,0.1848 0,0 z m 0.37579,0.002 c 0.52555,-0.1548 0.0954,0.16691 0,0 z m 0.85893,0 c 0.52553,-0.1548 0.0954,0.16691 0,0 z m 0.71759,-0.003 c 0.63014,-0.14099 0.12045,0.15684 0,0 z m 6.58511,0 c 0.63014,-0.14099 0.12045,0.15684 0,0 z"
       id="path991"
       sodipodi:nodetypes="ccssssssssssssssssssssssscsssscssssssssssscssccscssscssssssssssscsssssssssssssssssssssssssssscscssssssssssssssssssscsssssssscsssssssssssssssccsssscsssssssssssssssssssssssssssssssssssssssssssssssssssssssccssssssccsssccssssssssccsssccsssccsssccsssccsssssssssssssssssssssssccsscssscsscsssccssccsccsssssccccccccccccccccssccccccccsccsssssssssssssssscccccssssccsccccsccssssssssccscccccccssssssssccsccccscc" />
  </g>
</svg>
