<?xml version="1.0" encoding="UTF-8" standalone="no"?>
<!-- Created with Inkscape (http://www.inkscape.org/) -->

<svg
   width="1715.744mm"
   height="1470.2711mm"
   viewBox="0 0 1715.744 1470.2711"
   version="1.1"
   id="svg3299"
   inkscape:version="1.2 (dc2aedaf03, 2022-05-15)"
   sodipodi:docname="wardrobe_rear.svg"
   xmlns:inkscape="http://www.inkscape.org/namespaces/inkscape"
   xmlns:sodipodi="http://sodipodi.sourceforge.net/DTD/sodipodi-0.dtd"
   xmlns="http://www.w3.org/2000/svg"
   xmlns:svg="http://www.w3.org/2000/svg">
  <sodipodi:namedview
     id="namedview3301"
     pagecolor="#ffffff"
     bordercolor="#000000"
     borderopacity="0.25"
     inkscape:showpageshadow="2"
     inkscape:pageopacity="0.0"
     inkscape:pagecheckerboard="0"
     inkscape:deskcolor="#d1d1d1"
     inkscape:document-units="mm"
     showgrid="false"
     inkscape:zoom="0.11658554"
     inkscape:cx="3152.192"
     inkscape:cy="2809.0963"
     inkscape:window-width="1920"
     inkscape:window-height="1115"
     inkscape:window-x="0"
     inkscape:window-y="48"
     inkscape:window-maximized="1"
     inkscape:current-layer="layer1" />
  <defs
     id="defs3296">
    <filter
       inkscape:collect="always"
       style="color-interpolation-filters:sRGB"
       id="filter72862"
       x="-0.015901074"
       y="-9.2046505"
       width="1.0318021"
       height="19.409301">
      <feGaussianBlur
         inkscape:collect="always"
         stdDeviation="2.4534593"
         id="feGaussianBlur72864" />
    </filter>
  </defs>
  <g
     inkscape:label="Layer 1"
     inkscape:groupmode="layer"
     id="layer1"
     transform="translate(914.02497,511.60394)">
    <rect
       style="display:inline;fill:#efefef;fill-opacity:1;fill-rule:evenodd;stroke:none;stroke-width:30.3611;stroke-linecap:round;stroke-miterlimit:4;stroke-dasharray:none;stroke-opacity:1;paint-order:markers stroke fill"
       id="rect20095-9"
       width="1635.0237"
       height="1410.8964"
       x="-869.08502"
       y="-453.12927" />
    <rect
       style="display:inline;fill:#c6c1c1;fill-opacity:1;fill-rule:evenodd;stroke:none;stroke-width:0.922594;stroke-linecap:round;stroke-miterlimit:4;stroke-dasharray:none;stroke-opacity:1;paint-order:markers stroke fill"
       id="rect2062-8"
       width="1609.8855"
       height="108.13589"
       x="-830.66168"
       y="850.53125" />
    <path
       style="display:inline;fill:none;stroke:none;stroke-width:0.219361px;stroke-linecap:butt;stroke-linejoin:miter;stroke-opacity:1"
       d="m -835.23027,948.7531 v -1382.35631 0"
       id="path54476" />
    <path
       style="display:inline;fill:#d4d4d4;fill-opacity:1;stroke:#6d6d6d;stroke-width:8.29082;stroke-linecap:butt;stroke-linejoin:miter;stroke-miterlimit:4;stroke-dasharray:none;stroke-opacity:1"
       d="M 712.73373,-421.7409 H -828.05937"
       id="path55577" />
    <path
       style="display:inline;fill:#d4d4d4;fill-opacity:1;stroke:#6d6d6d;stroke-width:8.30077;stroke-linecap:butt;stroke-linejoin:miter;stroke-miterlimit:4;stroke-dasharray:none;stroke-opacity:1"
       d="M 725.45013,944.6005 H -829.59497"
       id="path55579" />
    <rect
       style="display:inline;fill:#595959;fill-opacity:1;fill-rule:evenodd;stroke:none;stroke-width:8.4888;stroke-linecap:square;stroke-linejoin:round;stroke-miterlimit:4;stroke-dasharray:none;stroke-opacity:1;paint-order:fill markers stroke"
       id="rect62429"
       width="440.51758"
       height="1157.7544"
       x="303.9108"
       y="-422.43518"
       ry="0.47083041" />
    <rect
       style="display:inline;fill:#595959;fill-opacity:1;fill-rule:evenodd;stroke:none;stroke-width:12.4138;stroke-linecap:square;stroke-linejoin:round;stroke-miterlimit:4;stroke-dasharray:none;stroke-opacity:1;paint-order:fill markers stroke"
       id="rect62149"
       width="896.61633"
       height="250.66066"
       x="-171.11169"
       y="674.5155"
       ry="0.47032681" />
    <rect
       style="display:inline;fill:#e3e3e3;fill-opacity:1;fill-rule:evenodd;stroke:none;stroke-width:11.9137;stroke-linecap:square;stroke-linejoin:round;stroke-miterlimit:4;stroke-dasharray:none;stroke-opacity:1;paint-order:fill markers stroke"
       id="rect63379-14-9"
       width="437.03174"
       height="224.62585"
       x="314.8877"
       y="450.70877" />
    <rect
       style="display:inline;fill:#e3e3e3;fill-opacity:1;fill-rule:evenodd;stroke:none;stroke-width:11.9137;stroke-linecap:square;stroke-linejoin:round;stroke-miterlimit:4;stroke-dasharray:none;stroke-opacity:1;paint-order:fill markers stroke"
       id="rect63379-14-9-6"
       width="437.03174"
       height="224.62585"
       x="313.71948"
       y="212.55847" />
    <rect
       style="display:inline;fill:#e3e3e3;fill-opacity:1;fill-rule:evenodd;stroke:none;stroke-width:11.9137;stroke-linecap:square;stroke-linejoin:round;stroke-miterlimit:4;stroke-dasharray:none;stroke-opacity:1;paint-order:fill markers stroke"
       id="rect63379-14-9-5"
       width="437.03174"
       height="224.62585"
       x="314.96033"
       y="-24.589954" />
    <rect
       style="display:inline;fill:#e3e3e3;fill-opacity:1;fill-rule:evenodd;stroke:none;stroke-width:11.9137;stroke-linecap:square;stroke-linejoin:round;stroke-miterlimit:4;stroke-dasharray:none;stroke-opacity:1;paint-order:fill markers stroke"
       id="rect63379-14-9-8"
       width="437.03174"
       height="224.62585"
       x="314.96033"
       y="-262.54044" />
    <rect
       style="display:inline;opacity:0.652439;fill:#e3e3e3;fill-opacity:1;fill-rule:evenodd;stroke:none;stroke-width:11.9137;stroke-linecap:square;stroke-linejoin:round;stroke-miterlimit:4;stroke-dasharray:none;stroke-opacity:1;paint-order:fill markers stroke"
       id="rect63379-14-9-4"
       width="437.03174"
       height="224.62585"
       x="313.71948"
       y="-501.66986" />
    <rect
       style="display:inline;fill:#e3e3e3;fill-opacity:1;fill-rule:evenodd;stroke:none;stroke-width:8.47421;stroke-linecap:square;stroke-linejoin:round;stroke-miterlimit:4;stroke-dasharray:none;stroke-opacity:1;paint-order:fill markers stroke"
       id="rect63379-1"
       width="221.1161"
       height="224.62585"
       x="-152.55566"
       y="692.49646" />
    <rect
       style="display:inline;fill:#595959;fill-opacity:1;fill-rule:evenodd;stroke:none;stroke-width:15.6331;stroke-linecap:square;stroke-linejoin:round;stroke-miterlimit:4;stroke-dasharray:none;stroke-opacity:1;paint-order:fill markers stroke"
       id="rect62431"
       width="1131.0592"
       height="157.17719"
       x="-825.98883"
       y="-419.96265"
       ry="0.020309271"
       rx="0.50262666" />
    <rect
       style="display:inline;opacity:0.691057;fill:#e3e3e3;fill-opacity:1;fill-rule:evenodd;stroke:none;stroke-width:18.9722;stroke-linecap:square;stroke-linejoin:round;stroke-miterlimit:4;stroke-dasharray:none;stroke-opacity:1;paint-order:fill markers stroke"
       id="rect63379-14-9-4-9"
       width="1108.3066"
       height="224.62585"
       x="-805.51825"
       y="-501.74512" />
    <path
       style="display:inline;opacity:0.182927;fill:#000000;fill-opacity:1;stroke:#000000;stroke-width:0.367906px;stroke-linecap:butt;stroke-linejoin:miter;stroke-opacity:1"
       d="m 307.11543,217.2124 c -617.0776,-83.30419 -922.6502,-68.7828 -1134.8577,2.1774 l -0.3141,-482.82572 1135.8108,-1.7542 z"
       id="path68249"
       sodipodi:nodetypes="ccccc" />
    <path
       id="rect74862"
       style="display:inline;opacity:0.162602;fill:#000000;fill-opacity:1;fill-rule:evenodd;stroke:none;stroke-width:11.9137;stroke-linecap:square;stroke-linejoin:round;stroke-opacity:1;paint-order:fill markers stroke"
       d="m 314.96033,-262.54048 h 437.0318 v 224.625861 h -437.0318 z" />
    <rect
       style="display:inline;opacity:0.0650407;fill:#000000;fill-opacity:1;fill-rule:evenodd;stroke:none;stroke-width:11.9137;stroke-linecap:square;stroke-linejoin:round;stroke-miterlimit:4;stroke-dasharray:none;stroke-opacity:1;paint-order:fill markers stroke"
       id="rect75268"
       width="437.03174"
       height="224.62585"
       x="314.96033"
       y="-24.589954" />
    <path
       style="display:inline;fill:#595959;fill-opacity:1;stroke:#000000;stroke-width:0.219361px;stroke-linecap:butt;stroke-linejoin:miter;stroke-opacity:1"
       d="M -116.73617,708.8732 H 21.623534 l -11.5443,19.9954 H -104.94767 Z"
       id="path64889-8" />
    <path
       style="display:inline;fill:none;stroke:#000000;stroke-width:8.29082;stroke-linecap:round;stroke-linejoin:miter;stroke-miterlimit:4;stroke-dasharray:none;stroke-opacity:1"
       d="m 164.25323,-149.82882 c -1.2095,-9.33092 12.1841,-30.81343 26.6395,-18.03896 12.5928,11.12841 -0.01,27.17426 -5.6158,39.26944 l -59.6662,82.479811 c 29.4371,-10.87241 52.1955,-27.909707 101.7836,-20.181227 l -43.8723,-59.666254"
       id="path81477-1"
       sodipodi:nodetypes="cscccc" />
    <path
       style="display:inline;fill:none;stroke:#000000;stroke-width:8.29082;stroke-linecap:round;stroke-linejoin:miter;stroke-miterlimit:4;stroke-dasharray:none;stroke-opacity:1"
       d="m 231.20203,-149.99873 c -1.2095,-9.33093 12.1841,-30.81343 26.6395,-18.03896 12.5927,11.12841 -0.01,27.17425 -5.6158,39.26944 l -59.6663,82.479811 c 29.4371,-10.87242 52.1956,-27.909707 101.7836,-20.181227 l -43.8722,-59.666254"
       id="path81477"
       sodipodi:nodetypes="cscccc" />
    <path
       style="display:inline;fill:none;stroke:#000000;stroke-width:8.29082;stroke-linecap:round;stroke-linejoin:miter;stroke-miterlimit:4;stroke-dasharray:none;stroke-opacity:1"
       d="m 58.341734,-150.00221 c -1.2095,-9.33093 12.1841,-30.81343 26.6395,-18.03896 12.5927,11.1284 -0.01,27.17425 -5.6158,39.26943 l -59.6663,82.479811 c 29.4371,-10.87241 52.1956,-27.909697 101.783596,-20.181217 L 77.610534,-126.1394"
       id="path81477-3"
       sodipodi:nodetypes="cscccc" />
    <rect
       style="display:inline;fill:#726c6c;fill-opacity:1;fill-rule:evenodd;stroke:none;stroke-width:15.6738;stroke-linecap:square;stroke-linejoin:round;stroke-miterlimit:4;stroke-dasharray:none;stroke-opacity:1;paint-order:fill markers stroke"
       id="rect62433"
       width="1126.467"
       height="19.854309"
       x="-828.11749"
       y="-166.19048"
       ry="0.47032577" />
    <path
       style="display:inline;fill:#d4d4d4;fill-opacity:1;stroke:#6d6d6d;stroke-width:8.29082;stroke-linecap:butt;stroke-linejoin:miter;stroke-miterlimit:4;stroke-dasharray:none;stroke-opacity:1"
       d="M 712.73373,-423.93453 H -828.05937"
       id="path60992" />
    <rect
       style="display:inline;fill:#e3e3e3;fill-opacity:1;fill-rule:evenodd;stroke:none;stroke-width:8.47421;stroke-linecap:square;stroke-linejoin:round;stroke-miterlimit:4;stroke-dasharray:none;stroke-opacity:1;paint-order:fill markers stroke"
       id="rect63379"
       width="221.1161"
       height="224.62585"
       x="80.095963"
       y="692.88367" />
    <path
       style="display:inline;fill:#595959;fill-opacity:1;stroke:#000000;stroke-width:0.219361px;stroke-linecap:butt;stroke-linejoin:miter;stroke-opacity:1"
       d="m 115.91523,709.2604 h 138.3597 l -11.5443,19.9954 h -115.0268 z"
       id="path64889" />
    <rect
       style="display:inline;fill:#e3e3e3;fill-opacity:1;fill-rule:evenodd;stroke:none;stroke-width:8.47421;stroke-linecap:square;stroke-linejoin:round;stroke-miterlimit:4;stroke-dasharray:none;stroke-opacity:1;paint-order:fill markers stroke"
       id="rect63379-7"
       width="221.1161"
       height="224.62585"
       x="314.37378"
       y="692.88354" />
    <path
       style="display:inline;fill:#595959;fill-opacity:1;stroke:#000000;stroke-width:0.219361px;stroke-linecap:butt;stroke-linejoin:miter;stroke-opacity:1"
       d="m 350.19293,709.2604 h 138.3597 l -11.5442,19.9954 h -115.0269 z"
       id="path64889-0" />
    <rect
       style="display:inline;fill:#e3e3e3;fill-opacity:1;fill-rule:evenodd;stroke:none;stroke-width:8.47421;stroke-linecap:square;stroke-linejoin:round;stroke-miterlimit:4;stroke-dasharray:none;stroke-opacity:1;paint-order:fill markers stroke"
       id="rect63379-7-6"
       width="221.1161"
       height="224.62585"
       x="547.50269"
       y="692.42102" />
    <path
       style="display:inline;fill:#595959;fill-opacity:1;stroke:#000000;stroke-width:0.219361px;stroke-linecap:butt;stroke-linejoin:miter;stroke-opacity:1"
       d="m 583.32153,708.798 h 138.3597 l -11.5442,19.9953 h -115.0269 z"
       id="path64889-0-1" />
    <path
       style="display:inline;fill:none;stroke:#ffffff;stroke-width:2;stroke-linecap:butt;stroke-linejoin:miter;stroke-miterlimit:4;stroke-dasharray:none;stroke-opacity:1;filter:url(#filter72862)"
       d="M 1985.3849,583.71665 1614.9494,584.465"
       id="path72728"
       transform="matrix(2.9631067,0,0,0.82908172,-5593.428,-640.83257)" />
    <path
       style="color:#000000;display:inline;fill:#000000;stroke-width:0.829082;stroke-linecap:round;-inkscape-stroke:none"
       d="m 246.65143,-175.80841 c -4.4702,0.4968 -8.2492,2.85105 -11.2185,5.78252 -5.9389,5.86294 -9.5514,13.7897 -8.6438,20.79182 0.294,2.27076 2.3734,3.87306 4.6441,3.57866 2.2701,-0.29483 3.8715,-2.37398 3.577,-4.64416 -0.3018,-2.32879 2.1779,-9.80817 6.2472,-13.82559 2.0348,-2.0087 4.24,-3.2127 6.3089,-3.44263 1.5973,-0.17752 3.2821,0.0788 5.3219,1.40191 l 8.5103,-0.12196 c 0.6195,-1.57582 0.2282,-3.43769 -1.1142,-4.62381 -4.2839,-3.78572 -9.1628,-5.39355 -13.6329,-4.89676 z"
       id="path82838"
       sodipodi:nodetypes="ssscssscccs" />
    <path
       style="color:#000000;display:inline;fill:#000000;stroke-width:0.829082;stroke-linecap:round;-inkscape-stroke:none"
       d="m 179.70263,-175.6385 c -4.4702,0.4968 -8.2491,2.85106 -11.2185,5.78252 -5.9388,5.86295 -9.5514,13.7897 -8.6438,20.79182 0.2941,2.27076 2.3734,3.87307 4.6441,3.57866 2.2701,-0.29483 3.8716,-2.37398 3.5771,-4.64416 -0.3019,-2.32879 2.1778,-9.80817 6.2472,-13.82558 2.0347,-2.00871 4.2399,-3.2127 6.3088,-3.44263 1.5973,-0.17753 3.2822,0.0788 5.3219,1.4019 l 8.5103,-0.12196 c 0.6195,-1.57582 0.2283,-3.43769 -1.1142,-4.6238 -4.2838,-3.78573 -9.1627,-5.39356 -13.6329,-4.89677 z"
       id="path82838-2"
       sodipodi:nodetypes="ssscssscccs" />
    <path
       style="color:#000000;display:inline;fill:#000000;stroke-width:0.829082;stroke-linecap:round;-inkscape-stroke:none"
       d="m 73.791134,-175.81189 c -4.4702,0.4968 -8.2492,2.85105 -11.2185,5.78252 -5.9389,5.86294 -9.5514,13.78969 -8.6439,20.79182 0.2941,2.27075 2.3735,3.87306 4.6441,3.57866 2.2702,-0.29483 3.8716,-2.37398 3.5771,-4.64416 -0.3018,-2.32879 2.1779,-9.80817 6.2472,-13.82559 2.0348,-2.00871 4.24,-3.2127 6.3088,-3.44263 1.5974,-0.17752 3.2822,0.0788 5.322,1.40191 l 8.5103,-0.12196 c 0.6195,-1.57582 0.2282,-3.43769 -1.1142,-4.62381 -4.2839,-3.78573 -9.1628,-5.39356 -13.6329,-4.89676 z"
       id="path82838-5"
       sodipodi:nodetypes="ssscssscccs" />
    <rect
       style="display:inline;opacity:0.0304878;fill:#000000;fill-opacity:1;fill-rule:evenodd;stroke:none;stroke-width:11.9137;stroke-linecap:square;stroke-linejoin:round;stroke-miterlimit:4;stroke-dasharray:none;stroke-opacity:1;paint-order:fill markers stroke"
       id="rect75396"
       width="437.03174"
       height="224.62585"
       x="313.71948"
       y="212.55847" />
    <path
       id="path130721"
       style="display:inline;fill:none;fill-rule:evenodd;stroke:#ffffff;stroke-width:76.2664;stroke-linecap:square;stroke-miterlimit:4;stroke-dasharray:none;paint-order:markers stroke fill"
       d="M -875.89177,915.5937 V -473.47074 H 763.58583 V 915.5937"
       sodipodi:nodetypes="cccc" />
    <rect
       style="display:inline;opacity:0.585366;fill:#000000;fill-rule:evenodd;stroke-width:8.29082;stroke-linecap:round;stroke-linejoin:round;paint-order:fill markers stroke"
       id="rect134691"
       width="735.94556"
       height="209.02596"
       x="-812.7226"
       y="-418.74249" />
  </g>
</svg>
