<?xml version="1.0" encoding="UTF-8" standalone="no"?>
<!DOCTYPE svg PUBLIC "-//W3C//DTD SVG 1.1//EN" "http://www.w3.org/Graphics/SVG/1.1/DTD/svg11.dtd">
<!-- Created with Vectornator (http://vectornator.io/) -->
<svg height="100%" stroke-miterlimit="10" style="fill-rule:nonzero;clip-rule:evenodd;stroke-linecap:round;stroke-linejoin:round;" version="1.1" viewBox="0 0 1920 1080" width="100%" xml:space="preserve" xmlns="http://www.w3.org/2000/svg" xmlns:vectornator="http://vectornator.io" xmlns:xlink="http://www.w3.org/1999/xlink">
<defs/>
<g id="Pumpkin" vectornator:layerName="Pumpkin">
<path d="M1001.5 286.007L1002.67 190.179L1040.93 211.071L1052.41 164.098L1140.57 177.398L1071.8 197.538L1065.88 252.033L1026.78 237.225L1054.09 287.176" fill="#774300" fill-rule="nonzero" opacity="1" stroke="#131313" stroke-linecap="butt" stroke-linejoin="round" stroke-width="6.83034"/>
<path d="M949.032 243.17C843.73 245.317 810.39 318.382 810.39 318.382C810.39 318.382 769.743 279.335 705.187 285.99C615.053 295.283 607.869 342.459 605.912 346.219C605.912 346.219 556.831 326.243 525.297 371.99C433.359 505.369 473.339 858.405 518.289 907.797C563.24 957.189 606.496 945.155 606.496 945.155C606.496 945.155 608.105 955.642 613.004 970.088C623.847 1002.06 650.806 1053.42 712.112 1053.42C785.69 1053.42 814.97 1016.81 814.97 1016.81C814.97 1016.81 875.105 1061.2 964.262 1061.2C1055 1061.2 1114.55 1019.15 1114.55 1019.15C1114.55 1019.15 1125.53 1054.96 1223.78 1054.96C1286.86 1054.96 1312.4 979.422 1312.4 979.422C1312.4 979.422 1352.09 1015.85 1404.55 933.484C1505.39 775.155 1443.48 421.045 1395.97 362.637C1359.56 317.871 1312.4 327.045 1312.4 327.045C1312.4 327.045 1290.49 260.5 1207.97 259.835C1135 259.246 1109.97 318.382 1109.97 318.382C1109.97 318.382 1076.19 245.935 959.461 243.198C955.913 243.114 952.429 243.101 949.032 243.17ZM814.97 423.845C907.787 423.845 983.024 499.071 983.024 591.871C983.024 684.671 907.787 759.897 814.97 759.897C722.153 759.897 646.889 684.671 646.889 591.871C646.889 499.071 722.153 423.845 814.97 423.845ZM1140.57 483.303C1209.46 483.303 1265.3 539.185 1265.3 608.122C1265.3 677.059 1209.46 732.941 1140.57 732.941C1071.67 732.941 1015.83 677.059 1015.83 608.122C1015.83 539.185 1071.67 483.303 1140.57 483.303ZM1230.01 737.659C1230.01 737.659 1191.69 886.628 1095.26 954.051C1092.5 955.983 1084.2 941.305 1084.2 941.304L1067.48 952.451C1067.48 952.451 1070.84 968.678 1066.9 970.523C1062.21 972.722 1057.39 974.724 1052.47 976.51C1045.19 979.151 1041.27 959.956 1041.27 959.956L1022.31 960.535C1022.31 960.535 1017.22 984.722 1014.26 984.815C1006.06 985.072 997.721 984.281 989.314 982.58C983.719 981.448 990.832 958.852 990.832 958.852L972.705 953.831C972.705 953.831 962.475 974.333 960.427 973.475C953.859 970.723 947.296 967.539 940.755 963.984C935.871 961.329 944.563 940.725 944.563 940.725L926.987 929.579C926.987 929.579 910.804 945.217 907.757 943.015C829.342 886.339 762.741 792.178 762.741 792.178C762.741 792.178 778.29 801.135 803.299 812.788C813.541 817.56 826.724 845.179 826.724 845.179L844.188 849.98C844.188 849.98 849.466 831.248 855.032 833.177C862.092 835.625 883.705 844.498 891.12 846.752C894.369 847.74 890.016 868.135 890.016 868.135C890.016 868.135 910.91 873.254 913.882 874.039C920.496 875.787 923.132 855.434 929.884 856.905C938.95 858.88 957.309 861.927 957.309 861.927L964.041 881.626L991.218 884.661C991.218 884.661 990.641 864.174 1005.68 864.382C1014.23 864.5 1022.53 864.386 1027.53 863.803C1030.27 863.483 1033.27 881.544 1033.27 881.544L1061.79 878.564C1061.79 878.564 1060.08 857.507 1067.4 855.222C1073.86 853.203 1080.19 850.932 1086.38 848.435C1092.61 845.916 1099.98 866.038 1099.98 866.038L1123.71 854.753C1123.71 854.753 1116.11 834.326 1119.04 832.681C1125.31 829.166 1131.39 825.49 1137.23 821.7C1143.88 817.381 1157.4 830.584 1157.4 830.584L1173.7 820.651C1173.7 820.651 1170 797.761 1172.18 795.958C1208.44 765.999 1230.01 737.659 1230.01 737.659Z" fill="#ff9000" fill-rule="nonzero" opacity="1" stroke="#131313" stroke-linecap="round" stroke-linejoin="bevel" stroke-width="6.83034"/>
<path d="M762.74 792.167C762.74 792.167 778.298 801.134 803.308 812.787C813.549 817.559 826.723 845.179 826.723 845.179L844.182 849.974C844.182 849.974 849.47 831.257 855.036 833.187C862.096 835.634 883.717 844.494 891.132 846.748C894.381 847.735 890.007 868.133 890.007 868.133C890.007 868.133 910.911 873.262 913.883 874.048C920.497 875.796 923.139 855.438 929.892 856.909C938.957 858.884 957.301 861.921 957.301 861.921L964.041 881.615L991.209 884.656C991.209 884.656 990.634 864.166 1005.67 864.374C1014.22 864.492 1022.52 864.398 1027.52 863.815C1030.27 863.495 1033.26 881.544 1033.26 881.544L1061.8 878.572C1061.8 878.572 1060.08 857.521 1067.39 855.236C1073.85 853.216 1080.18 850.936 1086.36 848.439C1092.6 845.92 1099.98 866.038 1099.98 866.038L1123.72 854.765C1123.72 854.765 1116.11 834.323 1119.05 832.678C1125.32 829.163 1131.38 825.48 1137.22 821.691C1143.88 817.372 1157.39 830.596 1157.39 830.596L1173.7 820.641C1173.7 820.641 1169.99 797.755 1172.17 795.952C1208.43 765.993 1230.01 737.653 1230.01 737.653C1230.01 737.653 1191.68 886.635 1095.26 954.058C1092.5 955.99 1084.19 941.294 1084.19 941.294L1067.47 952.442C1067.47 952.442 1070.84 968.692 1066.9 970.536C1062.21 972.735 1057.4 974.737 1052.47 976.523C1045.19 979.165 1041.27 959.968 1041.27 959.968L1022.31 960.525C1022.31 960.525 1017.21 984.718 1014.25 984.811C1006.05 985.068 997.72 984.27 989.314 982.57C983.719 981.438 990.82 958.853 990.82 958.853L972.703 953.836C972.703 953.836 962.471 974.338 960.423 973.48C953.855 970.728 947.285 967.539 940.744 963.983C935.86 961.329 944.553 940.736 944.553 940.736L926.994 929.588C926.994 929.588 910.802 945.213 907.755 943.011C829.341 886.335 762.74 792.167 762.74 792.167Z" fill="#aecbe1" fill-opacity="0.65" fill-rule="nonzero" opacity="1" stroke="#131313" stroke-linecap="butt" stroke-linejoin="round" stroke-width="8.0883"/>
<path d="M1015.82 606.605C1015.82 537.667 1071.67 481.782 1140.57 481.782C1209.46 481.782 1265.31 537.667 1265.31 606.605C1265.31 675.542 1209.46 731.427 1140.57 731.427C1071.67 731.427 1015.82 675.542 1015.82 606.605Z" fill="#aecbe1" fill-opacity="0.648649" fill-rule="nonzero" opacity="1" stroke="#131313" stroke-linecap="butt" stroke-linejoin="round" stroke-width="8.0883"/>
<path d="M646.902 591.292C646.902 498.491 722.145 423.262 814.962 423.262C907.779 423.262 983.022 498.491 983.022 591.292C983.022 684.092 907.779 759.321 814.962 759.321C722.145 759.321 646.902 684.092 646.902 591.292Z" fill="#aecbe1" fill-opacity="0.648649" fill-rule="nonzero" opacity="1" stroke="#131313" stroke-linecap="butt" stroke-linejoin="round" stroke-width="8.0883"/>
<g opacity="1">
<path d="M608.601 339.328C578.116 431.818 575.733 477.318 575.733 477.318" fill="#ff9000" fill-rule="nonzero" stroke="none"/>
<path d="M609.562 336.375C607.932 335.84 606.192 336.713 605.656 338.344C602.74 347.483 599.888 356.664 597.312 365.906C591.866 385.45 587.213 405.259 583.25 425.156C581.082 436.038 579.174 446.971 577.688 457.969C576.823 464.367 575.927 470.85 575.719 477.312C576.208 470.875 577.359 464.469 578.5 458.125C580.25 448.397 582.385 438.729 584.719 429.125C589.776 408.319 596.026 387.86 602.625 367.5C605.569 358.419 608.509 349.358 611.562 340.312C612.098 338.682 611.193 336.91 609.562 336.375Z" fill="#131313" stroke="none"/>
</g>
<g opacity="1">
<path d="M814.962 310.74C800.614 332.437 802.822 387.782 802.822 387.782" fill="#ff9000" fill-rule="nonzero" stroke="none"/>
<path d="M814.312 307.688C813.535 307.856 812.808 308.341 812.344 309.062C806.385 318.617 804.423 330.083 803.344 341.125C802.435 350.42 802.107 359.756 802.156 369.094C802.189 375.319 802.325 381.572 802.812 387.781C802.815 379.684 803.321 371.555 804.094 363.5C805.032 353.717 806.455 343.994 808.906 334.469C810.865 326.854 813.158 319.038 817.562 312.438C818.492 310.995 818.099 309.055 816.656 308.125C815.935 307.66 815.09 307.519 814.312 307.688Z" fill="#131313" stroke="none"/>
</g>
<g opacity="1">
<path d="M1102.85 307.54C1124.15 322.408 1118.83 387.685 1118.83 387.685" fill="#ff9000" fill-rule="nonzero" stroke="none"/>
<path d="M1102.38 304.469C1101.59 304.591 1100.85 305.026 1100.34 305.719C1099.33 307.105 1099.64 309.05 1101.03 310.062C1104.54 312.534 1106.93 316.054 1108.84 319.844C1110.01 322.166 1111.09 324.605 1111.94 327.062C1112.52 328.739 1112.97 330.455 1113.47 332.156C1116.03 340.825 1117.28 349.857 1118.06 358.844C1118.89 368.411 1119.26 378.086 1118.84 387.688C1119.45 382.516 1119.77 377.293 1120 372.094C1120.29 365.382 1120.36 358.652 1120.09 351.938C1119.91 347.267 1119.55 342.61 1119 337.969C1118.55 334.168 1117.98 330.39 1117 326.688C1116.53 324.916 1116.1 323.149 1115.53 321.406C1113.46 315.104 1110.06 309.066 1104.69 305.031C1103.99 304.525 1103.16 304.346 1102.38 304.469Z" fill="#131313" stroke="none"/>
</g>
<g opacity="1">
<path d="M1310.55 322.995C1324.69 359.647 1339.9 438.85 1339.9 438.85" fill="#ff9000" fill-rule="nonzero" stroke="none"/>
<path d="M1309.44 320.094C1307.83 320.706 1307.04 322.49 1307.66 324.094C1312.31 335.936 1315.94 348.185 1319.66 360.344C1323.9 374.236 1327.7 388.228 1331.25 402.312C1334.31 414.442 1337.23 426.624 1339.91 438.844C1336.48 418.126 1332.44 397.518 1328.12 376.969C1324.22 358.378 1320.08 339.722 1313.47 321.875C1312.86 320.272 1311.04 319.481 1309.44 320.094Z" fill="#131313" stroke="none"/>
</g>
<g opacity="1">
<path d="M1309.33 989.768C1324.68 942.816 1328.92 885.415 1328.92 885.415" fill="#ff9000" fill-rule="nonzero" stroke="none"/>
<path d="M1328.91 885.406C1327.75 896.517 1326.05 907.6 1324.09 918.594C1319.87 942.37 1314.02 965.898 1306.38 988.812C1305.85 990.447 1306.74 992.194 1308.38 992.719C1310.01 993.244 1311.76 992.353 1312.28 990.719C1314.45 983.698 1316.43 976.612 1318.03 969.438C1320.77 957.13 1322.68 944.646 1324.38 932.156C1325.6 923.159 1326.63 914.135 1327.47 905.094C1328.07 898.548 1328.61 891.975 1328.91 885.406Z" fill="#131313" stroke="none"/>
</g>
<g opacity="1">
<path d="M1109.46 1021.79C1126.65 1007.45 1134.66 972.744 1134.66 972.744" fill="#ff9000" fill-rule="nonzero" stroke="none"/>
<path d="M1134.66 972.75C1133.51 976.657 1132.08 980.474 1130.56 984.25C1127.38 992.201 1123.5 999.816 1118.59 1006.84C1115.37 1011.46 1111.79 1015.84 1107.44 1019.44C1106.14 1020.56 1105.97 1022.55 1107.09 1023.84C1108.22 1025.14 1110.2 1025.28 1111.5 1024.16C1114.18 1021.74 1116.59 1019.06 1118.66 1016.09C1122.53 1010.53 1125.26 1004.17 1127.62 997.844C1130.65 989.734 1133.16 981.291 1134.66 972.75Z" fill="#131313" stroke="none"/>
</g>
<g opacity="1">
<path d="M821.669 1021.55C802.602 1008.01 796.988 957.194 796.988 957.194" fill="#ff9000" fill-rule="nonzero" stroke="none"/>
<path d="M797 957.188C797.418 963.416 798.282 969.63 799.312 975.781C800.767 984.46 802.71 993.085 805.5 1001.44C808.339 1009.94 812.557 1018.53 819.844 1024.06C821.227 1025.08 823.172 1024.76 824.188 1023.38C825.203 1021.99 824.884 1020.05 823.5 1019.03C817.446 1014.76 813.629 1007.93 810.344 1001.47C806.675 994.253 804.049 986.555 801.844 978.781C799.836 971.704 798.138 964.462 797 957.188Z" fill="#131313" stroke="none"/>
</g>
<g opacity="1">
<path d="M606.752 946.65C595.327 891.036 588.181 811.852 588.181 811.852" fill="#ff9000" fill-rule="nonzero" stroke="none"/>
<path d="M588.188 811.844C589.595 832.685 591.554 853.503 593.688 874.281C595.309 890.075 596.954 905.886 599.281 921.594C600.554 930.185 602.071 938.755 603.719 947.281C604.059 948.964 605.693 950.028 607.375 949.688C609.057 949.347 610.153 947.714 609.812 946.031C607.37 934.477 605.169 922.858 603 911.25C602.529 908.728 602.147 906.212 601.688 903.688C596.143 873.257 591.677 842.58 588.188 811.844Z" fill="#131313" stroke="none"/>
</g>
</g>
</svg>
