<?xml version="1.0" encoding="UTF-8" standalone="no"?>
<!-- Created with Inkscape (http://www.inkscape.org/) -->

<svg
   width="84.048103mm"
   height="24.903196mm"
   viewBox="0 0 84.048103 24.903196"
   version="1.1"
   id="svg26893"
   inkscape:version="1.2.1 (9c6d41e410, 2022-07-14)"
   sodipodi:docname="Cloud Button Asset.svg"
   xmlns:inkscape="http://www.inkscape.org/namespaces/inkscape"
   xmlns:sodipodi="http://sodipodi.sourceforge.net/DTD/sodipodi-0.dtd"
   xmlns="http://www.w3.org/2000/svg"
   xmlns:svg="http://www.w3.org/2000/svg">
  <sodipodi:namedview
     id="namedview26895"
     pagecolor="#ffffff"
     bordercolor="#666666"
     borderopacity="1.0"
     inkscape:pageshadow="2"
     inkscape:pageopacity="0.0"
     inkscape:pagecheckerboard="0"
     inkscape:document-units="mm"
     showgrid="false"
     inkscape:zoom="3.5645193"
     inkscape:cx="147.00439"
     inkscape:cy="25.108575"
     inkscape:window-width="1920"
     inkscape:window-height="1115"
     inkscape:window-x="0"
     inkscape:window-y="48"
     inkscape:window-maximized="1"
     inkscape:current-layer="layer4"
     fit-margin-top="0"
     fit-margin-left="0"
     fit-margin-right="0"
     fit-margin-bottom="0"
     inkscape:showpageshadow="2"
     inkscape:deskcolor="#d1d1d1" />
  <defs
     id="defs26890">
    <filter
       style="color-interpolation-filters:sRGB"
       id="filter49107"
       inkscape:label="filter0">
      <feBlend
         mode="normal"
         in2="SourceGraphic"
         id="feBlend49109" />
    </filter>
  </defs>
  <g
     inkscape:groupmode="layer"
     id="layer4"
     inkscape:label="Layer 3"
     style="display:inline"
     transform="translate(-106.93972,-89.873894)">
    <path
       style="fill:#ffffff;fill-opacity:1;stroke:#000000;stroke-width:0.25;stroke-linecap:butt;stroke-linejoin:miter;stroke-miterlimit:4;stroke-dasharray:none;stroke-opacity:1"
       d="m 187.65677,114.73775 -77.40474,-0.0805 c -3.96592,-0.25608 -4.59623,-5.9031 0.38762,-5.87872 l 8.3673,-0.45623 c 0.17086,-6.32226 5.43923,-8.09814 10.81085,-7.09065 1.65679,-13.775393 31.04114,-16.168784 34.18425,-0.0624 7.26843,-1.92767 11.57023,3.36242 11.77465,8.24768 3.57093,-0.0281 10.09239,-0.10329 12.21165,0.0685 3.62935,0.29416 3.76657,5.17181 -0.33158,5.25231 z"
       id="path59427-1-3"
       sodipodi:nodetypes="cccccccscc" />
    <g
       aria-label="LAND?"
       id="text69694"
       style="font-size:10.5833px;line-height:1.25;font-family:Ranchers;-inkscape-font-specification:Ranchers;fill:#28b5ff;stroke-width:0.264583">
      <path
         d="m 136.63582,102.15409 q -0.0317,1.44992 -0.0529,2.39183 -0.0106,0.94191 -0.0212,1.5875 -0.0106,0.63499 -0.0106,1.06891 0,0.43391 0,0.87841 l 1.66158,-0.0635 q 0.0212,0.34925 0.0318,0.68792 0.0106,0.33866 0.0106,0.67733 0,0.34925 -0.0106,0.70908 -0.0106,0.34925 -0.0318,0.71966 h -3.41841 q 0.0317,-1.48166 0.0423,-3.0374 0.0212,-1.55575 0.0212,-3.03741 0,-0.68791 0,-1.3335 0,-0.64558 -0.0106,-1.24883 z"
         id="path240" />
      <path
         d="m 138.35031,110.81123 1.56633,-8.65714 h 2.61407 l 1.55575,8.65714 h -1.78858 l -0.26458,-1.73566 h -1.62983 l -0.254,1.73566 z m 2.33891,-3.63007 h 1.05833 l -0.52916,-3.49249 z"
         id="path242" />
      <path
         d="m 148.55262,102.15409 h 1.51341 q -0.0318,2.159 -0.0318,4.32857 0,2.16958 0.0318,4.32857 h -2.04258 l -2.24366,-5.17523 v 5.17523 h -1.44991 q 0.0212,-1.09008 0.0317,-2.15899 0.0106,-1.0795 0.0106,-2.16958 0,-1.09008 -0.0106,-2.15899 -0.0106,-1.0795 -0.0317,-2.16958 h 2.13783 l 2.08491,5.16465 z"
         id="path244" />
      <path
         d="m 150.61636,102.18584 q 0.60325,-0.0847 1.15358,-0.11641 0.55033,-0.0423 0.94191,-0.0423 0.93133,0 1.7145,0.254 0.78316,0.254 1.37583,0.91017 0.53975,0.61383 0.80433,1.49224 0.26458,0.86783 0.26458,1.87325 0,0.98424 -0.254,1.78857 -0.254,0.80434 -0.78316,1.37583 -0.51858,0.5715 -1.31233,0.889 -0.79375,0.3175 -1.87325,0.3175 -0.24341,0 -0.79374,-0.0212 -0.53975,-0.0212 -1.19592,-0.0953 0.0106,-0.48683 0.0106,-0.94191 0.0106,-0.46567 0.0106,-0.91016 0.0106,-0.45509 0.0106,-0.91017 0,-0.45508 0,-0.94191 0,-1.38641 -0.0212,-2.65641 -0.0106,-1.27 -0.0529,-2.26483 z m 2.05316,1.59808 q -0.10583,0 -0.20108,0.0106 -0.0847,0.0106 -0.16933,0.0212 -0.0106,0.49742 -0.0106,0.99483 0,0.48683 0,0.98425 0,0.24342 0,0.51858 0.0106,0.27517 0.0106,0.5715 0.0106,0.28575 0.0212,0.58208 0.0106,0.28575 0.0106,0.53975 0.0952,0.0212 0.1905,0.0318 0.0952,0 0.16933,0 0.39158,0 0.71966,-0.16933 0.33867,-0.16934 0.58208,-0.45509 0.254,-0.29633 0.39159,-0.68791 0.13758,-0.39158 0.13758,-0.83608 0,-0.32808 -0.0952,-0.6985 -0.0847,-0.381 -0.30692,-0.68791 -0.21166,-0.30692 -0.57149,-0.508 -0.34925,-0.21167 -0.87842,-0.21167 z"
         id="path246" />
      <path
         d="m 158.17284,107.64683 q 0,-0.39159 0.10583,-0.66675 0.10583,-0.28575 0.254,-0.508 0.15875,-0.22225 0.32808,-0.40216 0.17992,-0.17992 0.32808,-0.35984 0.15875,-0.17991 0.254,-0.39158 0.10584,-0.21166 0.10584,-0.49741 0,-0.29634 -0.10584,-0.46567 -0.10583,-0.17992 -0.26458,-0.27517 -0.15875,-0.0952 -0.32808,-0.11641 -0.16933,-0.0318 -0.29633,-0.0318 -0.47625,0 -0.80433,0.24341 -0.3175,0.23284 -0.51859,0.53975 -0.0212,-0.23283 -0.0317,-0.508 0,-0.28574 0,-0.59266 0,-0.28575 0,-0.51858 0.0106,-0.23283 0.0317,-0.508 0.29634,-0.3175 0.81492,-0.49742 0.52916,-0.17991 1.17474,-0.17991 0.37042,0 0.80434,0.0847 0.43391,0.0741 0.80433,0.3175 0.37041,0.23284 0.61383,0.66675 0.254,0.42333 0.254,1.12183 0,0.51858 -0.13759,0.87842 -0.13758,0.35983 -0.34925,0.63499 -0.20108,0.26459 -0.44449,0.47625 -0.24342,0.21167 -0.45509,0.43392 -0.21166,0.22225 -0.35983,0.48683 -0.13758,0.26458 -0.14816,0.635 z m 0.88899,1.00541 q 0.26459,0 0.46567,0.10583 0.21167,0.10584 0.34925,0.27517 0.14817,0.15875 0.22225,0.35983 0.0741,0.1905 0.0741,0.37042 0,0.23283 -0.0952,0.4445 -0.0847,0.21166 -0.24341,0.37041 -0.14817,0.15875 -0.35984,0.254 -0.20108,0.0952 -0.42333,0.0952 -0.28575,0 -0.49741,-0.0952 -0.21167,-0.0847 -0.34925,-0.23283 -0.13759,-0.15875 -0.21167,-0.34925 -0.0635,-0.1905 -0.0635,-0.39158 0,-0.21167 0.0741,-0.42334 0.0741,-0.22224 0.21167,-0.39158 0.14817,-0.17991 0.35983,-0.28575 0.21167,-0.10583 0.48683,-0.10583 z"
         id="path248" />
    </g>
    <g
       aria-label="ready to"
       id="text84583"
       style="font-size:5.38687px;line-height:1.25;font-family:Roboto;-inkscape-font-specification:Roboto;stroke-width:0.134672">
      <path
         d="m 139.07683,98.197648 q -0.11048,-0.01841 -0.23936,-0.01841 -0.47872,0 -0.64969,0.407698 v 2.020076 h -0.48661 v -2.845993 h 0.47346 l 0.008,0.328789 q 0.23936,-0.381395 0.67862,-0.381395 0.14204,0 0.21569,0.03682 z"
         id="path251" />
      <path
         d="m 140.65501,100.65962 q -0.57867,0 -0.94165,-0.37877 -0.36298,-0.381393 -0.36298,-1.017927 v -0.08943 q 0,-0.423479 0.16045,-0.754898 0.16308,-0.334049 0.45241,-0.520801 0.29196,-0.189382 0.63127,-0.189382 0.555,0 0.86274,0.365613 0.30775,0.365612 0.30775,1.046862 v 0.202534 h -1.92802 q 0.0105,0.420849 0.24462,0.68125 0.23673,0.25777 0.59971,0.25777 0.25777,0 0.43663,-0.10521 0.17886,-0.10522 0.31301,-0.278815 l 0.29723,0.231465 q -0.35773,0.54974 -1.07317,0.54974 z m -0.0605,-2.551402 q -0.29459,0 -0.49449,0.215685 -0.19991,0.213055 -0.24725,0.59971 h 1.42562 v -0.03682 q -0.021,-0.370874 -0.1999,-0.573407 -0.17886,-0.205164 -0.48398,-0.205164 z"
         id="path253" />
      <path
         d="m 144.08493,100.60701 q -0.0421,-0.0842 -0.0684,-0.29986 -0.33931,0.35247 -0.81013,0.35247 -0.42085,0 -0.69177,-0.23673 -0.26829,-0.23936 -0.26829,-0.604972 0,-0.444522 0.33668,-0.689141 0.3393,-0.247249 0.95217,-0.247249 h 0.47345 v -0.223576 q 0,-0.25514 -0.15256,-0.405067 -0.15255,-0.152558 -0.44978,-0.152558 -0.2604,0 -0.43663,0.131515 -0.17623,0.131516 -0.17623,0.318267 h -0.48924 q 0,-0.213055 0.14993,-0.410328 0.15256,-0.199903 0.41033,-0.315637 0.2604,-0.115733 0.57077,-0.115733 0.49187,0 0.77069,0.247249 0.27881,0.244618 0.28933,0.675989 v 1.309893 q 0,0.391918 0.1,0.623378 v 0.0421 z m -0.8075,-0.37087 q 0.22883,0 0.434,-0.11837 0.20516,-0.118361 0.29722,-0.307743 v -0.583929 h -0.38139 q -0.89431,0 -0.89431,0.523432 0,0.228836 0.15256,0.35772 0.15256,0.12889 0.39192,0.12889 z"
         id="path255" />
      <path
         d="m 145.13968,99.160341 q 0,-0.654947 0.31038,-1.052123 0.31038,-0.399807 0.81277,-0.399807 0.49975,0 0.79172,0.34194 v -1.483494 h 0.48661 v 4.040153 H 147.094 l -0.0237,-0.30512 q -0.29196,0.35773 -0.81276,0.35773 -0.4945,0 -0.80751,-0.40507 -0.31038,-0.405069 -0.31038,-1.057385 z m 0.48661,0.05524 q 0,0.483977 0.1999,0.757529 0.19991,0.273554 0.55237,0.273554 0.46293,0 0.67599,-0.415591 v -1.307263 q -0.21832,-0.402437 -0.67073,-0.402437 -0.35772,0 -0.55763,0.276183 -0.1999,0.276182 -0.1999,0.818025 z"
         id="path257" />
      <path
         d="m 149.22718,99.894197 0.66284,-2.13318 h 0.5208 l -1.14418,3.285253 q -0.26566,0.71018 -0.84433,0.71018 l -0.0921,-0.008 -0.18149,-0.0342 v -0.39455 l 0.13151,0.0105 q 0.24725,0 0.38403,-0.1 0.1394,-0.1 0.22883,-0.36561 l 0.10785,-0.28933 -1.0153,-2.814433 h 0.53132 z"
         id="path259" />
      <path
         d="m 152.83859,97.071877 v 0.68914 h 0.53133 v 0.376134 h -0.53133 v 1.764936 q 0,0.170973 0.071,0.257773 0.071,0.0842 0.24199,0.0842 0.0842,0 0.23147,-0.0316 v 0.39455 q -0.19201,0.0526 -0.37351,0.0526 -0.32615,0 -0.49186,-0.19728 -0.16571,-0.19727 -0.16571,-0.560253 v -1.764936 h -0.51817 v -0.376134 h 0.51817 v -0.68914 z"
         id="path261" />
      <path
         d="m 153.75657,99.15771 q 0,-0.418218 0.16308,-0.752268 0.16571,-0.334049 0.45767,-0.51554 0.2946,-0.181491 0.67073,-0.181491 0.5813,0 0.93902,0.402437 0.36035,0.402437 0.36035,1.070535 v 0.03419 q 0,0.415589 -0.16044,0.747008 -0.15782,0.328785 -0.45505,0.512905 -0.29459,0.18413 -0.67862,0.18413 -0.57866,0 -0.93902,-0.40244 -0.35772,-0.402438 -0.35772,-1.065276 z m 0.48924,0.05787 q 0,0.473456 0.21831,0.760159 0.22095,0.286704 0.58919,0.286704 0.37088,0 0.58919,-0.289334 0.21832,-0.291964 0.21832,-0.815396 0,-0.468194 -0.22358,-0.757528 -0.22094,-0.291964 -0.58919,-0.291964 -0.36035,0 -0.5813,0.286703 -0.22094,0.286704 -0.22094,0.820656 z"
         id="path263" />
    </g>
  </g>
</svg>
