<?xml version="1.0" encoding="UTF-8" standalone="no"?>
<!-- Created with Inkscape (http://www.inkscape.org/) -->

<svg
   width="299.72311mm"
   height="106.232mm"
   viewBox="0 0 299.72311 106.232"
   version="1.1"
   id="svg34493"
   xml:space="preserve"
   xmlns="http://www.w3.org/2000/svg"
   xmlns:svg="http://www.w3.org/2000/svg"><defs
     id="defs34490" /><g
     id="layer1"
     transform="translate(36.978824,-20.489405)"><rect
       style="fill:#34373c;fill-opacity:1;fill-rule:evenodd;stroke:#000000;stroke-width:1;stroke-linecap:round;stroke-linejoin:round;stroke-opacity:1;paint-order:fill markers stroke"
       id="rect34576"
       width="170.26697"
       height="105.23077"
       x="27.278402"
       y="20.970854"
       ry="5.1382222" /><rect
       style="fill:#ffffff;fill-opacity:1;fill-rule:evenodd;stroke:#000000;stroke-width:0.989158;stroke-linecap:round;stroke-linejoin:round;stroke-opacity:1;paint-order:fill markers stroke"
       id="rect41007"
       width="170.27782"
       height="102.9547"
       x="27.278402"
       y="20.970854"
       ry="5.0270863" /><rect
       style="fill:#1db1ff;fill-opacity:0.226107;fill-rule:evenodd;stroke:#000000;stroke-width:0.989158;stroke-linecap:round;stroke-linejoin:round;stroke-opacity:1;paint-order:fill markers stroke"
       id="rect42136"
       width="170.27782"
       height="102.9547"
       x="27.278402"
       y="20.970854"
       ry="5.0270863" /><path
       id="path1066"
       style="color:#000000;fill:#ffffff;stroke:none;stroke-width:1.49415;stroke-opacity:0.0862471;-inkscape-stroke:none;paint-order:stroke fill markers"
       d="m 54.871568,33.487995 -4.394921,5.156973 11.528559,10.48305 c -0.772126,0.852774 -1.483095,1.713951 -2.146499,2.600485 L 47.733295,41.48096 l -3.078451,6.032557 13.166231,7.262538 c -0.605944,1.016574 -1.185318,2.091748 -1.751173,3.254482 L 43.347641,51.032826 41.5208,57.558 54.534151,61.657176 c -2.360742,6.511184 -2.881512,13.648202 -1.468577,20.609373 0.629508,3.101172 1.558826,5.809837 3.043706,8.880129 2.075055,4.290546 4.890744,8.163455 8.185269,11.232772 14.832905,13.82002 37.572031,13.81993 52.406261,0 2.51852,-2.34633 4.65759,-5.283825 6.51054,-8.413777 1.01145,5.690637 4.00254,10.820717 8.70491,14.358357 v 0.003 c 2.91565,2.19335 6.41473,3.73875 9.80596,4.2876 0.68955,0.11161 1.55972,0.28253 1.40063,0.24168 l 0.0702,0.0149 c 0.45409,0.1016 0.57477,0.0722 0.81999,0.0765 0.24523,0.004 0.51257,0.001 0.79607,-0.003 0.56698,-0.0105 1.19337,-0.0305 1.62841,-0.0356 h 0.0149 0.0149 c 3.0117,-0.0814 5.50337,-0.58117 8.0432,-1.63381 8.68581,-3.59994 14.34473,-11.973307 14.34912,-21.280403 3.9e-4,-1.266974 -0.10519,-2.508478 -0.30035,-3.720059 l 0.46327,-0.14671 10.0067,-3.154102 -1.43846,-5.139223 -9.74341,5.36391 c -0.35491,-1.159941 -0.79924,-2.280615 -1.32342,-3.354859 l 0.51115,-0.28105 9.18362,-5.06895 -2.42215,-4.753933 -8.79987,7.440128 c -0.5972,-0.897597 -1.25639,-1.749571 -1.96969,-2.552625 l 0.38683,-0.35286 7.75983,-7.061788 -3.45834,-4.062889 -6.87111,9.327969 c -4.03596,-3.485712 -9.28685,-5.59786 -15.03631,-5.59786 -6.05132,0 -11.58597,2.207548 -15.90727,6.356074 -0.60174,0.577697 -0.92013,1.208614 -1.4153,1.774331 0.0914,-5.710147 -0.95021,-11.547934 -3.43517,-16.724847 -2.07854,-4.329993 -4.27754,-7.458645 -7.55213,-10.733217 C 110.02965,40.083969 100.26405,36.3489 90.498478,36.3489 c -9.328713,0 -18.656419,3.410759 -25.982686,10.225933 z m 35.561641,7.755148 c 1.138855,1.9e-4 2.277859,0.0591 3.412007,0.176817 6.048,0.627587 11.964434,2.919235 17.056954,6.805441 1.30616,0.996957 4.61377,4.267926 5.64113,5.58242 4.57822,5.858507 6.94206,12.275321 7.20236,19.499839 0.20565,5.706417 -0.78325,10.49236 -3.20123,15.521893 -1.08569,2.258165 -2.3331,4.307276 -3.72394,6.128304 -0.93049,1.218304 -4.02003,4.378766 -5.34077,5.445753 -4.8998,3.95874 -11.23617,6.60996 -17.354217,7.27493 -1.727937,0.18777 -5.811832,0.17664 -7.552903,-0.02 -3.3194,-0.37506 -7.671113,-1.68528 -10.85836,-3.28616 -3.626564,-1.8216 -6.279947,-3.77209 -9.117222,-6.702778 -2.791097,-2.883055 -4.395995,-5.1886 -6.151499,-8.839999 C 58.012472,83.76886 56.685491,78.53872 57.235807,73.44206 58.136929,65.096678 61.114176,56.724173 67.28884,50.741019 c 2.903291,-2.813205 5.132788,-4.386556 8.707996,-6.146057 4.564943,-2.246705 9.501322,-3.352599 14.436373,-3.351769 z M 146.4144,71.921709 c 1.20772,-0.005 2.28943,0.0382 2.82211,0.145927 5.52587,1.117354 10.10487,4.558396 12.65045,9.487016 1.52446,2.951685 2.0052,4.948973 2.0052,8.384435 0,5.32611 -1.73339,9.360256 -5.6527,13.122923 -2.2703,2.17953 -4.9042,3.66407 -7.86793,4.44744 -1.84889,0.48867 -6.35724,0.61 -8.23546,0.21928 -2.39686,-0.4986 -4.59832,-1.45103 -6.73214,-2.92172 -1.04883,-0.72284 -4.07801,-3.80559 -4.70994,-4.76554 -0.7973,-1.211144 -2.00575,-3.807809 -2.48083,-5.37239 -0.44201,-1.455874 -0.39852,-1.243564 -0.40536,-4.645826 v -0.003 c -0.007,-3.190692 -0.006,-3.358309 0.3181,-4.537743 1.80919,-6.573474 6.63015,-11.405634 13.15235,-13.199355 0.75965,-0.20893 3.1233,-0.352617 5.13615,-0.361347 z" /><g
       id="layer1-9"
       transform="matrix(0.05265837,0,0,0.05265837,14.36064,194.55755)" /></g></svg>
