<?xml version="1.0" encoding="UTF-8" standalone="no"?>
<!-- Created with Inkscape (http://www.inkscape.org/) -->

<svg
   width="299.72311mm"
   height="106.231mm"
   viewBox="0 0 299.72311 106.231"
   version="1.1"
   id="svg34493"
   xml:space="preserve"
   sodipodi:docname="passport_page.svg"
   inkscape:version="1.2 (dc2aedaf03, 2022-05-15)"
   xmlns:inkscape="http://www.inkscape.org/namespaces/inkscape"
   xmlns:sodipodi="http://sodipodi.sourceforge.net/DTD/sodipodi-0.dtd"
   xmlns="http://www.w3.org/2000/svg"
   xmlns:svg="http://www.w3.org/2000/svg"><sodipodi:namedview
     id="namedview225"
     pagecolor="#ffffff"
     bordercolor="#000000"
     borderopacity="0.25"
     inkscape:showpageshadow="2"
     inkscape:pageopacity="0.0"
     inkscape:pagecheckerboard="0"
     inkscape:deskcolor="#d1d1d1"
     inkscape:document-units="mm"
     showgrid="false"
     inkscape:zoom="1.1396421"
     inkscape:cx="566.40588"
     inkscape:cy="200.50154"
     inkscape:window-width="1920"
     inkscape:window-height="1115"
     inkscape:window-x="0"
     inkscape:window-y="48"
     inkscape:window-maximized="1"
     inkscape:current-layer="layer1" /><defs
     id="defs34490" /><g
     id="layer1"
     transform="translate(36.978824,-20.489405)"><rect
       style="fill:#ffffff;fill-opacity:1;fill-rule:evenodd;stroke:#000000;stroke-width:1;stroke-linecap:round;stroke-linejoin:round;stroke-miterlimit:4;stroke-dasharray:none;stroke-opacity:1;paint-order:fill markers stroke"
       id="rect34576-5"
       width="170.26697"
       height="105.23077"
       x="27.276573"
       y="20.989405"
       ry="5.1382222" /><rect
       style="fill:#ffdb13;fill-opacity:0.393939;fill-rule:evenodd;stroke:#000000;stroke-width:1;stroke-linecap:round;stroke-linejoin:round;stroke-miterlimit:4;stroke-dasharray:none;stroke-opacity:1;paint-order:fill markers stroke"
       id="rect49913"
       width="170.26697"
       height="105.23077"
       x="27.276573"
       y="20.989405"
       ry="5.1382222" /><path
       id="path1066-8"
       style="color:#000000;fill:#ffffff;stroke:none;stroke-width:1.49415;stroke-opacity:0.0862471;-inkscape-stroke:none;paint-order:stroke fill markers"
       d="m 54.869726,35.782815 -4.394921,5.157 11.528559,10.48311 c -0.772126,0.85278 -1.483095,1.71396 -2.146499,2.6005 l -12.125412,-10.2476 -3.078451,6.03259 13.166231,7.26258 c -0.605944,1.01658 -1.185318,2.09176 -1.751173,3.2545 l -12.722261,-6.99775 -1.826841,6.52521 13.013351,4.0992 c -2.360742,6.51122 -2.881512,13.64828 -1.468577,20.60949 0.629508,3.10119 1.558826,5.80987 3.043706,8.88018 2.075055,4.29057 4.890744,8.163495 8.185271,11.232815 14.8329,13.82002 37.572031,13.81993 52.406261,0 2.51852,-2.34633 4.65759,-5.283835 6.51054,-8.413805 1.01145,5.690665 4.00254,10.820745 8.70491,14.358385 v 0.003 c 2.91565,2.19335 6.41473,3.73875 9.80596,4.2876 0.68955,0.11161 1.55972,0.28253 1.40063,0.24168 l 0.0702,0.0149 c 0.45409,0.1016 0.57477,0.0722 0.81999,0.0765 0.24523,0.004 0.51257,10e-4 0.79607,-0.003 0.56698,-0.0105 1.19337,-0.0305 1.62841,-0.0356 h 0.0149 0.0149 c 3.0117,-0.0814 5.50337,-0.58117 8.0432,-1.63381 8.68581,-3.59994 14.34473,-11.97331 14.34912,-21.280455 3.9e-4,-1.26698 -0.10519,-2.50849 -0.30035,-3.72008 l 0.46327,-0.14671 10.0067,-3.15412 -1.43846,-5.13925 -9.74341,5.36394 c -0.35491,-1.15995 -0.79924,-2.28063 -1.32342,-3.35488 l 0.51115,-0.28105 9.18362,-5.06898 -2.42215,-4.75396 -8.79987,7.44017 c -0.5972,-0.8976 -1.25639,-1.74958 -1.96969,-2.55264 l 0.38683,-0.35286 7.75983,-7.06183 -3.45834,-4.06291 -6.87111,9.32802 c -4.03596,-3.48573 -9.28685,-5.59789 -15.03631,-5.59789 -6.05132,0 -11.58597,2.20756 -15.90727,6.35611 -0.60174,0.5777 -0.92013,1.20862 -1.4153,1.77434 0.0914,-5.71018 -0.95021,-11.548 -3.43517,-16.72494 -2.07854,-4.33002 -4.27754,-7.45869 -7.55213,-10.73328 -7.46841,-7.46841 -17.23401,-11.2035 -26.999581,-11.2035 -9.32872,0 -18.65642,3.41078 -25.98269,10.22599 z m 35.561643,7.75519 c 1.13885,1.9e-4 2.27786,0.0591 3.412,0.17682 6.048,0.62759 11.964441,2.91925 17.056961,6.80548 1.30616,0.99696 4.61377,4.26795 5.64113,5.58245 4.57822,5.85854 6.94206,12.27539 7.20236,19.49995 0.20565,5.70645 -0.78325,10.49242 -3.20123,15.52198 -1.08569,2.25818 -2.3331,4.3073 -3.72394,6.12834 -0.93049,1.21831 -4.02003,4.378785 -5.34077,5.445775 -4.8998,3.95874 -11.23617,6.60996 -17.354221,7.27493 -1.72794,0.18777 -5.81183,0.17664 -7.5529,-0.02 -3.3194,-0.37506 -7.67111,-1.68528 -10.85836,-3.28616 -3.62657,-1.8216 -6.27995,-3.77209 -9.11722,-6.702785 -2.7911,-2.88307 -4.395998,-5.18863 -6.151502,-8.84005 -2.433047,-5.06077 -3.760028,-10.29094 -3.209712,-15.38763 0.901122,-8.34543 3.878369,-16.71798 10.053034,-22.70117 2.90329,-2.81322 5.13279,-4.38658 8.70799,-6.14609 4.56495,-2.24672 9.50133,-3.35262 14.43638,-3.35179 z m 55.981191,30.67874 c 1.20772,-0.005 2.28943,0.0382 2.82211,0.14593 5.52587,1.11736 10.10487,4.55842 12.65045,9.48707 1.52446,2.9517 2.0052,4.949 2.0052,8.38448 0,5.32614 -1.73339,9.360305 -5.6527,13.122975 -2.2703,2.17953 -4.9042,3.66407 -7.86793,4.44744 -1.84889,0.48867 -6.35724,0.61 -8.23546,0.21928 -2.39686,-0.4986 -4.59832,-1.45103 -6.73214,-2.92172 -1.04883,-0.72284 -4.07801,-3.80559 -4.70994,-4.76554 -0.7973,-1.21115 -2.00575,-3.807825 -2.48083,-5.372415 -0.44201,-1.45588 -0.39852,-1.24357 -0.40536,-4.64585 v -0.003 c -0.007,-3.19071 -0.006,-3.35833 0.3181,-4.53777 1.80919,-6.57351 6.63015,-11.4057 13.15235,-13.19943 0.75965,-0.20893 3.1233,-0.35262 5.13615,-0.36135 z" /><g
       id="layer1-9"
       transform="matrix(0.05265837,0,0,0.05265837,14.36064,194.55755)" /></g></svg>
